ISO-10303-21;
HEADER;
/* Generated by software containing ST-Developer
 * from STEP Tools, Inc. (www.steptools.com) 
 */

FILE_DESCRIPTION(
/* description */ (''),
/* implementation_level */ '2;1');

FILE_NAME(
/* name */ 'axle acke.step',
/* time_stamp */ '2026-07-17T16:46:26-06:00',
/* author */ (''),
/* organization */ (''),
/* preprocessor_version */ 'ST-DEVELOPER v20.1',
/* originating_system */ 'Autodesk Translation Framework v15.8.0.0',
/* authorisation */ '');

FILE_SCHEMA (('AUTOMOTIVE_DESIGN { 1 0 10303 214 3 1 1 }'));
ENDSEC;

DATA;
#10=MECHANICAL_DESIGN_GEOMETRIC_PRESENTATION_REPRESENTATION('',(#13),#974);
#11=SHAPE_REPRESENTATION_RELATIONSHIP('SRR','None',#981,#12);
#12=ADVANCED_BREP_SHAPE_REPRESENTATION('',(#14),#973);
#13=STYLED_ITEM('',(#991),#14);
#14=MANIFOLD_SOLID_BREP('Body1',#516);
#15=ELLIPSE('',#558,5.09116882454314,3.6);
#16=ELLIPSE('',#559,5.09116882454314,3.6);
#17=FACE_BOUND('',#154,.T.);
#18=FACE_BOUND('',#158,.T.);
#19=FACE_BOUND('',#160,.T.);
#20=FACE_BOUND('',#163,.T.);
#21=FACE_BOUND('',#173,.T.);
#22=FACE_BOUND('',#175,.T.);
#23=CYLINDRICAL_SURFACE('',#544,2.4);
#24=CYLINDRICAL_SURFACE('',#557,3.6);
#25=CYLINDRICAL_SURFACE('',#565,3.6);
#26=CYLINDRICAL_SURFACE('',#577,2.4);
#27=CYLINDRICAL_SURFACE('',#579,2.4);
#28=CYLINDRICAL_SURFACE('',#580,2.4);
#29=CYLINDRICAL_SURFACE('',#582,2.4);
#30=CYLINDRICAL_SURFACE('',#589,3.2);
#31=CYLINDRICAL_SURFACE('',#590,3.2);
#32=LINE('',#778,#65);
#33=LINE('',#780,#66);
#34=LINE('',#782,#67);
#35=LINE('',#783,#68);
#36=LINE('',#786,#69);
#37=LINE('',#788,#70);
#38=LINE('',#792,#71);
#39=LINE('',#794,#72);
#40=LINE('',#798,#73);
#41=LINE('',#800,#74);
#42=LINE('',#803,#75);
#43=LINE('',#830,#76);
#44=LINE('',#832,#77);
#45=LINE('',#833,#78);
#46=LINE('',#860,#79);
#47=LINE('',#862,#80);
#48=LINE('',#863,#81);
#49=LINE('',#866,#82);
#50=LINE('',#894,#83);
#51=LINE('',#895,#84);
#52=LINE('',#904,#85);
#53=LINE('',#906,#86);
#54=LINE('',#909,#87);
#55=LINE('',#913,#88);
#56=LINE('',#919,#89);
#57=LINE('',#933,#90);
#58=LINE('',#945,#91);
#59=LINE('',#947,#92);
#60=LINE('',#950,#93);
#61=LINE('',#953,#94);
#62=LINE('',#959,#95);
#63=LINE('',#968,#96);
#64=LINE('',#970,#97);
#65=VECTOR('',#601,10.);
#66=VECTOR('',#602,10.);
#67=VECTOR('',#603,10.);
#68=VECTOR('',#604,10.);
#69=VECTOR('',#607,10.);
#70=VECTOR('',#608,10.);
#71=VECTOR('',#611,10.);
#72=VECTOR('',#612,10.);
#73=VECTOR('',#615,10.);
#74=VECTOR('',#616,10.);
#75=VECTOR('',#619,10.);
#76=VECTOR('',#626,10.);
#77=VECTOR('',#627,10.);
#78=VECTOR('',#628,10.);
#79=VECTOR('',#635,10.);
#80=VECTOR('',#636,10.);
#81=VECTOR('',#637,10.);
#82=VECTOR('',#640,10.);
#83=VECTOR('',#649,10.);
#84=VECTOR('',#650,10.);
#85=VECTOR('',#661,10.);
#86=VECTOR('',#662,10.);
#87=VECTOR('',#665,10.);
#88=VECTOR('',#670,10.);
#89=VECTOR('',#677,3.6);
#90=VECTOR('',#694,3.6);
#91=VECTOR('',#711,10.);
#92=VECTOR('',#714,10.);
#93=VECTOR('',#719,10.);
#94=VECTOR('',#724,10.);
#95=VECTOR('',#731,2.4);
#96=VECTOR('',#744,3.2);
#97=VECTOR('',#747,3.2);
#98=PLANE('',#533);
#99=PLANE('',#534);
#100=PLANE('',#540);
#101=PLANE('',#543);
#102=PLANE('',#548);
#103=PLANE('',#553);
#104=PLANE('',#568);
#105=PLANE('',#573);
#106=PLANE('',#575);
#107=PLANE('',#576);
#108=PLANE('',#578);
#109=PLANE('',#581);
#110=PLANE('',#585);
#111=PLANE('',#587);
#112=FACE_OUTER_BOUND('',#142,.T.);
#113=FACE_OUTER_BOUND('',#143,.T.);
#114=FACE_OUTER_BOUND('',#144,.T.);
#115=FACE_OUTER_BOUND('',#145,.T.);
#116=FACE_OUTER_BOUND('',#146,.T.);
#117=FACE_OUTER_BOUND('',#147,.T.);
#118=FACE_OUTER_BOUND('',#148,.T.);
#119=FACE_OUTER_BOUND('',#149,.T.);
#120=FACE_OUTER_BOUND('',#150,.T.);
#121=FACE_OUTER_BOUND('',#151,.T.);
#122=FACE_OUTER_BOUND('',#152,.T.);
#123=FACE_OUTER_BOUND('',#153,.T.);
#124=FACE_OUTER_BOUND('',#155,.T.);
#125=FACE_OUTER_BOUND('',#156,.T.);
#126=FACE_OUTER_BOUND('',#157,.T.);
#127=FACE_OUTER_BOUND('',#159,.T.);
#128=FACE_OUTER_BOUND('',#161,.T.);
#129=FACE_OUTER_BOUND('',#162,.T.);
#130=FACE_OUTER_BOUND('',#164,.T.);
#131=FACE_OUTER_BOUND('',#165,.T.);
#132=FACE_OUTER_BOUND('',#166,.T.);
#133=FACE_OUTER_BOUND('',#167,.T.);
#134=FACE_OUTER_BOUND('',#168,.T.);
#135=FACE_OUTER_BOUND('',#169,.T.);
#136=FACE_OUTER_BOUND('',#170,.T.);
#137=FACE_OUTER_BOUND('',#171,.T.);
#138=FACE_OUTER_BOUND('',#172,.T.);
#139=FACE_OUTER_BOUND('',#174,.T.);
#140=FACE_OUTER_BOUND('',#176,.T.);
#141=FACE_OUTER_BOUND('',#177,.T.);
#142=EDGE_LOOP('',(#335,#336,#337,#338));
#143=EDGE_LOOP('',(#339,#340,#341,#342,#343));
#144=EDGE_LOOP('',(#344,#345,#346,#347,#348,#349,#350,#351,#352,#353,#354,
#355));
#145=EDGE_LOOP('',(#356,#357,#358,#359));
#146=EDGE_LOOP('',(#360,#361,#362,#363,#364));
#147=EDGE_LOOP('',(#365,#366,#367,#368));
#148=EDGE_LOOP('',(#369,#370,#371,#372,#373));
#149=EDGE_LOOP('',(#374,#375,#376,#377));
#150=EDGE_LOOP('',(#378,#379,#380,#381));
#151=EDGE_LOOP('',(#382,#383,#384,#385,#386));
#152=EDGE_LOOP('',(#387,#388,#389,#390));
#153=EDGE_LOOP('',(#391));
#154=EDGE_LOOP('',(#392,#393,#394,#395,#396,#397,#398,#399,#400,#401,#402,
#403));
#155=EDGE_LOOP('',(#404,#405,#406,#407,#408));
#156=EDGE_LOOP('',(#409,#410,#411,#412,#413));
#157=EDGE_LOOP('',(#414,#415,#416,#417,#418,#419));
#158=EDGE_LOOP('',(#420,#421));
#159=EDGE_LOOP('',(#422));
#160=EDGE_LOOP('',(#423));
#161=EDGE_LOOP('',(#424,#425,#426,#427,#428));
#162=EDGE_LOOP('',(#429));
#163=EDGE_LOOP('',(#430));
#164=EDGE_LOOP('',(#431,#432,#433,#434,#435));
#165=EDGE_LOOP('',(#436,#437,#438,#439,#440));
#166=EDGE_LOOP('',(#441,#442,#443,#444));
#167=EDGE_LOOP('',(#445,#446,#447,#448,#449));
#168=EDGE_LOOP('',(#450,#451,#452,#453));
#169=EDGE_LOOP('',(#454,#455,#456,#457));
#170=EDGE_LOOP('',(#458,#459,#460,#461,#462));
#171=EDGE_LOOP('',(#463,#464,#465,#466));
#172=EDGE_LOOP('',(#467));
#173=EDGE_LOOP('',(#468));
#174=EDGE_LOOP('',(#469));
#175=EDGE_LOOP('',(#470));
#176=EDGE_LOOP('',(#471,#472,#473,#474));
#177=EDGE_LOOP('',(#475,#476,#477,#478));
#178=CIRCLE('',#531,2.);
#179=CIRCLE('',#532,2.4);
#180=CIRCLE('',#535,2.);
#181=CIRCLE('',#536,2.);
#182=CIRCLE('',#537,2.);
#183=CIRCLE('',#539,2.4);
#184=CIRCLE('',#542,2.4);
#185=CIRCLE('',#545,2.4);
#186=CIRCLE('',#547,2.4);
#187=CIRCLE('',#550,3.6);
#188=CIRCLE('',#551,0.1);
#189=CIRCLE('',#552,3.5);
#190=CIRCLE('',#554,2.4);
#191=CIRCLE('',#555,2.4);
#192=CIRCLE('',#556,2.4);
#193=CIRCLE('',#561,3.5);
#194=CIRCLE('',#562,0.1);
#195=CIRCLE('',#563,3.6);
#196=CIRCLE('',#564,3.6);
#197=CIRCLE('',#566,3.6);
#198=CIRCLE('',#567,3.6);
#199=CIRCLE('',#569,3.2);
#200=CIRCLE('',#571,3.5);
#201=CIRCLE('',#572,0.1);
#202=CIRCLE('',#574,3.2);
#203=CIRCLE('',#583,2.4);
#204=CIRCLE('',#584,2.4);
#205=CIRCLE('',#586,3.2);
#206=CIRCLE('',#588,3.2);
#207=B_SPLINE_CURVE_WITH_KNOTS('',3,(#752,#753,#754,#755,#756,#757,#758,
#759,#760,#761),.UNSPECIFIED.,.F.,.F.,(4,2,2,2,4),(0.,0.0144940074685337,
0.0294347316143416,0.0450526777923366,0.0615203980019569),.UNSPECIFIED.);
#208=B_SPLINE_CURVE_WITH_KNOTS('',3,(#765,#766,#767,#768,#769,#770,#771,
#772,#773,#774),.UNSPECIFIED.,.F.,.F.,(4,2,2,2,4),(0.186840381746433,0.203308101956054,
0.218926048134049,0.233866772279857,0.24836077974839),.UNSPECIFIED.);
#209=B_SPLINE_CURVE_WITH_KNOTS('',3,(#806,#807,#808,#809,#810,#811,#812,
#813,#814,#815),.UNSPECIFIED.,.F.,.F.,(4,2,2,2,4),(0.,0.0144940074685337,
0.0294347316143416,0.0450526777923366,0.0615203980019569),.UNSPECIFIED.);
#210=B_SPLINE_CURVE_WITH_KNOTS('',3,(#817,#818,#819,#820,#821,#822,#823,
#824,#825,#826),.UNSPECIFIED.,.F.,.F.,(4,2,2,2,4),(0.186840381746434,0.203308101956054,
0.218926048134049,0.233866772279857,0.248360779748391),.UNSPECIFIED.);
#211=B_SPLINE_CURVE_WITH_KNOTS('',3,(#836,#837,#838,#839,#840,#841,#842,
#843,#844,#845),.UNSPECIFIED.,.F.,.F.,(4,2,2,2,4),(0.,0.0144940074685337,
0.0294347316143416,0.0450526777923366,0.0615203980019569),.UNSPECIFIED.);
#212=B_SPLINE_CURVE_WITH_KNOTS('',3,(#847,#848,#849,#850,#851,#852,#853,
#854,#855,#856),.UNSPECIFIED.,.F.,.F.,(4,2,2,2,4),(0.186840381746434,0.203308101956054,
0.218926048134049,0.233866772279857,0.24836077974839),.UNSPECIFIED.);
#213=B_SPLINE_CURVE_WITH_KNOTS('',3,(#870,#871,#872,#873,#874,#875,#876,
#877,#878,#879),.UNSPECIFIED.,.F.,.F.,(4,2,2,2,4),(0.,0.0144940074685337,
0.0294347316143416,0.0450526777923366,0.0615203980019569),.UNSPECIFIED.);
#214=B_SPLINE_CURVE_WITH_KNOTS('',3,(#881,#882,#883,#884,#885,#886,#887,
#888,#889,#890),.UNSPECIFIED.,.F.,.F.,(4,2,2,2,4),(0.186840381746433,0.203308101956054,
0.218926048134049,0.233866772279857,0.24836077974839),.UNSPECIFIED.);
#215=VERTEX_POINT('',#750);
#216=VERTEX_POINT('',#751);
#217=VERTEX_POINT('',#762);
#218=VERTEX_POINT('',#764);
#219=VERTEX_POINT('',#777);
#220=VERTEX_POINT('',#779);
#221=VERTEX_POINT('',#781);
#222=VERTEX_POINT('',#785);
#223=VERTEX_POINT('',#787);
#224=VERTEX_POINT('',#789);
#225=VERTEX_POINT('',#791);
#226=VERTEX_POINT('',#793);
#227=VERTEX_POINT('',#795);
#228=VERTEX_POINT('',#797);
#229=VERTEX_POINT('',#799);
#230=VERTEX_POINT('',#801);
#231=VERTEX_POINT('',#805);
#232=VERTEX_POINT('',#816);
#233=VERTEX_POINT('',#829);
#234=VERTEX_POINT('',#831);
#235=VERTEX_POINT('',#835);
#236=VERTEX_POINT('',#846);
#237=VERTEX_POINT('',#859);
#238=VERTEX_POINT('',#861);
#239=VERTEX_POINT('',#865);
#240=VERTEX_POINT('',#869);
#241=VERTEX_POINT('',#880);
#242=VERTEX_POINT('',#893);
#243=VERTEX_POINT('',#897);
#244=VERTEX_POINT('',#899);
#245=VERTEX_POINT('',#903);
#246=VERTEX_POINT('',#905);
#247=VERTEX_POINT('',#908);
#248=VERTEX_POINT('',#911);
#249=VERTEX_POINT('',#915);
#250=VERTEX_POINT('',#916);
#251=VERTEX_POINT('',#921);
#252=VERTEX_POINT('',#923);
#253=VERTEX_POINT('',#925);
#254=VERTEX_POINT('',#929);
#255=VERTEX_POINT('',#930);
#256=VERTEX_POINT('',#935);
#257=VERTEX_POINT('',#938);
#258=VERTEX_POINT('',#942);
#259=VERTEX_POINT('',#956);
#260=VERTEX_POINT('',#958);
#261=VERTEX_POINT('',#962);
#262=VERTEX_POINT('',#965);
#263=EDGE_CURVE('',#215,#216,#207,.T.);
#264=EDGE_CURVE('',#216,#217,#178,.T.);
#265=EDGE_CURVE('',#217,#218,#208,.T.);
#266=EDGE_CURVE('',#218,#215,#179,.T.);
#267=EDGE_CURVE('',#219,#217,#32,.T.);
#268=EDGE_CURVE('',#220,#219,#33,.T.);
#269=EDGE_CURVE('',#221,#220,#34,.T.);
#270=EDGE_CURVE('',#221,#218,#35,.T.);
#271=EDGE_CURVE('',#216,#222,#36,.T.);
#272=EDGE_CURVE('',#222,#223,#37,.T.);
#273=EDGE_CURVE('',#224,#223,#180,.T.);
#274=EDGE_CURVE('',#224,#225,#38,.T.);
#275=EDGE_CURVE('',#225,#226,#39,.T.);
#276=EDGE_CURVE('',#227,#226,#181,.T.);
#277=EDGE_CURVE('',#227,#228,#40,.T.);
#278=EDGE_CURVE('',#228,#229,#41,.T.);
#279=EDGE_CURVE('',#230,#229,#182,.T.);
#280=EDGE_CURVE('',#230,#219,#42,.T.);
#281=EDGE_CURVE('',#231,#224,#209,.T.);
#282=EDGE_CURVE('',#223,#232,#210,.T.);
#283=EDGE_CURVE('',#232,#231,#183,.T.);
#284=EDGE_CURVE('',#233,#222,#43,.T.);
#285=EDGE_CURVE('',#234,#233,#44,.T.);
#286=EDGE_CURVE('',#234,#232,#45,.T.);
#287=EDGE_CURVE('',#235,#227,#211,.T.);
#288=EDGE_CURVE('',#226,#236,#212,.T.);
#289=EDGE_CURVE('',#236,#235,#184,.T.);
#290=EDGE_CURVE('',#237,#235,#46,.T.);
#291=EDGE_CURVE('',#238,#237,#47,.T.);
#292=EDGE_CURVE('',#238,#228,#48,.T.);
#293=EDGE_CURVE('',#239,#236,#49,.T.);
#294=EDGE_CURVE('',#237,#239,#185,.T.);
#295=EDGE_CURVE('',#240,#230,#213,.T.);
#296=EDGE_CURVE('',#229,#241,#214,.T.);
#297=EDGE_CURVE('',#241,#240,#186,.T.);
#298=EDGE_CURVE('',#242,#240,#50,.T.);
#299=EDGE_CURVE('',#220,#242,#51,.T.);
#300=EDGE_CURVE('',#243,#243,#187,.T.);
#301=EDGE_CURVE('',#243,#244,#188,.T.);
#302=EDGE_CURVE('',#244,#244,#189,.T.);
#303=EDGE_CURVE('',#239,#245,#52,.T.);
#304=EDGE_CURVE('',#245,#246,#53,.T.);
#305=EDGE_CURVE('',#246,#234,#190,.T.);
#306=EDGE_CURVE('',#233,#247,#54,.T.);
#307=EDGE_CURVE('',#247,#221,#191,.T.);
#308=EDGE_CURVE('',#242,#248,#192,.T.);
#309=EDGE_CURVE('',#248,#238,#55,.T.);
#310=EDGE_CURVE('',#249,#250,#15,.T.);
#311=EDGE_CURVE('',#250,#249,#16,.T.);
#312=EDGE_CURVE('',#250,#243,#56,.T.);
#313=EDGE_CURVE('',#251,#251,#193,.T.);
#314=EDGE_CURVE('',#251,#252,#194,.T.);
#315=EDGE_CURVE('',#252,#253,#195,.T.);
#316=EDGE_CURVE('',#253,#252,#196,.T.);
#317=EDGE_CURVE('',#254,#255,#197,.T.);
#318=EDGE_CURVE('',#255,#254,#198,.T.);
#319=EDGE_CURVE('',#255,#253,#57,.T.);
#320=EDGE_CURVE('',#256,#256,#199,.T.);
#321=EDGE_CURVE('',#257,#257,#200,.T.);
#322=EDGE_CURVE('',#257,#254,#201,.T.);
#323=EDGE_CURVE('',#258,#258,#202,.T.);
#324=EDGE_CURVE('',#245,#225,#58,.T.);
#325=EDGE_CURVE('',#246,#231,#59,.T.);
#326=EDGE_CURVE('',#247,#215,#60,.T.);
#327=EDGE_CURVE('',#248,#241,#61,.T.);
#328=EDGE_CURVE('',#259,#259,#203,.T.);
#329=EDGE_CURVE('',#259,#260,#62,.T.);
#330=EDGE_CURVE('',#260,#260,#204,.T.);
#331=EDGE_CURVE('',#261,#261,#205,.T.);
#332=EDGE_CURVE('',#262,#262,#206,.T.);
#333=EDGE_CURVE('',#262,#258,#63,.T.);
#334=EDGE_CURVE('',#256,#261,#64,.T.);
#335=ORIENTED_EDGE('',*,*,#263,.T.);
#336=ORIENTED_EDGE('',*,*,#264,.T.);
#337=ORIENTED_EDGE('',*,*,#265,.T.);
#338=ORIENTED_EDGE('',*,*,#266,.T.);
#339=ORIENTED_EDGE('',*,*,#265,.F.);
#340=ORIENTED_EDGE('',*,*,#267,.F.);
#341=ORIENTED_EDGE('',*,*,#268,.F.);
#342=ORIENTED_EDGE('',*,*,#269,.F.);
#343=ORIENTED_EDGE('',*,*,#270,.T.);
#344=ORIENTED_EDGE('',*,*,#264,.F.);
#345=ORIENTED_EDGE('',*,*,#271,.T.);
#346=ORIENTED_EDGE('',*,*,#272,.T.);
#347=ORIENTED_EDGE('',*,*,#273,.F.);
#348=ORIENTED_EDGE('',*,*,#274,.T.);
#349=ORIENTED_EDGE('',*,*,#275,.T.);
#350=ORIENTED_EDGE('',*,*,#276,.F.);
#351=ORIENTED_EDGE('',*,*,#277,.T.);
#352=ORIENTED_EDGE('',*,*,#278,.T.);
#353=ORIENTED_EDGE('',*,*,#279,.F.);
#354=ORIENTED_EDGE('',*,*,#280,.T.);
#355=ORIENTED_EDGE('',*,*,#267,.T.);
#356=ORIENTED_EDGE('',*,*,#281,.T.);
#357=ORIENTED_EDGE('',*,*,#273,.T.);
#358=ORIENTED_EDGE('',*,*,#282,.T.);
#359=ORIENTED_EDGE('',*,*,#283,.T.);
#360=ORIENTED_EDGE('',*,*,#282,.F.);
#361=ORIENTED_EDGE('',*,*,#272,.F.);
#362=ORIENTED_EDGE('',*,*,#284,.F.);
#363=ORIENTED_EDGE('',*,*,#285,.F.);
#364=ORIENTED_EDGE('',*,*,#286,.T.);
#365=ORIENTED_EDGE('',*,*,#287,.T.);
#366=ORIENTED_EDGE('',*,*,#276,.T.);
#367=ORIENTED_EDGE('',*,*,#288,.T.);
#368=ORIENTED_EDGE('',*,*,#289,.T.);
#369=ORIENTED_EDGE('',*,*,#287,.F.);
#370=ORIENTED_EDGE('',*,*,#290,.F.);
#371=ORIENTED_EDGE('',*,*,#291,.F.);
#372=ORIENTED_EDGE('',*,*,#292,.T.);
#373=ORIENTED_EDGE('',*,*,#277,.F.);
#374=ORIENTED_EDGE('',*,*,#289,.F.);
#375=ORIENTED_EDGE('',*,*,#293,.F.);
#376=ORIENTED_EDGE('',*,*,#294,.F.);
#377=ORIENTED_EDGE('',*,*,#290,.T.);
#378=ORIENTED_EDGE('',*,*,#295,.T.);
#379=ORIENTED_EDGE('',*,*,#279,.T.);
#380=ORIENTED_EDGE('',*,*,#296,.T.);
#381=ORIENTED_EDGE('',*,*,#297,.T.);
#382=ORIENTED_EDGE('',*,*,#295,.F.);
#383=ORIENTED_EDGE('',*,*,#298,.F.);
#384=ORIENTED_EDGE('',*,*,#299,.F.);
#385=ORIENTED_EDGE('',*,*,#268,.T.);
#386=ORIENTED_EDGE('',*,*,#280,.F.);
#387=ORIENTED_EDGE('',*,*,#300,.T.);
#388=ORIENTED_EDGE('',*,*,#301,.T.);
#389=ORIENTED_EDGE('',*,*,#302,.T.);
#390=ORIENTED_EDGE('',*,*,#301,.F.);
#391=ORIENTED_EDGE('',*,*,#302,.F.);
#392=ORIENTED_EDGE('',*,*,#294,.T.);
#393=ORIENTED_EDGE('',*,*,#303,.T.);
#394=ORIENTED_EDGE('',*,*,#304,.T.);
#395=ORIENTED_EDGE('',*,*,#305,.T.);
#396=ORIENTED_EDGE('',*,*,#285,.T.);
#397=ORIENTED_EDGE('',*,*,#306,.T.);
#398=ORIENTED_EDGE('',*,*,#307,.T.);
#399=ORIENTED_EDGE('',*,*,#269,.T.);
#400=ORIENTED_EDGE('',*,*,#299,.T.);
#401=ORIENTED_EDGE('',*,*,#308,.T.);
#402=ORIENTED_EDGE('',*,*,#309,.T.);
#403=ORIENTED_EDGE('',*,*,#291,.T.);
#404=ORIENTED_EDGE('',*,*,#310,.F.);
#405=ORIENTED_EDGE('',*,*,#311,.F.);
#406=ORIENTED_EDGE('',*,*,#312,.T.);
#407=ORIENTED_EDGE('',*,*,#300,.F.);
#408=ORIENTED_EDGE('',*,*,#312,.F.);
#409=ORIENTED_EDGE('',*,*,#313,.T.);
#410=ORIENTED_EDGE('',*,*,#314,.T.);
#411=ORIENTED_EDGE('',*,*,#315,.T.);
#412=ORIENTED_EDGE('',*,*,#316,.T.);
#413=ORIENTED_EDGE('',*,*,#314,.F.);
#414=ORIENTED_EDGE('',*,*,#317,.F.);
#415=ORIENTED_EDGE('',*,*,#318,.F.);
#416=ORIENTED_EDGE('',*,*,#319,.T.);
#417=ORIENTED_EDGE('',*,*,#315,.F.);
#418=ORIENTED_EDGE('',*,*,#316,.F.);
#419=ORIENTED_EDGE('',*,*,#319,.F.);
#420=ORIENTED_EDGE('',*,*,#311,.T.);
#421=ORIENTED_EDGE('',*,*,#310,.T.);
#422=ORIENTED_EDGE('',*,*,#313,.F.);
#423=ORIENTED_EDGE('',*,*,#320,.T.);
#424=ORIENTED_EDGE('',*,*,#321,.T.);
#425=ORIENTED_EDGE('',*,*,#322,.T.);
#426=ORIENTED_EDGE('',*,*,#317,.T.);
#427=ORIENTED_EDGE('',*,*,#318,.T.);
#428=ORIENTED_EDGE('',*,*,#322,.F.);
#429=ORIENTED_EDGE('',*,*,#321,.F.);
#430=ORIENTED_EDGE('',*,*,#323,.T.);
#431=ORIENTED_EDGE('',*,*,#288,.F.);
#432=ORIENTED_EDGE('',*,*,#275,.F.);
#433=ORIENTED_EDGE('',*,*,#324,.F.);
#434=ORIENTED_EDGE('',*,*,#303,.F.);
#435=ORIENTED_EDGE('',*,*,#293,.T.);
#436=ORIENTED_EDGE('',*,*,#281,.F.);
#437=ORIENTED_EDGE('',*,*,#325,.F.);
#438=ORIENTED_EDGE('',*,*,#304,.F.);
#439=ORIENTED_EDGE('',*,*,#324,.T.);
#440=ORIENTED_EDGE('',*,*,#274,.F.);
#441=ORIENTED_EDGE('',*,*,#283,.F.);
#442=ORIENTED_EDGE('',*,*,#286,.F.);
#443=ORIENTED_EDGE('',*,*,#305,.F.);
#444=ORIENTED_EDGE('',*,*,#325,.T.);
#445=ORIENTED_EDGE('',*,*,#263,.F.);
#446=ORIENTED_EDGE('',*,*,#326,.F.);
#447=ORIENTED_EDGE('',*,*,#306,.F.);
#448=ORIENTED_EDGE('',*,*,#284,.T.);
#449=ORIENTED_EDGE('',*,*,#271,.F.);
#450=ORIENTED_EDGE('',*,*,#266,.F.);
#451=ORIENTED_EDGE('',*,*,#270,.F.);
#452=ORIENTED_EDGE('',*,*,#307,.F.);
#453=ORIENTED_EDGE('',*,*,#326,.T.);
#454=ORIENTED_EDGE('',*,*,#297,.F.);
#455=ORIENTED_EDGE('',*,*,#327,.F.);
#456=ORIENTED_EDGE('',*,*,#308,.F.);
#457=ORIENTED_EDGE('',*,*,#298,.T.);
#458=ORIENTED_EDGE('',*,*,#296,.F.);
#459=ORIENTED_EDGE('',*,*,#278,.F.);
#460=ORIENTED_EDGE('',*,*,#292,.F.);
#461=ORIENTED_EDGE('',*,*,#309,.F.);
#462=ORIENTED_EDGE('',*,*,#327,.T.);
#463=ORIENTED_EDGE('',*,*,#328,.F.);
#464=ORIENTED_EDGE('',*,*,#329,.T.);
#465=ORIENTED_EDGE('',*,*,#330,.F.);
#466=ORIENTED_EDGE('',*,*,#329,.F.);
#467=ORIENTED_EDGE('',*,*,#331,.F.);
#468=ORIENTED_EDGE('',*,*,#328,.T.);
#469=ORIENTED_EDGE('',*,*,#332,.F.);
#470=ORIENTED_EDGE('',*,*,#330,.T.);
#471=ORIENTED_EDGE('',*,*,#332,.T.);
#472=ORIENTED_EDGE('',*,*,#333,.T.);
#473=ORIENTED_EDGE('',*,*,#323,.F.);
#474=ORIENTED_EDGE('',*,*,#333,.F.);
#475=ORIENTED_EDGE('',*,*,#320,.F.);
#476=ORIENTED_EDGE('',*,*,#334,.T.);
#477=ORIENTED_EDGE('',*,*,#331,.T.);
#478=ORIENTED_EDGE('',*,*,#334,.F.);
#479=TOROIDAL_SURFACE('',#530,2.,0.4);
#480=TOROIDAL_SURFACE('',#538,2.,0.4);
#481=TOROIDAL_SURFACE('',#541,2.,0.4);
#482=TOROIDAL_SURFACE('',#546,2.,0.4);
#483=TOROIDAL_SURFACE('',#549,3.5,0.1);
#484=TOROIDAL_SURFACE('',#560,3.5,0.1);
#485=TOROIDAL_SURFACE('',#570,3.5,0.1);
#486=ADVANCED_FACE('',(#112),#479,.T.);
#487=ADVANCED_FACE('',(#113),#98,.T.);
#488=ADVANCED_FACE('',(#114),#99,.T.);
#489=ADVANCED_FACE('',(#115),#480,.T.);
#490=ADVANCED_FACE('',(#116),#100,.T.);
#491=ADVANCED_FACE('',(#117),#481,.T.);
#492=ADVANCED_FACE('',(#118),#101,.T.);
#493=ADVANCED_FACE('',(#119),#23,.T.);
#494=ADVANCED_FACE('',(#120),#482,.T.);
#495=ADVANCED_FACE('',(#121),#102,.T.);
#496=ADVANCED_FACE('',(#122),#483,.T.);
#497=ADVANCED_FACE('',(#123,#17),#103,.T.);
#498=ADVANCED_FACE('',(#124),#24,.T.);
#499=ADVANCED_FACE('',(#125),#484,.T.);
#500=ADVANCED_FACE('',(#126,#18),#25,.T.);
#501=ADVANCED_FACE('',(#127,#19),#104,.F.);
#502=ADVANCED_FACE('',(#128),#485,.T.);
#503=ADVANCED_FACE('',(#129,#20),#105,.T.);
#504=ADVANCED_FACE('',(#130),#106,.T.);
#505=ADVANCED_FACE('',(#131),#107,.T.);
#506=ADVANCED_FACE('',(#132),#26,.T.);
#507=ADVANCED_FACE('',(#133),#108,.T.);
#508=ADVANCED_FACE('',(#134),#27,.T.);
#509=ADVANCED_FACE('',(#135),#28,.T.);
#510=ADVANCED_FACE('',(#136),#109,.T.);
#511=ADVANCED_FACE('',(#137),#29,.F.);
#512=ADVANCED_FACE('',(#138,#21),#110,.F.);
#513=ADVANCED_FACE('',(#139,#22),#111,.T.);
#514=ADVANCED_FACE('',(#140),#30,.F.);
#515=ADVANCED_FACE('',(#141),#31,.F.);
#516=CLOSED_SHELL('',(#486,#487,#488,#489,#490,#491,#492,#493,#494,#495,
#496,#497,#498,#499,#500,#501,#502,#503,#504,#505,#506,#507,#508,#509,#510,
#511,#512,#513,#514,#515));
#517=DERIVED_UNIT_ELEMENT(#519,1.);
#518=DERIVED_UNIT_ELEMENT(#976,-3.);
#519=(
MASS_UNIT()
NAMED_UNIT(*)
SI_UNIT(.KILO.,.GRAM.)
);
#520=DERIVED_UNIT((#517,#518));
#521=MEASURE_REPRESENTATION_ITEM('density measure',
POSITIVE_RATIO_MEASURE(1060.),#520);
#522=PROPERTY_DEFINITION_REPRESENTATION(#527,#524);
#523=PROPERTY_DEFINITION_REPRESENTATION(#528,#525);
#524=REPRESENTATION('material name',(#526),#973);
#525=REPRESENTATION('density',(#521),#973);
#526=DESCRIPTIVE_REPRESENTATION_ITEM('ABS Plastic','ABS Plastic');
#527=PROPERTY_DEFINITION('material property','material name',#983);
#528=PROPERTY_DEFINITION('material property','density of part',#983);
#529=AXIS2_PLACEMENT_3D('',#748,#591,#592);
#530=AXIS2_PLACEMENT_3D('',#749,#593,#594);
#531=AXIS2_PLACEMENT_3D('',#763,#595,#596);
#532=AXIS2_PLACEMENT_3D('',#775,#597,#598);
#533=AXIS2_PLACEMENT_3D('',#776,#599,#600);
#534=AXIS2_PLACEMENT_3D('',#784,#605,#606);
#535=AXIS2_PLACEMENT_3D('',#790,#609,#610);
#536=AXIS2_PLACEMENT_3D('',#796,#613,#614);
#537=AXIS2_PLACEMENT_3D('',#802,#617,#618);
#538=AXIS2_PLACEMENT_3D('',#804,#620,#621);
#539=AXIS2_PLACEMENT_3D('',#827,#622,#623);
#540=AXIS2_PLACEMENT_3D('',#828,#624,#625);
#541=AXIS2_PLACEMENT_3D('',#834,#629,#630);
#542=AXIS2_PLACEMENT_3D('',#857,#631,#632);
#543=AXIS2_PLACEMENT_3D('',#858,#633,#634);
#544=AXIS2_PLACEMENT_3D('',#864,#638,#639);
#545=AXIS2_PLACEMENT_3D('',#867,#641,#642);
#546=AXIS2_PLACEMENT_3D('',#868,#643,#644);
#547=AXIS2_PLACEMENT_3D('',#891,#645,#646);
#548=AXIS2_PLACEMENT_3D('',#892,#647,#648);
#549=AXIS2_PLACEMENT_3D('',#896,#651,#652);
#550=AXIS2_PLACEMENT_3D('',#898,#653,#654);
#551=AXIS2_PLACEMENT_3D('',#900,#655,#656);
#552=AXIS2_PLACEMENT_3D('',#901,#657,#658);
#553=AXIS2_PLACEMENT_3D('',#902,#659,#660);
#554=AXIS2_PLACEMENT_3D('',#907,#663,#664);
#555=AXIS2_PLACEMENT_3D('',#910,#666,#667);
#556=AXIS2_PLACEMENT_3D('',#912,#668,#669);
#557=AXIS2_PLACEMENT_3D('',#914,#671,#672);
#558=AXIS2_PLACEMENT_3D('',#917,#673,#674);
#559=AXIS2_PLACEMENT_3D('',#918,#675,#676);
#560=AXIS2_PLACEMENT_3D('',#920,#678,#679);
#561=AXIS2_PLACEMENT_3D('',#922,#680,#681);
#562=AXIS2_PLACEMENT_3D('',#924,#682,#683);
#563=AXIS2_PLACEMENT_3D('',#926,#684,#685);
#564=AXIS2_PLACEMENT_3D('',#927,#686,#687);
#565=AXIS2_PLACEMENT_3D('',#928,#688,#689);
#566=AXIS2_PLACEMENT_3D('',#931,#690,#691);
#567=AXIS2_PLACEMENT_3D('',#932,#692,#693);
#568=AXIS2_PLACEMENT_3D('',#934,#695,#696);
#569=AXIS2_PLACEMENT_3D('',#936,#697,#698);
#570=AXIS2_PLACEMENT_3D('',#937,#699,#700);
#571=AXIS2_PLACEMENT_3D('',#939,#701,#702);
#572=AXIS2_PLACEMENT_3D('',#940,#703,#704);
#573=AXIS2_PLACEMENT_3D('',#941,#705,#706);
#574=AXIS2_PLACEMENT_3D('',#943,#707,#708);
#575=AXIS2_PLACEMENT_3D('',#944,#709,#710);
#576=AXIS2_PLACEMENT_3D('',#946,#712,#713);
#577=AXIS2_PLACEMENT_3D('',#948,#715,#716);
#578=AXIS2_PLACEMENT_3D('',#949,#717,#718);
#579=AXIS2_PLACEMENT_3D('',#951,#720,#721);
#580=AXIS2_PLACEMENT_3D('',#952,#722,#723);
#581=AXIS2_PLACEMENT_3D('',#954,#725,#726);
#582=AXIS2_PLACEMENT_3D('',#955,#727,#728);
#583=AXIS2_PLACEMENT_3D('',#957,#729,#730);
#584=AXIS2_PLACEMENT_3D('',#960,#732,#733);
#585=AXIS2_PLACEMENT_3D('',#961,#734,#735);
#586=AXIS2_PLACEMENT_3D('',#963,#736,#737);
#587=AXIS2_PLACEMENT_3D('',#964,#738,#739);
#588=AXIS2_PLACEMENT_3D('',#966,#740,#741);
#589=AXIS2_PLACEMENT_3D('',#967,#742,#743);
#590=AXIS2_PLACEMENT_3D('',#969,#745,#746);
#591=DIRECTION('axis',(0.,0.,1.));
#592=DIRECTION('refdir',(1.,0.,0.));
#593=DIRECTION('center_axis',(1.,5.55111512312578E-17,-1.22464679914735E-16));
#594=DIRECTION('ref_axis',(0.,0.,-1.));
#595=DIRECTION('center_axis',(-1.,-5.55111512312578E-17,1.22464679914735E-16));
#596=DIRECTION('ref_axis',(5.55111512312578E-17,-1.,3.08077916929379E-17));
#597=DIRECTION('center_axis',(1.,5.55111512312578E-17,-1.22464679914735E-16));
#598=DIRECTION('ref_axis',(5.55111512312578E-17,-1.,3.08077916929379E-17));
#599=DIRECTION('center_axis',(1.21430643318376E-16,-2.84625531829869E-16,
1.));
#600=DIRECTION('ref_axis',(-3.48565746511061E-32,-1.,-2.84625531829869E-16));
#601=DIRECTION('',(-3.48565746511061E-32,-1.,-2.84625531829869E-16));
#602=DIRECTION('',(1.,3.58364292329161E-47,-1.21430643318376E-16));
#603=DIRECTION('',(3.48565746511061E-32,1.,2.84625531829869E-16));
#604=DIRECTION('',(1.,3.58364292329161E-47,-1.21430643318376E-16));
#605=DIRECTION('center_axis',(1.,5.55111512312578E-17,-1.22464679914735E-16));
#606=DIRECTION('ref_axis',(-1.22464679914735E-16,2.46519032881566E-32,-1.));
#607=DIRECTION('',(-9.29508657362829E-32,1.,-7.59001418212984E-16));
#608=DIRECTION('',(-1.22464679914735E-16,4.74375886383115E-16,-1.));
#609=DIRECTION('center_axis',(-1.,-5.55111512312578E-17,1.22464679914735E-16));
#610=DIRECTION('ref_axis',(-1.22464679914735E-16,-7.03141248929264E-16,
-1.));
#611=DIRECTION('',(1.22464679914735E-16,6.6412624093636E-16,1.));
#612=DIRECTION('',(-3.28429327576129E-47,1.,2.46519032881566E-32));
#613=DIRECTION('center_axis',(-1.,-5.55111512312578E-17,1.22464679914735E-16));
#614=DIRECTION('ref_axis',(-5.55111512312578E-17,1.,-8.48404400388493E-17));
#615=DIRECTION('',(4.64754328681415E-32,-1.,3.79500709106492E-16));
#616=DIRECTION('',(1.22464679914735E-16,-5.69251063659738E-16,1.));
#617=DIRECTION('center_axis',(-1.,-5.55111512312578E-17,1.22464679914735E-16));
#618=DIRECTION('ref_axis',(1.22464679914735E-16,7.74843152602974E-17,1.));
#619=DIRECTION('',(-1.22464679914735E-16,-5.69251063659738E-16,-1.));
#620=DIRECTION('center_axis',(1.,5.55111512312578E-17,-1.22464679914735E-16));
#621=DIRECTION('ref_axis',(0.,0.,-1.));
#622=DIRECTION('center_axis',(1.,5.55111512312578E-17,-1.22464679914735E-16));
#623=DIRECTION('ref_axis',(-1.22464679914735E-16,-7.03141248929264E-16,
-1.));
#624=DIRECTION('center_axis',(-5.76037690582265E-32,-1.,-4.74375886383115E-16));
#625=DIRECTION('ref_axis',(-1.22464679914735E-16,4.74375886383115E-16,-1.));
#626=DIRECTION('',(1.,3.58364292329161E-47,-1.21430643318376E-16));
#627=DIRECTION('',(1.22464679914735E-16,-4.74375886383115E-16,1.));
#628=DIRECTION('',(1.,3.58364292329161E-47,-1.21430643318376E-16));
#629=DIRECTION('center_axis',(1.,5.55111512312578E-17,-1.22464679914735E-16));
#630=DIRECTION('ref_axis',(0.,0.,-1.));
#631=DIRECTION('center_axis',(1.,5.55111512312578E-17,-1.22464679914735E-16));
#632=DIRECTION('ref_axis',(-5.55111512312578E-17,1.,-8.48404400388492E-17));
#633=DIRECTION('center_axis',(1.21430643318376E-16,3.79500709106492E-16,
1.));
#634=DIRECTION('ref_axis',(4.64754328681415E-32,-1.,3.79500709106492E-16));
#635=DIRECTION('',(1.,3.58364292329161E-47,-1.21430643318376E-16));
#636=DIRECTION('',(-4.64754328681415E-32,1.,-3.79500709106492E-16));
#637=DIRECTION('',(1.,3.58364292329161E-47,-1.21430643318376E-16));
#638=DIRECTION('center_axis',(1.,3.58364292329161E-47,-1.21430643318376E-16));
#639=DIRECTION('ref_axis',(-4.04768811061252E-17,0.942809041582063,-0.333333333333333));
#640=DIRECTION('',(1.,3.58364292329161E-47,-1.21430643318376E-16));
#641=DIRECTION('center_axis',(-1.,-3.5861920203086E-47,1.22464679914735E-16));
#642=DIRECTION('ref_axis',(-4.08215599715782E-17,0.942809041582063,-0.333333333333333));
#643=DIRECTION('center_axis',(1.,5.55111512312578E-17,-1.22464679914735E-16));
#644=DIRECTION('ref_axis',(0.,0.,1.));
#645=DIRECTION('center_axis',(1.,5.55111512312578E-17,-1.22464679914735E-16));
#646=DIRECTION('ref_axis',(1.22464679914735E-16,7.74843152602973E-17,1.));
#647=DIRECTION('center_axis',(6.91245228698718E-32,-1.,5.69251063659738E-16));
#648=DIRECTION('ref_axis',(-1.22464679914735E-16,-5.69251063659738E-16,
-1.));
#649=DIRECTION('',(1.,3.58364292329161E-47,-1.21430643318376E-16));
#650=DIRECTION('',(1.22464679914735E-16,5.69251063659738E-16,1.));
#651=DIRECTION('center_axis',(-1.,-3.5861920203086E-47,1.22464679914735E-16));
#652=DIRECTION('ref_axis',(1.2335811384724E-16,0.,1.));
#653=DIRECTION('center_axis',(1.,3.5861920203086E-47,-1.22464679914735E-16));
#654=DIRECTION('ref_axis',(-1.22464679914735E-16,1.22464679914735E-16,-1.));
#655=DIRECTION('center_axis',(3.5861920203086E-47,-1.,-5.52982354399113E-63));
#656=DIRECTION('ref_axis',(-1.54197642309049E-16,0.,-1.));
#657=DIRECTION('center_axis',(-1.,-3.5861920203086E-47,1.22464679914735E-16));
#658=DIRECTION('ref_axis',(-1.22464679914735E-16,1.22464679914735E-16,-1.));
#659=DIRECTION('center_axis',(1.,3.5861920203086E-47,-1.22464679914735E-16));
#660=DIRECTION('ref_axis',(-1.22464679914735E-16,2.46519032881566E-32,-1.));
#661=DIRECTION('',(3.28429327576129E-47,-1.,-2.46519032881566E-32));
#662=DIRECTION('',(-1.22464679914735E-16,-6.6412624093636E-16,-1.));
#663=DIRECTION('center_axis',(-1.,-3.5861920203086E-47,1.22464679914735E-16));
#664=DIRECTION('ref_axis',(-1.15460807498065E-16,-0.333333333333333,-0.942809041582063));
#665=DIRECTION('',(9.29508657362829E-32,-1.,7.59001418212984E-16));
#666=DIRECTION('center_axis',(-1.,-3.5861920203086E-47,1.22464679914735E-16));
#667=DIRECTION('ref_axis',(4.08215599715783E-17,-0.942809041582063,0.333333333333334));
#668=DIRECTION('center_axis',(-1.,-3.5861920203086E-47,1.22464679914735E-16));
#669=DIRECTION('ref_axis',(1.15460807498065E-16,0.333333333333333,0.942809041582063));
#670=DIRECTION('',(-1.22464679914735E-16,5.69251063659738E-16,-1.));
#671=DIRECTION('center_axis',(-1.,-3.5861920203086E-47,1.22464679914735E-16));
#672=DIRECTION('ref_axis',(1.22464679914735E-16,-2.46519032881566E-32,1.));
#673=DIRECTION('center_axis',(-0.707106781186547,0.707106781186548,1.09034198519707E-16));
#674=DIRECTION('ref_axis',(0.707106781186548,0.707106781186547,-8.6595605623549E-17));
#675=DIRECTION('center_axis',(-0.707106781186547,-0.707106781186548,1.09034198519707E-16));
#676=DIRECTION('ref_axis',(-0.707106781186548,0.707106781186547,8.65956056235491E-17));
#677=DIRECTION('',(1.,3.5861920203086E-47,-1.22464679914735E-16));
#678=DIRECTION('center_axis',(3.28429327576129E-47,-1.,-2.46519032881566E-32));
#679=DIRECTION('ref_axis',(3.94430452610506E-31,0.,-1.));
#680=DIRECTION('center_axis',(-3.28429327576129E-47,1.,2.46519032881566E-32));
#681=DIRECTION('ref_axis',(1.,3.28429327576129E-47,3.94430452610506E-31));
#682=DIRECTION('center_axis',(-1.,-2.98239453121398E-47,-1.22464679914736E-16));
#683=DIRECTION('ref_axis',(-1.22464679914736E-16,0.,1.));
#684=DIRECTION('center_axis',(3.28429327576129E-47,-1.,-2.46519032881566E-32));
#685=DIRECTION('ref_axis',(1.,3.28429327576129E-47,3.94430452610506E-31));
#686=DIRECTION('center_axis',(3.28429327576129E-47,-1.,-2.46519032881566E-32));
#687=DIRECTION('ref_axis',(1.,3.28429327576129E-47,3.94430452610506E-31));
#688=DIRECTION('center_axis',(-3.28429327576129E-47,1.,2.46519032881566E-32));
#689=DIRECTION('ref_axis',(1.,3.28429327576129E-47,3.94430452610506E-31));
#690=DIRECTION('center_axis',(-3.28429327576129E-47,1.,2.46519032881566E-32));
#691=DIRECTION('ref_axis',(1.,3.28429327576129E-47,3.94430452610506E-31));
#692=DIRECTION('center_axis',(-3.28429327576129E-47,1.,2.46519032881566E-32));
#693=DIRECTION('ref_axis',(1.,3.28429327576129E-47,3.94430452610506E-31));
#694=DIRECTION('',(3.28429327576129E-47,-1.,-2.46519032881566E-32));
#695=DIRECTION('center_axis',(-3.28429327576129E-47,1.,2.46519032881566E-32));
#696=DIRECTION('ref_axis',(-3.94430452610506E-31,-2.46519032881566E-32,
1.));
#697=DIRECTION('center_axis',(-3.28429327576129E-47,1.,2.46519032881566E-32));
#698=DIRECTION('ref_axis',(1.,3.28429327576129E-47,3.94430452610506E-31));
#699=DIRECTION('center_axis',(-3.28429327576129E-47,1.,2.46519032881566E-32));
#700=DIRECTION('ref_axis',(-3.94430452610506E-31,0.,1.));
#701=DIRECTION('center_axis',(3.28429327576129E-47,-1.,-2.46519032881566E-32));
#702=DIRECTION('ref_axis',(1.,3.28429327576129E-47,3.94430452610506E-31));
#703=DIRECTION('center_axis',(-1.,-3.5861920203086E-47,1.22464679914735E-16));
#704=DIRECTION('ref_axis',(-1.22464679914735E-16,0.,-1.));
#705=DIRECTION('center_axis',(-3.28429327576129E-47,1.,2.46519032881566E-32));
#706=DIRECTION('ref_axis',(-3.94430452610506E-31,-2.46519032881566E-32,
1.));
#707=DIRECTION('center_axis',(3.28429327576129E-47,-1.,-2.46519032881566E-32));
#708=DIRECTION('ref_axis',(1.,3.28429327576129E-47,3.94430452610506E-31));
#709=DIRECTION('center_axis',(-1.21430643318376E-16,2.46519032881566E-32,
-1.));
#710=DIRECTION('ref_axis',(-3.28429327576129E-47,1.,2.46519032881566E-32));
#711=DIRECTION('',(1.,3.58364292329161E-47,-1.21430643318376E-16));
#712=DIRECTION('center_axis',(-8.06452766815171E-32,1.,-6.6412624093636E-16));
#713=DIRECTION('ref_axis',(1.22464679914735E-16,6.6412624093636E-16,1.));
#714=DIRECTION('',(1.,3.58364292329161E-47,-1.21430643318376E-16));
#715=DIRECTION('center_axis',(1.,3.58364292329161E-47,-1.21430643318376E-16));
#716=DIRECTION('ref_axis',(-1.14485908445691E-16,-0.333333333333333,-0.942809041582063));
#717=DIRECTION('center_axis',(-1.21430643318376E-16,-7.59001418212984E-16,
-1.));
#718=DIRECTION('ref_axis',(-9.29508657362829E-32,1.,-7.59001418212984E-16));
#719=DIRECTION('',(1.,3.58364292329161E-47,-1.21430643318376E-16));
#720=DIRECTION('center_axis',(1.,3.58364292329161E-47,-1.21430643318376E-16));
#721=DIRECTION('ref_axis',(4.04768811061253E-17,-0.942809041582063,0.333333333333334));
#722=DIRECTION('center_axis',(1.,3.58364292329161E-47,-1.21430643318376E-16));
#723=DIRECTION('ref_axis',(1.14485908445691E-16,0.333333333333333,0.942809041582063));
#724=DIRECTION('',(1.,3.58364292329161E-47,-1.21430643318376E-16));
#725=DIRECTION('center_axis',(6.91245228698717E-32,1.,5.69251063659738E-16));
#726=DIRECTION('ref_axis',(1.22464679914735E-16,-5.69251063659738E-16,1.));
#727=DIRECTION('center_axis',(-3.28429327576129E-47,1.,2.46519032881566E-32));
#728=DIRECTION('ref_axis',(1.,3.28429327576129E-47,3.94430452610506E-31));
#729=DIRECTION('center_axis',(-3.28429327576129E-47,1.,2.46519032881566E-32));
#730=DIRECTION('ref_axis',(1.,3.28429327576129E-47,3.94430452610506E-31));
#731=DIRECTION('',(-3.28429327576129E-47,1.,2.46519032881566E-32));
#732=DIRECTION('center_axis',(3.28429327576129E-47,-1.,-2.46519032881566E-32));
#733=DIRECTION('ref_axis',(1.,3.28429327576129E-47,3.94430452610506E-31));
#734=DIRECTION('center_axis',(-3.28429327576129E-47,1.,2.46519032881566E-32));
#735=DIRECTION('ref_axis',(-3.94430452610506E-31,-2.46519032881566E-32,
1.));
#736=DIRECTION('center_axis',(-3.28429327576129E-47,1.,2.46519032881566E-32));
#737=DIRECTION('ref_axis',(1.,3.28429327576129E-47,3.94430452610506E-31));
#738=DIRECTION('center_axis',(-3.28429327576129E-47,1.,2.46519032881566E-32));
#739=DIRECTION('ref_axis',(-3.94430452610506E-31,-2.46519032881566E-32,
1.));
#740=DIRECTION('center_axis',(3.28429327576129E-47,-1.,-2.46519032881566E-32));
#741=DIRECTION('ref_axis',(1.,3.28429327576129E-47,3.94430452610506E-31));
#742=DIRECTION('center_axis',(-3.28429327576129E-47,1.,2.46519032881566E-32));
#743=DIRECTION('ref_axis',(1.,3.28429327576129E-47,3.94430452610506E-31));
#744=DIRECTION('',(-3.28429327576129E-47,1.,2.46519032881566E-32));
#745=DIRECTION('center_axis',(-3.28429327576129E-47,1.,2.46519032881566E-32));
#746=DIRECTION('ref_axis',(1.,3.28429327576129E-47,3.94430452610506E-31));
#747=DIRECTION('',(-3.28429327576129E-47,1.,2.46519032881566E-32));
#748=CARTESIAN_POINT('',(0.,0.,0.));
#749=CARTESIAN_POINT('Origin',(11.6,-94.6306526084053,-6.16935510611936E-15));
#750=CARTESIAN_POINT('',(11.6,-96.8933943082022,-0.800000000000006));
#751=CARTESIAN_POINT('',(12.,-96.4636828863876,-0.800000000000006));
#752=CARTESIAN_POINT('Ctrl Pts',(11.6,-96.8933943082022,-0.800000000000006));
#753=CARTESIAN_POINT('Ctrl Pts',(11.6483133582284,-96.8933943082022,-0.800000000000006));
#754=CARTESIAN_POINT('Ctrl Pts',(11.7050845646335,-96.8816363252425,-0.800000000000006));
#755=CARTESIAN_POINT('Ctrl Pts',(11.7952840932166,-96.8430260964435,-0.800000000000006));
#756=CARTESIAN_POINT('Ctrl Pts',(11.8442817620307,-96.8088086701988,-0.800000000000006));
#757=CARTESIAN_POINT('Ctrl Pts',(11.9149594731645,-96.7354562609103,-0.800000000000006));
#758=CARTESIAN_POINT('Ctrl Pts',(11.9484465448503,-96.6827178506668,-0.800000000000006));
#759=CARTESIAN_POINT('Ctrl Pts',(11.9879791454894,-96.5833400305759,-0.800000000000006));
#760=CARTESIAN_POINT('Ctrl Pts',(12.,-96.5185752870863,-0.800000000000006));
#761=CARTESIAN_POINT('Ctrl Pts',(12.,-96.4636828863876,-0.800000000000006));
#762=CARTESIAN_POINT('',(12.,-96.4636828863876,0.799999999999994));
#763=CARTESIAN_POINT('Origin',(12.,-94.6306526084053,-6.21834097808526E-15));
#764=CARTESIAN_POINT('',(11.6,-96.8933943082022,0.799999999999993));
#765=CARTESIAN_POINT('Ctrl Pts',(12.,-96.4636828863876,0.799999999999994));
#766=CARTESIAN_POINT('Ctrl Pts',(12.,-96.5185752870863,0.799999999999994));
#767=CARTESIAN_POINT('Ctrl Pts',(11.9879791454894,-96.5833400305759,0.799999999999994));
#768=CARTESIAN_POINT('Ctrl Pts',(11.9484465448503,-96.6827178506668,0.799999999999994));
#769=CARTESIAN_POINT('Ctrl Pts',(11.9149594731645,-96.7354562609103,0.799999999999994));
#770=CARTESIAN_POINT('Ctrl Pts',(11.8442817620307,-96.8088086701988,0.799999999999994));
#771=CARTESIAN_POINT('Ctrl Pts',(11.7952840932166,-96.8430260964435,0.799999999999994));
#772=CARTESIAN_POINT('Ctrl Pts',(11.7050845646335,-96.8816363252425,0.799999999999994));
#773=CARTESIAN_POINT('Ctrl Pts',(11.6483133582284,-96.8933943082022,0.799999999999994));
#774=CARTESIAN_POINT('Ctrl Pts',(11.6,-96.8933943082022,0.799999999999994));
#775=CARTESIAN_POINT('Origin',(11.6,-94.6306526084053,-6.16935510611936E-15));
#776=CARTESIAN_POINT('Origin',(4.,-95.4306526084053,0.799999999999995));
#777=CARTESIAN_POINT('',(12.,-95.4306526084053,0.799999999999994));
#778=CARTESIAN_POINT('',(12.,-95.4306526084053,0.799999999999994));
#779=CARTESIAN_POINT('',(4.,-95.4306526084053,0.799999999999995));
#780=CARTESIAN_POINT('',(4.,-95.4306526084053,0.799999999999995));
#781=CARTESIAN_POINT('',(4.,-96.8933943082022,0.799999999999994));
#782=CARTESIAN_POINT('',(4.,-95.0306526084053,0.799999999999995));
#783=CARTESIAN_POINT('',(4.,-96.8933943082022,0.799999999999994));
#784=CARTESIAN_POINT('Origin',(12.,-94.6306526084053,-6.38990536103045E-15));
#785=CARTESIAN_POINT('',(12.,-95.4306526084053,-0.800000000000007));
#786=CARTESIAN_POINT('',(12.,-96.8933943082022,-0.800000000000006));
#787=CARTESIAN_POINT('',(12.,-95.4306526084053,-1.83303027798235));
#788=CARTESIAN_POINT('',(12.,-95.4306526084053,-0.800000000000007));
#789=CARTESIAN_POINT('',(12.,-93.8306526084053,-1.83303027798235));
#790=CARTESIAN_POINT('Origin',(12.,-94.6306526084053,-1.22233736727205E-15));
#791=CARTESIAN_POINT('',(12.,-93.8306526084053,-0.800000000000007));
#792=CARTESIAN_POINT('',(12.,-93.8306526084053,-2.26274169979695));
#793=CARTESIAN_POINT('',(12.,-92.7976223304229,-0.800000000000007));
#794=CARTESIAN_POINT('',(12.,-93.8306526084053,-0.800000000000007));
#795=CARTESIAN_POINT('',(12.,-92.7976223304229,0.799999999999994));
#796=CARTESIAN_POINT('Origin',(12.,-94.6306526084053,-6.07956310000711E-15));
#797=CARTESIAN_POINT('',(12.,-93.8306526084053,0.799999999999994));
#798=CARTESIAN_POINT('',(12.,-92.3679109086083,0.799999999999994));
#799=CARTESIAN_POINT('',(12.,-93.8306526084053,1.83303027798233));
#800=CARTESIAN_POINT('',(12.,-93.8306526084053,0.799999999999994));
#801=CARTESIAN_POINT('',(12.,-95.4306526084053,1.83303027798233));
#802=CARTESIAN_POINT('Origin',(12.,-94.6306526084053,-7.6061197588667E-15));
#803=CARTESIAN_POINT('',(12.,-95.4306526084053,2.26274169979694));
#804=CARTESIAN_POINT('Origin',(11.6,-94.6306526084053,-1.17335149530616E-15));
#805=CARTESIAN_POINT('',(11.6,-93.8306526084053,-2.26274169979695));
#806=CARTESIAN_POINT('Ctrl Pts',(11.6,-93.8306526084053,-2.26274169979695));
#807=CARTESIAN_POINT('Ctrl Pts',(11.6483133582284,-93.8306526084053,-2.26274169979695));
#808=CARTESIAN_POINT('Ctrl Pts',(11.7050845646335,-93.8306526084053,-2.25098371683724));
#809=CARTESIAN_POINT('Ctrl Pts',(11.7952840932166,-93.8306526084053,-2.21237348803819));
#810=CARTESIAN_POINT('Ctrl Pts',(11.8442817620307,-93.8306526084053,-2.17815606179352));
#811=CARTESIAN_POINT('Ctrl Pts',(11.9149594731645,-93.8306526084053,-2.10480365250498));
#812=CARTESIAN_POINT('Ctrl Pts',(11.9484465448503,-93.8306526084053,-2.05206524226154));
#813=CARTESIAN_POINT('Ctrl Pts',(11.9879791454894,-93.8306526084053,-1.95268742217066));
#814=CARTESIAN_POINT('Ctrl Pts',(12.,-93.8306526084053,-1.88792267868107));
#815=CARTESIAN_POINT('Ctrl Pts',(12.,-93.8306526084053,-1.83303027798234));
#816=CARTESIAN_POINT('',(11.6,-95.4306526084053,-2.26274169979695));
#817=CARTESIAN_POINT('Ctrl Pts',(12.,-95.4306526084053,-1.83303027798234));
#818=CARTESIAN_POINT('Ctrl Pts',(12.,-95.4306526084053,-1.88792267868107));
#819=CARTESIAN_POINT('Ctrl Pts',(11.9879791454894,-95.4306526084053,-1.95268742217066));
#820=CARTESIAN_POINT('Ctrl Pts',(11.9484465448503,-95.4306526084053,-2.05206524226154));
#821=CARTESIAN_POINT('Ctrl Pts',(11.9149594731645,-95.4306526084053,-2.10480365250498));
#822=CARTESIAN_POINT('Ctrl Pts',(11.8442817620307,-95.4306526084053,-2.17815606179352));
#823=CARTESIAN_POINT('Ctrl Pts',(11.7952840932166,-95.4306526084053,-2.21237348803819));
#824=CARTESIAN_POINT('Ctrl Pts',(11.7050845646335,-95.4306526084053,-2.25098371683724));
#825=CARTESIAN_POINT('Ctrl Pts',(11.6483133582284,-95.4306526084053,-2.26274169979695));
#826=CARTESIAN_POINT('Ctrl Pts',(11.6,-95.4306526084053,-2.26274169979695));
#827=CARTESIAN_POINT('Origin',(11.6,-94.6306526084053,-1.17335149530616E-15));
#828=CARTESIAN_POINT('Origin',(4.,-95.4306526084053,-0.800000000000006));
#829=CARTESIAN_POINT('',(4.,-95.4306526084053,-0.800000000000006));
#830=CARTESIAN_POINT('',(4.,-95.4306526084053,-0.800000000000006));
#831=CARTESIAN_POINT('',(4.,-95.4306526084053,-2.26274169979695));
#832=CARTESIAN_POINT('',(4.,-95.4306526084053,1.39999999999999));
#833=CARTESIAN_POINT('',(4.,-95.4306526084053,-2.26274169979695));
#834=CARTESIAN_POINT('Origin',(11.6,-94.6306526084053,-6.03057722804122E-15));
#835=CARTESIAN_POINT('',(11.6,-92.3679109086083,0.799999999999994));
#836=CARTESIAN_POINT('Ctrl Pts',(11.6,-92.3679109086083,0.799999999999994));
#837=CARTESIAN_POINT('Ctrl Pts',(11.6483133582284,-92.3679109086083,0.799999999999994));
#838=CARTESIAN_POINT('Ctrl Pts',(11.7050845646335,-92.379668891568,0.799999999999994));
#839=CARTESIAN_POINT('Ctrl Pts',(11.7952840932166,-92.4182791203671,0.799999999999994));
#840=CARTESIAN_POINT('Ctrl Pts',(11.8442817620307,-92.4524965466117,0.799999999999994));
#841=CARTESIAN_POINT('Ctrl Pts',(11.9149594731645,-92.5258489559003,0.799999999999994));
#842=CARTESIAN_POINT('Ctrl Pts',(11.9484465448503,-92.5785873661437,0.799999999999994));
#843=CARTESIAN_POINT('Ctrl Pts',(11.9879791454894,-92.6779651862346,0.799999999999994));
#844=CARTESIAN_POINT('Ctrl Pts',(12.,-92.7427299297242,0.799999999999994));
#845=CARTESIAN_POINT('Ctrl Pts',(12.,-92.7976223304229,0.799999999999994));
#846=CARTESIAN_POINT('',(11.6,-92.3679109086083,-0.800000000000007));
#847=CARTESIAN_POINT('Ctrl Pts',(12.,-92.7976223304229,-0.800000000000007));
#848=CARTESIAN_POINT('Ctrl Pts',(12.,-92.7427299297242,-0.800000000000007));
#849=CARTESIAN_POINT('Ctrl Pts',(11.9879791454894,-92.6779651862346,-0.800000000000007));
#850=CARTESIAN_POINT('Ctrl Pts',(11.9484465448503,-92.5785873661437,-0.800000000000007));
#851=CARTESIAN_POINT('Ctrl Pts',(11.9149594731645,-92.5258489559003,-0.800000000000007));
#852=CARTESIAN_POINT('Ctrl Pts',(11.8442817620307,-92.4524965466117,-0.800000000000007));
#853=CARTESIAN_POINT('Ctrl Pts',(11.7952840932166,-92.4182791203671,-0.800000000000007));
#854=CARTESIAN_POINT('Ctrl Pts',(11.7050845646335,-92.379668891568,-0.800000000000007));
#855=CARTESIAN_POINT('Ctrl Pts',(11.6483133582284,-92.3679109086083,-0.800000000000007));
#856=CARTESIAN_POINT('Ctrl Pts',(11.6,-92.3679109086083,-0.800000000000007));
#857=CARTESIAN_POINT('Origin',(11.6,-94.6306526084053,-6.03057722804122E-15));
#858=CARTESIAN_POINT('Origin',(4.,-92.3679109086083,0.799999999999995));
#859=CARTESIAN_POINT('',(4.,-92.3679109086083,0.799999999999995));
#860=CARTESIAN_POINT('',(4.,-92.3679109086083,0.799999999999995));
#861=CARTESIAN_POINT('',(4.,-93.8306526084053,0.799999999999995));
#862=CARTESIAN_POINT('',(4.,-93.4992817585068,0.799999999999995));
#863=CARTESIAN_POINT('',(4.,-93.8306526084053,0.799999999999995));
#864=CARTESIAN_POINT('Origin',(4.,-94.6306526084053,-5.10770433882156E-15));
#865=CARTESIAN_POINT('',(4.,-92.3679109086083,-0.800000000000006));
#866=CARTESIAN_POINT('',(4.,-92.3679109086083,-0.800000000000006));
#867=CARTESIAN_POINT('Origin',(4.,-94.6306526084053,-5.10770433882156E-15));
#868=CARTESIAN_POINT('Origin',(11.6,-94.6306526084053,-7.55713388690081E-15));
#869=CARTESIAN_POINT('',(11.6,-95.4306526084053,2.26274169979694));
#870=CARTESIAN_POINT('Ctrl Pts',(11.6,-95.4306526084053,2.26274169979694));
#871=CARTESIAN_POINT('Ctrl Pts',(11.6483133582284,-95.4306526084053,2.26274169979694));
#872=CARTESIAN_POINT('Ctrl Pts',(11.7050845646335,-95.4306526084053,2.25098371683723));
#873=CARTESIAN_POINT('Ctrl Pts',(11.7952840932166,-95.4306526084053,2.21237348803818));
#874=CARTESIAN_POINT('Ctrl Pts',(11.8442817620307,-95.4306526084053,2.17815606179351));
#875=CARTESIAN_POINT('Ctrl Pts',(11.9149594731645,-95.4306526084053,2.10480365250498));
#876=CARTESIAN_POINT('Ctrl Pts',(11.9484465448503,-95.4306526084053,2.05206524226153));
#877=CARTESIAN_POINT('Ctrl Pts',(11.9879791454894,-95.4306526084053,1.95268742217065));
#878=CARTESIAN_POINT('Ctrl Pts',(12.,-95.4306526084053,1.88792267868106));
#879=CARTESIAN_POINT('Ctrl Pts',(12.,-95.4306526084053,1.83303027798233));
#880=CARTESIAN_POINT('',(11.6,-93.8306526084053,2.26274169979694));
#881=CARTESIAN_POINT('Ctrl Pts',(12.,-93.8306526084053,1.83303027798233));
#882=CARTESIAN_POINT('Ctrl Pts',(12.,-93.8306526084053,1.88792267868106));
#883=CARTESIAN_POINT('Ctrl Pts',(11.9879791454894,-93.8306526084053,1.95268742217065));
#884=CARTESIAN_POINT('Ctrl Pts',(11.9484465448503,-93.8306526084053,2.05206524226153));
#885=CARTESIAN_POINT('Ctrl Pts',(11.9149594731645,-93.8306526084053,2.10480365250498));
#886=CARTESIAN_POINT('Ctrl Pts',(11.8442817620307,-93.8306526084053,2.17815606179351));
#887=CARTESIAN_POINT('Ctrl Pts',(11.7952840932166,-93.8306526084053,2.21237348803818));
#888=CARTESIAN_POINT('Ctrl Pts',(11.7050845646335,-93.8306526084053,2.25098371683723));
#889=CARTESIAN_POINT('Ctrl Pts',(11.6483133582284,-93.8306526084053,2.26274169979694));
#890=CARTESIAN_POINT('Ctrl Pts',(11.6,-93.8306526084053,2.26274169979694));
#891=CARTESIAN_POINT('Origin',(11.6,-94.6306526084053,-7.55713388690081E-15));
#892=CARTESIAN_POINT('Origin',(4.,-95.4306526084053,2.26274169979694));
#893=CARTESIAN_POINT('',(4.,-95.4306526084053,2.26274169979694));
#894=CARTESIAN_POINT('',(4.,-95.4306526084053,2.26274169979694));
#895=CARTESIAN_POINT('',(4.,-95.4306526084053,2.93137084989847));
#896=CARTESIAN_POINT('Origin',(3.9,-94.6306526084053,-5.51179150506452E-15));
#897=CARTESIAN_POINT('',(3.9,-94.6306526084053,-3.60000000000001));
#898=CARTESIAN_POINT('Origin',(3.9,-94.6306526084053,-5.51179150506452E-15));
#899=CARTESIAN_POINT('',(4.,-94.6306526084053,-3.50000000000001));
#900=CARTESIAN_POINT('Origin',(3.9,-94.6306526084053,-3.50000000000001));
#901=CARTESIAN_POINT('Origin',(4.,-94.6306526084053,-5.524037973056E-15));
#902=CARTESIAN_POINT('Origin',(4.,-94.6306526084053,3.6));
#903=CARTESIAN_POINT('',(4.,-93.8306526084053,-0.800000000000006));
#904=CARTESIAN_POINT('',(4.,-94.2306526084053,-0.800000000000006));
#905=CARTESIAN_POINT('',(4.,-93.8306526084053,-2.26274169979695));
#906=CARTESIAN_POINT('',(4.,-93.8306526084053,0.668629150101518));
#907=CARTESIAN_POINT('Origin',(4.,-94.6306526084053,-2.50478606086505E-16));
#908=CARTESIAN_POINT('',(4.,-96.8933943082022,-0.800000000000005));
#909=CARTESIAN_POINT('',(4.,-95.7620234583037,-0.800000000000006));
#910=CARTESIAN_POINT('Origin',(4.,-94.6306526084053,-5.24648221689971E-15));
#911=CARTESIAN_POINT('',(4.,-93.8306526084053,2.26274169979694));
#912=CARTESIAN_POINT('Origin',(4.,-94.6306526084053,-6.63426099768116E-15));
#913=CARTESIAN_POINT('',(4.,-93.8306526084053,2.2));
#914=CARTESIAN_POINT('Origin',(2.,-94.6306526084053,-5.27910861322653E-15));
#915=CARTESIAN_POINT('',(1.11022302462516E-15,-94.6306526084053,3.6));
#916=CARTESIAN_POINT('',(1.14238664619532E-16,-94.6306526084053,-3.60000000000001));
#917=CARTESIAN_POINT('Origin',(0.,-94.6306526084053,-5.03417925339706E-15));
#918=CARTESIAN_POINT('Origin',(0.,-94.6306526084053,-5.03417925339706E-15));
#919=CARTESIAN_POINT('',(2.,-94.6306526084053,-3.60000000000001));
#920=CARTESIAN_POINT('Origin',(1.2808743775469E-46,-98.5306526084053,-5.03417925339706E-15));
#921=CARTESIAN_POINT('',(-4.28626379701575E-16,-98.6306526084053,3.5));
#922=CARTESIAN_POINT('Origin',(1.31371731030452E-46,-98.6306526084053,-5.03417925339706E-15));
#923=CARTESIAN_POINT('',(-4.40872847693049E-16,-98.5306526084053,3.6));
#924=CARTESIAN_POINT('Origin',(-4.28626379701575E-16,-98.5306526084053,
3.5));
#925=CARTESIAN_POINT('',(-3.6,-98.5306526084053,-5.47505210109011E-15));
#926=CARTESIAN_POINT('Origin',(1.2808743775469E-46,-98.5306526084053,-5.03417925339706E-15));
#927=CARTESIAN_POINT('Origin',(1.2808743775469E-46,-98.5306526084053,-5.03417925339706E-15));
#928=CARTESIAN_POINT('Origin',(0.,-94.6306526084053,-5.03417925339706E-15));
#929=CARTESIAN_POINT('',(-4.40872847693046E-16,-90.7306526084053,-3.60000000000001));
#930=CARTESIAN_POINT('',(-3.6,-90.7306526084053,-4.59330640570401E-15));
#931=CARTESIAN_POINT('Origin',(-1.2808743775469E-46,-90.7306526084053,-5.03417925339706E-15));
#932=CARTESIAN_POINT('Origin',(-1.2808743775469E-46,-90.7306526084053,-5.03417925339706E-15));
#933=CARTESIAN_POINT('',(-3.6,-94.6306526084053,-4.59330640570401E-15));
#934=CARTESIAN_POINT('Origin',(2.93735474489503E-16,-98.6306526084053,-5.03417925339706E-15));
#935=CARTESIAN_POINT('',(-3.2,-98.6306526084053,-4.64229227766991E-15));
#936=CARTESIAN_POINT('Origin',(1.31371731030452E-46,-98.6306526084053,-5.03417925339706E-15));
#937=CARTESIAN_POINT('Origin',(-1.2808743775469E-46,-90.7306526084053,-5.03417925339706E-15));
#938=CARTESIAN_POINT('',(-4.28626379701572E-16,-90.6306526084053,-3.50000000000001));
#939=CARTESIAN_POINT('Origin',(-1.31371731030452E-46,-90.6306526084053,
-5.03417925339706E-15));
#940=CARTESIAN_POINT('Origin',(-4.28626379701572E-16,-90.7306526084053,
-3.50000000000001));
#941=CARTESIAN_POINT('Origin',(2.93735474489503E-16,-90.6306526084053,-5.03417925339706E-15));
#942=CARTESIAN_POINT('',(-3.2,-90.6306526084053,-5.42606622912421E-15));
#943=CARTESIAN_POINT('Origin',(-1.31371731030452E-46,-90.6306526084053,
-5.03417925339706E-15));
#944=CARTESIAN_POINT('Origin',(4.,-93.8306526084053,-0.800000000000006));
#945=CARTESIAN_POINT('',(4.,-93.8306526084053,-0.800000000000006));
#946=CARTESIAN_POINT('Origin',(4.,-93.8306526084053,-2.26274169979695));
#947=CARTESIAN_POINT('',(4.,-93.8306526084053,-2.26274169979695));
#948=CARTESIAN_POINT('Origin',(4.,-94.6306526084053,-2.50478606086505E-16));
#949=CARTESIAN_POINT('Origin',(4.,-96.8933943082022,-0.800000000000005));
#950=CARTESIAN_POINT('',(4.,-96.8933943082022,-0.800000000000005));
#951=CARTESIAN_POINT('Origin',(4.,-94.6306526084053,-5.24648221689971E-15));
#952=CARTESIAN_POINT('Origin',(4.,-94.6306526084053,-6.63426099768116E-15));
#953=CARTESIAN_POINT('',(4.,-93.8306526084053,2.26274169979694));
#954=CARTESIAN_POINT('Origin',(4.,-93.8306526084053,0.799999999999995));
#955=CARTESIAN_POINT('Origin',(0.,-94.6306526084053,-5.03417925339706E-15));
#956=CARTESIAN_POINT('',(-2.4,-97.8306526084053,-4.74026402160169E-15));
#957=CARTESIAN_POINT('Origin',(1.05097384824361E-46,-97.8306526084053,-5.03417925339706E-15));
#958=CARTESIAN_POINT('',(-2.4,-91.4306526084053,-4.74026402160169E-15));
#959=CARTESIAN_POINT('',(-2.4,-94.6306526084053,-4.74026402160169E-15));
#960=CARTESIAN_POINT('Origin',(-1.05097384824361E-46,-91.4306526084053,
-5.03417925339706E-15));
#961=CARTESIAN_POINT('Origin',(3.26572479772628E-17,-97.8306526084053,-5.03417925339706E-15));
#962=CARTESIAN_POINT('',(-3.2,-97.8306526084053,-4.64229227766991E-15));
#963=CARTESIAN_POINT('Origin',(1.05097384824361E-46,-97.8306526084053,-5.03417925339706E-15));
#964=CARTESIAN_POINT('Origin',(3.26572479772628E-17,-91.4306526084053,-5.03417925339706E-15));
#965=CARTESIAN_POINT('',(-3.2,-91.4306526084053,-4.64229227766991E-15));
#966=CARTESIAN_POINT('Origin',(-1.05097384824361E-46,-91.4306526084053,
-5.03417925339706E-15));
#967=CARTESIAN_POINT('Origin',(0.,-94.6306526084053,-5.03417925339706E-15));
#968=CARTESIAN_POINT('',(-3.2,-94.6306526084053,-4.64229227766991E-15));
#969=CARTESIAN_POINT('Origin',(0.,-94.6306526084053,-5.03417925339706E-15));
#970=CARTESIAN_POINT('',(-3.2,-94.6306526084053,-4.64229227766991E-15));
#971=UNCERTAINTY_MEASURE_WITH_UNIT(LENGTH_MEASURE(0.01),#975,
'DISTANCE_ACCURACY_VALUE',
'Maximum model space distance between geometric entities at asserted c
onnectivities');
#972=UNCERTAINTY_MEASURE_WITH_UNIT(LENGTH_MEASURE(0.01),#975,
'DISTANCE_ACCURACY_VALUE',
'Maximum model space distance between geometric entities at asserted c
onnectivities');
#973=(
GEOMETRIC_REPRESENTATION_CONTEXT(3)
GLOBAL_UNCERTAINTY_ASSIGNED_CONTEXT((#971))
GLOBAL_UNIT_ASSIGNED_CONTEXT((#975,#977,#978))
REPRESENTATION_CONTEXT('','3D')
);
#974=(
GEOMETRIC_REPRESENTATION_CONTEXT(3)
GLOBAL_UNCERTAINTY_ASSIGNED_CONTEXT((#972))
GLOBAL_UNIT_ASSIGNED_CONTEXT((#975,#977,#978))
REPRESENTATION_CONTEXT('','3D')
);
#975=(
LENGTH_UNIT()
NAMED_UNIT(*)
SI_UNIT(.MILLI.,.METRE.)
);
#976=(
LENGTH_UNIT()
NAMED_UNIT(*)
SI_UNIT($,.METRE.)
);
#977=(
NAMED_UNIT(*)
PLANE_ANGLE_UNIT()
SI_UNIT($,.RADIAN.)
);
#978=(
NAMED_UNIT(*)
SI_UNIT($,.STERADIAN.)
SOLID_ANGLE_UNIT()
);
#979=SHAPE_DEFINITION_REPRESENTATION(#980,#981);
#980=PRODUCT_DEFINITION_SHAPE('',$,#983);
#981=SHAPE_REPRESENTATION('',(#529),#973);
#982=PRODUCT_DEFINITION_CONTEXT('part definition',#987,'design');
#983=PRODUCT_DEFINITION('2026-07-17-16-46-25-989',
'42094_22961-LtBluishGray ',#984,#982);
#984=PRODUCT_DEFINITION_FORMATION('',$,#989);
#985=PRODUCT_RELATED_PRODUCT_CATEGORY('42094_22961-LtBluishGray ',
'42094_22961-LtBluishGray ',(#989));
#986=APPLICATION_PROTOCOL_DEFINITION('international standard',
'automotive_design',2009,#987);
#987=APPLICATION_CONTEXT(
'Core Data for Automotive Mechanical Design Process');
#988=PRODUCT_CONTEXT('part definition',#987,'mechanical');
#989=PRODUCT('2026-07-17-16-46-25-989','42094_22961-LtBluishGray ',$,(#988));
#990=PRESENTATION_STYLE_ASSIGNMENT((#992));
#991=PRESENTATION_STYLE_ASSIGNMENT((#993));
#992=SURFACE_STYLE_USAGE(.BOTH.,#994);
#993=SURFACE_STYLE_USAGE(.BOTH.,#995);
#994=SURFACE_SIDE_STYLE('',(#996));
#995=SURFACE_SIDE_STYLE('',(#997));
#996=SURFACE_STYLE_FILL_AREA(#998);
#997=SURFACE_STYLE_FILL_AREA(#999);
#998=FILL_AREA_STYLE('Smooth - White',(#1000));
#999=FILL_AREA_STYLE('Opaque(160,165,169)',(#1001));
#1000=FILL_AREA_STYLE_COLOUR('Smooth - White',#1002);
#1001=FILL_AREA_STYLE_COLOUR('Opaque(160,165,169)',#1003);
#1002=COLOUR_RGB('Smooth - White',0.92156862745098,0.92156862745098,0.92156862745098);
#1003=COLOUR_RGB('Opaque(160,165,169)',0.627450980392157,0.647058823529412,
0.662745098039216);
ENDSEC;
END-ISO-10303-21;
