ISO-10303-21;
HEADER;
/* Generated by software containing ST-Developer
 * from STEP Tools, Inc. (www.steptools.com) 
 */

FILE_DESCRIPTION(
/* description */ (''),
/* implementation_level */ '2;1');

FILE_NAME(
/* name */ 'prueba.step',
/* time_stamp */ '2026-07-17T15:59:10-06:00',
/* author */ (''),
/* organization */ (''),
/* preprocessor_version */ 'ST-DEVELOPER v20.1',
/* originating_system */ 'Autodesk Translation Framework v15.8.0.0',
/* authorisation */ '');

FILE_SCHEMA (('AUTOMOTIVE_DESIGN { 1 0 10303 214 3 1 1 }'));
ENDSEC;

DATA;
#10=MECHANICAL_DESIGN_GEOMETRIC_PRESENTATION_REPRESENTATION('',(#13),#1688);
#11=SHAPE_REPRESENTATION_RELATIONSHIP('SRR','None',#1695,#12);
#12=ADVANCED_BREP_SHAPE_REPRESENTATION('',(#14),#1687);
#13=STYLED_ITEM('',(#1705),#14);
#14=MANIFOLD_SOLID_BREP('Body1',#894);
#15=ELLIPSE('',#955,5.09116882454314,3.6);
#16=ELLIPSE('',#956,5.09116882454314,3.6);
#17=ELLIPSE('',#957,5.09116882454314,3.6);
#18=ELLIPSE('',#958,5.09116882454314,3.6);
#19=ELLIPSE('',#968,5.09116882454314,3.6);
#20=ELLIPSE('',#969,5.09116882454314,3.6);
#21=FACE_BOUND('',#265,.T.);
#22=FACE_BOUND('',#269,.T.);
#23=FACE_BOUND('',#274,.T.);
#24=FACE_BOUND('',#278,.T.);
#25=FACE_BOUND('',#281,.T.);
#26=FACE_BOUND('',#283,.T.);
#27=CYLINDRICAL_SURFACE('',#922,2.4);
#28=CYLINDRICAL_SURFACE('',#941,2.4);
#29=CYLINDRICAL_SURFACE('',#954,3.6);
#30=CYLINDRICAL_SURFACE('',#967,3.6);
#31=CYLINDRICAL_SURFACE('',#975,3.6);
#32=CYLINDRICAL_SURFACE('',#983,3.6);
#33=CYLINDRICAL_SURFACE('',#986,2.4);
#34=CYLINDRICAL_SURFACE('',#993,3.2);
#35=CYLINDRICAL_SURFACE('',#994,3.2);
#36=CYLINDRICAL_SURFACE('',#996,2.4);
#37=CYLINDRICAL_SURFACE('',#999,2.4);
#38=CYLINDRICAL_SURFACE('',#1001,2.4);
#39=CYLINDRICAL_SURFACE('',#1004,2.4);
#40=CYLINDRICAL_SURFACE('',#1006,2.4);
#41=CYLINDRICAL_SURFACE('',#1007,2.4);
#42=LINE('',#1306,#105);
#43=LINE('',#1308,#106);
#44=LINE('',#1310,#107);
#45=LINE('',#1311,#108);
#46=LINE('',#1314,#109);
#47=LINE('',#1316,#110);
#48=LINE('',#1320,#111);
#49=LINE('',#1322,#112);
#50=LINE('',#1326,#113);
#51=LINE('',#1328,#114);
#52=LINE('',#1331,#115);
#53=LINE('',#1358,#116);
#54=LINE('',#1360,#117);
#55=LINE('',#1361,#118);
#56=LINE('',#1388,#119);
#57=LINE('',#1389,#120);
#58=LINE('',#1392,#121);
#59=LINE('',#1420,#122);
#60=LINE('',#1422,#123);
#61=LINE('',#1423,#124);
#62=LINE('',#1453,#125);
#63=LINE('',#1455,#126);
#64=LINE('',#1457,#127);
#65=LINE('',#1458,#128);
#66=LINE('',#1461,#129);
#67=LINE('',#1463,#130);
#68=LINE('',#1467,#131);
#69=LINE('',#1469,#132);
#70=LINE('',#1473,#133);
#71=LINE('',#1475,#134);
#72=LINE('',#1478,#135);
#73=LINE('',#1505,#136);
#74=LINE('',#1507,#137);
#75=LINE('',#1508,#138);
#76=LINE('',#1535,#139);
#77=LINE('',#1537,#140);
#78=LINE('',#1538,#141);
#79=LINE('',#1541,#142);
#80=LINE('',#1569,#143);
#81=LINE('',#1570,#144);
#82=LINE('',#1578,#145);
#83=LINE('',#1582,#146);
#84=LINE('',#1584,#147);
#85=LINE('',#1587,#148);
#86=LINE('',#1597,#149);
#87=LINE('',#1607,#150);
#88=LINE('',#1609,#151);
#89=LINE('',#1612,#152);
#90=LINE('',#1616,#153);
#91=LINE('',#1620,#154);
#92=LINE('',#1630,#155);
#93=LINE('',#1643,#156);
#94=LINE('',#1651,#157);
#95=LINE('',#1660,#158);
#96=LINE('',#1662,#159);
#97=LINE('',#1665,#160);
#98=LINE('',#1667,#161);
#99=LINE('',#1669,#162);
#100=LINE('',#1672,#163);
#101=LINE('',#1675,#164);
#102=LINE('',#1677,#165);
#103=LINE('',#1680,#166);
#104=LINE('',#1683,#167);
#105=VECTOR('',#1019,10.);
#106=VECTOR('',#1020,10.);
#107=VECTOR('',#1021,10.);
#108=VECTOR('',#1022,10.);
#109=VECTOR('',#1025,10.);
#110=VECTOR('',#1026,10.);
#111=VECTOR('',#1029,10.);
#112=VECTOR('',#1030,10.);
#113=VECTOR('',#1033,10.);
#114=VECTOR('',#1034,10.);
#115=VECTOR('',#1037,10.);
#116=VECTOR('',#1044,10.);
#117=VECTOR('',#1045,10.);
#118=VECTOR('',#1046,10.);
#119=VECTOR('',#1053,10.);
#120=VECTOR('',#1054,10.);
#121=VECTOR('',#1057,10.);
#122=VECTOR('',#1066,10.);
#123=VECTOR('',#1067,10.);
#124=VECTOR('',#1068,10.);
#125=VECTOR('',#1077,10.);
#126=VECTOR('',#1078,10.);
#127=VECTOR('',#1079,10.);
#128=VECTOR('',#1080,10.);
#129=VECTOR('',#1083,10.);
#130=VECTOR('',#1084,10.);
#131=VECTOR('',#1087,10.);
#132=VECTOR('',#1088,10.);
#133=VECTOR('',#1091,10.);
#134=VECTOR('',#1092,10.);
#135=VECTOR('',#1095,10.);
#136=VECTOR('',#1102,10.);
#137=VECTOR('',#1103,10.);
#138=VECTOR('',#1104,10.);
#139=VECTOR('',#1111,10.);
#140=VECTOR('',#1112,10.);
#141=VECTOR('',#1113,10.);
#142=VECTOR('',#1116,10.);
#143=VECTOR('',#1125,10.);
#144=VECTOR('',#1126,10.);
#145=VECTOR('',#1137,10.);
#146=VECTOR('',#1140,10.);
#147=VECTOR('',#1141,10.);
#148=VECTOR('',#1144,10.);
#149=VECTOR('',#1155,3.6);
#150=VECTOR('',#1168,10.);
#151=VECTOR('',#1169,10.);
#152=VECTOR('',#1172,10.);
#153=VECTOR('',#1177,10.);
#154=VECTOR('',#1184,3.6);
#155=VECTOR('',#1197,3.6);
#156=VECTOR('',#1214,3.6);
#157=VECTOR('',#1223,2.4);
#158=VECTOR('',#1236,3.2);
#159=VECTOR('',#1239,3.2);
#160=VECTOR('',#1244,10.);
#161=VECTOR('',#1247,10.);
#162=VECTOR('',#1250,10.);
#163=VECTOR('',#1255,10.);
#164=VECTOR('',#1260,10.);
#165=VECTOR('',#1263,10.);
#166=VECTOR('',#1268,10.);
#167=VECTOR('',#1273,10.);
#168=PLANE('',#911);
#169=PLANE('',#912);
#170=PLANE('',#918);
#171=PLANE('',#921);
#172=PLANE('',#926);
#173=PLANE('',#930);
#174=PLANE('',#931);
#175=PLANE('',#937);
#176=PLANE('',#940);
#177=PLANE('',#945);
#178=PLANE('',#950);
#179=PLANE('',#963);
#180=PLANE('',#976);
#181=PLANE('',#984);
#182=PLANE('',#989);
#183=PLANE('',#991);
#184=PLANE('',#995);
#185=PLANE('',#997);
#186=PLANE('',#998);
#187=PLANE('',#1000);
#188=PLANE('',#1002);
#189=PLANE('',#1003);
#190=PLANE('',#1005);
#191=PLANE('',#1008);
#192=FACE_OUTER_BOUND('',#243,.T.);
#193=FACE_OUTER_BOUND('',#244,.T.);
#194=FACE_OUTER_BOUND('',#245,.T.);
#195=FACE_OUTER_BOUND('',#246,.T.);
#196=FACE_OUTER_BOUND('',#247,.T.);
#197=FACE_OUTER_BOUND('',#248,.T.);
#198=FACE_OUTER_BOUND('',#249,.T.);
#199=FACE_OUTER_BOUND('',#250,.T.);
#200=FACE_OUTER_BOUND('',#251,.T.);
#201=FACE_OUTER_BOUND('',#252,.T.);
#202=FACE_OUTER_BOUND('',#253,.T.);
#203=FACE_OUTER_BOUND('',#254,.T.);
#204=FACE_OUTER_BOUND('',#255,.T.);
#205=FACE_OUTER_BOUND('',#256,.T.);
#206=FACE_OUTER_BOUND('',#257,.T.);
#207=FACE_OUTER_BOUND('',#258,.T.);
#208=FACE_OUTER_BOUND('',#259,.T.);
#209=FACE_OUTER_BOUND('',#260,.T.);
#210=FACE_OUTER_BOUND('',#261,.T.);
#211=FACE_OUTER_BOUND('',#262,.T.);
#212=FACE_OUTER_BOUND('',#263,.T.);
#213=FACE_OUTER_BOUND('',#264,.T.);
#214=FACE_OUTER_BOUND('',#266,.T.);
#215=FACE_OUTER_BOUND('',#267,.T.);
#216=FACE_OUTER_BOUND('',#268,.T.);
#217=FACE_OUTER_BOUND('',#270,.T.);
#218=FACE_OUTER_BOUND('',#271,.T.);
#219=FACE_OUTER_BOUND('',#272,.T.);
#220=FACE_OUTER_BOUND('',#273,.T.);
#221=FACE_OUTER_BOUND('',#275,.T.);
#222=FACE_OUTER_BOUND('',#276,.T.);
#223=FACE_OUTER_BOUND('',#277,.T.);
#224=FACE_OUTER_BOUND('',#279,.T.);
#225=FACE_OUTER_BOUND('',#280,.T.);
#226=FACE_OUTER_BOUND('',#282,.T.);
#227=FACE_OUTER_BOUND('',#284,.T.);
#228=FACE_OUTER_BOUND('',#285,.T.);
#229=FACE_OUTER_BOUND('',#286,.T.);
#230=FACE_OUTER_BOUND('',#287,.T.);
#231=FACE_OUTER_BOUND('',#288,.T.);
#232=FACE_OUTER_BOUND('',#289,.T.);
#233=FACE_OUTER_BOUND('',#290,.T.);
#234=FACE_OUTER_BOUND('',#291,.T.);
#235=FACE_OUTER_BOUND('',#292,.T.);
#236=FACE_OUTER_BOUND('',#293,.T.);
#237=FACE_OUTER_BOUND('',#294,.T.);
#238=FACE_OUTER_BOUND('',#295,.T.);
#239=FACE_OUTER_BOUND('',#296,.T.);
#240=FACE_OUTER_BOUND('',#297,.T.);
#241=FACE_OUTER_BOUND('',#298,.T.);
#242=FACE_OUTER_BOUND('',#299,.T.);
#243=EDGE_LOOP('',(#573,#574,#575,#576));
#244=EDGE_LOOP('',(#577,#578,#579,#580,#581));
#245=EDGE_LOOP('',(#582,#583,#584,#585,#586,#587,#588,#589,#590,#591,#592,
#593));
#246=EDGE_LOOP('',(#594,#595,#596,#597));
#247=EDGE_LOOP('',(#598,#599,#600,#601,#602));
#248=EDGE_LOOP('',(#603,#604,#605,#606));
#249=EDGE_LOOP('',(#607,#608,#609,#610,#611));
#250=EDGE_LOOP('',(#612,#613,#614,#615));
#251=EDGE_LOOP('',(#616,#617,#618,#619));
#252=EDGE_LOOP('',(#620,#621,#622,#623,#624));
#253=EDGE_LOOP('',(#625,#626,#627,#628));
#254=EDGE_LOOP('',(#629,#630,#631,#632,#633));
#255=EDGE_LOOP('',(#634,#635,#636,#637,#638,#639,#640,#641,#642,#643,#644,
#645));
#256=EDGE_LOOP('',(#646,#647,#648,#649));
#257=EDGE_LOOP('',(#650,#651,#652,#653,#654));
#258=EDGE_LOOP('',(#655,#656,#657,#658));
#259=EDGE_LOOP('',(#659,#660,#661,#662,#663));
#260=EDGE_LOOP('',(#664,#665,#666,#667));
#261=EDGE_LOOP('',(#668,#669,#670,#671));
#262=EDGE_LOOP('',(#672,#673,#674,#675,#676));
#263=EDGE_LOOP('',(#677,#678,#679,#680));
#264=EDGE_LOOP('',(#681));
#265=EDGE_LOOP('',(#682,#683,#684,#685,#686,#687,#688,#689,#690,#691,#692,
#693));
#266=EDGE_LOOP('',(#694,#695,#696,#697,#698,#699,#700));
#267=EDGE_LOOP('',(#701,#702,#703,#704));
#268=EDGE_LOOP('',(#705));
#269=EDGE_LOOP('',(#706,#707,#708,#709,#710,#711,#712,#713,#714,#715,#716,
#717));
#270=EDGE_LOOP('',(#718,#719,#720,#721,#722));
#271=EDGE_LOOP('',(#723,#724,#725,#726,#727));
#272=EDGE_LOOP('',(#728,#729,#730,#731,#732,#733,#734));
#273=EDGE_LOOP('',(#735));
#274=EDGE_LOOP('',(#736));
#275=EDGE_LOOP('',(#737,#738,#739,#740,#741));
#276=EDGE_LOOP('',(#742,#743,#744,#745,#746,#747,#748));
#277=EDGE_LOOP('',(#749));
#278=EDGE_LOOP('',(#750));
#279=EDGE_LOOP('',(#751,#752,#753,#754));
#280=EDGE_LOOP('',(#755));
#281=EDGE_LOOP('',(#756));
#282=EDGE_LOOP('',(#757));
#283=EDGE_LOOP('',(#758));
#284=EDGE_LOOP('',(#759,#760,#761,#762));
#285=EDGE_LOOP('',(#763,#764,#765,#766));
#286=EDGE_LOOP('',(#767,#768,#769,#770,#771));
#287=EDGE_LOOP('',(#772,#773,#774,#775));
#288=EDGE_LOOP('',(#776,#777,#778,#779,#780));
#289=EDGE_LOOP('',(#781,#782,#783,#784,#785));
#290=EDGE_LOOP('',(#786,#787,#788,#789));
#291=EDGE_LOOP('',(#790,#791,#792,#793,#794));
#292=EDGE_LOOP('',(#795,#796,#797,#798));
#293=EDGE_LOOP('',(#799,#800,#801,#802,#803));
#294=EDGE_LOOP('',(#804,#805,#806,#807,#808));
#295=EDGE_LOOP('',(#809,#810,#811,#812));
#296=EDGE_LOOP('',(#813,#814,#815,#816,#817));
#297=EDGE_LOOP('',(#818,#819,#820,#821));
#298=EDGE_LOOP('',(#822,#823,#824,#825));
#299=EDGE_LOOP('',(#826,#827,#828,#829,#830));
#300=CIRCLE('',#909,2.);
#301=CIRCLE('',#910,2.4);
#302=CIRCLE('',#913,2.);
#303=CIRCLE('',#914,2.);
#304=CIRCLE('',#915,2.);
#305=CIRCLE('',#917,2.4);
#306=CIRCLE('',#920,2.4);
#307=CIRCLE('',#923,2.4);
#308=CIRCLE('',#925,2.4);
#309=CIRCLE('',#928,2.);
#310=CIRCLE('',#929,2.4);
#311=CIRCLE('',#932,2.);
#312=CIRCLE('',#933,2.);
#313=CIRCLE('',#934,2.);
#314=CIRCLE('',#936,2.4);
#315=CIRCLE('',#939,2.4);
#316=CIRCLE('',#942,2.4);
#317=CIRCLE('',#944,2.4);
#318=CIRCLE('',#947,3.6);
#319=CIRCLE('',#948,0.1);
#320=CIRCLE('',#949,3.5);
#321=CIRCLE('',#951,2.4);
#322=CIRCLE('',#952,2.4);
#323=CIRCLE('',#953,2.4);
#324=CIRCLE('',#960,3.6);
#325=CIRCLE('',#961,0.1);
#326=CIRCLE('',#962,3.5);
#327=CIRCLE('',#964,2.4);
#328=CIRCLE('',#965,2.4);
#329=CIRCLE('',#966,2.4);
#330=CIRCLE('',#971,3.5);
#331=CIRCLE('',#972,0.1);
#332=CIRCLE('',#973,3.6);
#333=CIRCLE('',#974,3.6);
#334=CIRCLE('',#977,3.2);
#335=CIRCLE('',#979,3.5);
#336=CIRCLE('',#980,0.1);
#337=CIRCLE('',#981,3.6);
#338=CIRCLE('',#982,3.6);
#339=CIRCLE('',#985,3.2);
#340=CIRCLE('',#987,2.4);
#341=CIRCLE('',#988,2.4);
#342=CIRCLE('',#990,3.2);
#343=CIRCLE('',#992,3.2);
#344=B_SPLINE_CURVE_WITH_KNOTS('',3,(#1280,#1281,#1282,#1283,#1284,#1285,
#1286,#1287,#1288,#1289),.UNSPECIFIED.,.F.,.F.,(4,2,2,2,4),(0.,0.0144940074685337,
0.0294347316143416,0.0450526777923366,0.0615203980019569),.UNSPECIFIED.);
#345=B_SPLINE_CURVE_WITH_KNOTS('',3,(#1293,#1294,#1295,#1296,#1297,#1298,
#1299,#1300,#1301,#1302),.UNSPECIFIED.,.F.,.F.,(4,2,2,2,4),(0.186840381746433,
0.203308101956054,0.218926048134049,0.233866772279857,0.24836077974839),
 .UNSPECIFIED.);
#346=B_SPLINE_CURVE_WITH_KNOTS('',3,(#1334,#1335,#1336,#1337,#1338,#1339,
#1340,#1341,#1342,#1343),.UNSPECIFIED.,.F.,.F.,(4,2,2,2,4),(0.,0.0144940074685337,
0.0294347316143416,0.0450526777923366,0.0615203980019569),.UNSPECIFIED.);
#347=B_SPLINE_CURVE_WITH_KNOTS('',3,(#1345,#1346,#1347,#1348,#1349,#1350,
#1351,#1352,#1353,#1354),.UNSPECIFIED.,.F.,.F.,(4,2,2,2,4),(0.186840381746434,
0.203308101956054,0.218926048134049,0.233866772279857,0.24836077974839),
 .UNSPECIFIED.);
#348=B_SPLINE_CURVE_WITH_KNOTS('',3,(#1364,#1365,#1366,#1367,#1368,#1369,
#1370,#1371,#1372,#1373),.UNSPECIFIED.,.F.,.F.,(4,2,2,2,4),(0.,0.0144940074685337,
0.0294347316143416,0.0450526777923366,0.0615203980019569),.UNSPECIFIED.);
#349=B_SPLINE_CURVE_WITH_KNOTS('',3,(#1375,#1376,#1377,#1378,#1379,#1380,
#1381,#1382,#1383,#1384),.UNSPECIFIED.,.F.,.F.,(4,2,2,2,4),(0.186841996918328,
0.203309717127948,0.218927663305943,0.233868387451751,0.248362394920284),
 .UNSPECIFIED.);
#350=B_SPLINE_CURVE_WITH_KNOTS('',3,(#1396,#1397,#1398,#1399,#1400,#1401,
#1402,#1403,#1404,#1405),.UNSPECIFIED.,.F.,.F.,(4,2,2,2,4),(0.,0.0144940074685337,
0.0294347316143416,0.0450526777923366,0.0615203980019569),.UNSPECIFIED.);
#351=B_SPLINE_CURVE_WITH_KNOTS('',3,(#1407,#1408,#1409,#1410,#1411,#1412,
#1413,#1414,#1415,#1416),.UNSPECIFIED.,.F.,.F.,(4,2,2,2,4),(0.186840381746434,
0.203308101956054,0.218926048134049,0.233866772279857,0.24836077974839),
 .UNSPECIFIED.);
#352=B_SPLINE_CURVE_WITH_KNOTS('',3,(#1427,#1428,#1429,#1430,#1431,#1432,
#1433,#1434,#1435,#1436),.UNSPECIFIED.,.F.,.F.,(4,2,2,2,4),(0.,0.0144940074685337,
0.0294347316143416,0.0450526777923366,0.0615203980019569),.UNSPECIFIED.);
#353=B_SPLINE_CURVE_WITH_KNOTS('',3,(#1440,#1441,#1442,#1443,#1444,#1445,
#1446,#1447,#1448,#1449),.UNSPECIFIED.,.F.,.F.,(4,2,2,2,4),(0.186840381746433,
0.203308101956054,0.218926048134049,0.233866772279857,0.24836077974839),
 .UNSPECIFIED.);
#354=B_SPLINE_CURVE_WITH_KNOTS('',3,(#1481,#1482,#1483,#1484,#1485,#1486,
#1487,#1488,#1489,#1490),.UNSPECIFIED.,.F.,.F.,(4,2,2,2,4),(0.,0.0144940074685337,
0.0294347316143416,0.0450526777923366,0.0615203980019569),.UNSPECIFIED.);
#355=B_SPLINE_CURVE_WITH_KNOTS('',3,(#1492,#1493,#1494,#1495,#1496,#1497,
#1498,#1499,#1500,#1501),.UNSPECIFIED.,.F.,.F.,(4,2,2,2,4),(0.186840381746434,
0.203308101956054,0.218926048134049,0.233866772279857,0.248360779748391),
 .UNSPECIFIED.);
#356=B_SPLINE_CURVE_WITH_KNOTS('',3,(#1511,#1512,#1513,#1514,#1515,#1516,
#1517,#1518,#1519,#1520),.UNSPECIFIED.,.F.,.F.,(4,2,2,2,4),(0.,0.0144940074685337,
0.0294347316143416,0.0450526777923366,0.0615203980019569),.UNSPECIFIED.);
#357=B_SPLINE_CURVE_WITH_KNOTS('',3,(#1522,#1523,#1524,#1525,#1526,#1527,
#1528,#1529,#1530,#1531),.UNSPECIFIED.,.F.,.F.,(4,2,2,2,4),(0.186840381746434,
0.203308101956054,0.218926048134049,0.233866772279857,0.24836077974839),
 .UNSPECIFIED.);
#358=B_SPLINE_CURVE_WITH_KNOTS('',3,(#1545,#1546,#1547,#1548,#1549,#1550,
#1551,#1552,#1553,#1554),.UNSPECIFIED.,.F.,.F.,(4,2,2,2,4),(0.,0.0144940074685337,
0.0294347316143416,0.0450526777923366,0.0615203980019569),.UNSPECIFIED.);
#359=B_SPLINE_CURVE_WITH_KNOTS('',3,(#1556,#1557,#1558,#1559,#1560,#1561,
#1562,#1563,#1564,#1565),.UNSPECIFIED.,.F.,.F.,(4,2,2,2,4),(0.186840381746433,
0.203308101956054,0.218926048134049,0.233866772279857,0.24836077974839),
 .UNSPECIFIED.);
#360=VERTEX_POINT('',#1278);
#361=VERTEX_POINT('',#1279);
#362=VERTEX_POINT('',#1290);
#363=VERTEX_POINT('',#1292);
#364=VERTEX_POINT('',#1305);
#365=VERTEX_POINT('',#1307);
#366=VERTEX_POINT('',#1309);
#367=VERTEX_POINT('',#1313);
#368=VERTEX_POINT('',#1315);
#369=VERTEX_POINT('',#1317);
#370=VERTEX_POINT('',#1319);
#371=VERTEX_POINT('',#1321);
#372=VERTEX_POINT('',#1323);
#373=VERTEX_POINT('',#1325);
#374=VERTEX_POINT('',#1327);
#375=VERTEX_POINT('',#1329);
#376=VERTEX_POINT('',#1333);
#377=VERTEX_POINT('',#1344);
#378=VERTEX_POINT('',#1357);
#379=VERTEX_POINT('',#1359);
#380=VERTEX_POINT('',#1363);
#381=VERTEX_POINT('',#1374);
#382=VERTEX_POINT('',#1387);
#383=VERTEX_POINT('',#1391);
#384=VERTEX_POINT('',#1395);
#385=VERTEX_POINT('',#1406);
#386=VERTEX_POINT('',#1419);
#387=VERTEX_POINT('',#1421);
#388=VERTEX_POINT('',#1425);
#389=VERTEX_POINT('',#1426);
#390=VERTEX_POINT('',#1437);
#391=VERTEX_POINT('',#1439);
#392=VERTEX_POINT('',#1452);
#393=VERTEX_POINT('',#1454);
#394=VERTEX_POINT('',#1456);
#395=VERTEX_POINT('',#1460);
#396=VERTEX_POINT('',#1462);
#397=VERTEX_POINT('',#1464);
#398=VERTEX_POINT('',#1466);
#399=VERTEX_POINT('',#1468);
#400=VERTEX_POINT('',#1470);
#401=VERTEX_POINT('',#1472);
#402=VERTEX_POINT('',#1474);
#403=VERTEX_POINT('',#1476);
#404=VERTEX_POINT('',#1480);
#405=VERTEX_POINT('',#1491);
#406=VERTEX_POINT('',#1504);
#407=VERTEX_POINT('',#1506);
#408=VERTEX_POINT('',#1510);
#409=VERTEX_POINT('',#1521);
#410=VERTEX_POINT('',#1534);
#411=VERTEX_POINT('',#1536);
#412=VERTEX_POINT('',#1540);
#413=VERTEX_POINT('',#1544);
#414=VERTEX_POINT('',#1555);
#415=VERTEX_POINT('',#1568);
#416=VERTEX_POINT('',#1572);
#417=VERTEX_POINT('',#1574);
#418=VERTEX_POINT('',#1579);
#419=VERTEX_POINT('',#1581);
#420=VERTEX_POINT('',#1583);
#421=VERTEX_POINT('',#1586);
#422=VERTEX_POINT('',#1590);
#423=VERTEX_POINT('',#1591);
#424=VERTEX_POINT('',#1593);
#425=VERTEX_POINT('',#1595);
#426=VERTEX_POINT('',#1600);
#427=VERTEX_POINT('',#1602);
#428=VERTEX_POINT('',#1606);
#429=VERTEX_POINT('',#1608);
#430=VERTEX_POINT('',#1611);
#431=VERTEX_POINT('',#1614);
#432=VERTEX_POINT('',#1622);
#433=VERTEX_POINT('',#1624);
#434=VERTEX_POINT('',#1626);
#435=VERTEX_POINT('',#1632);
#436=VERTEX_POINT('',#1635);
#437=VERTEX_POINT('',#1637);
#438=VERTEX_POINT('',#1639);
#439=VERTEX_POINT('',#1645);
#440=VERTEX_POINT('',#1648);
#441=VERTEX_POINT('',#1650);
#442=VERTEX_POINT('',#1654);
#443=VERTEX_POINT('',#1657);
#444=EDGE_CURVE('',#360,#361,#344,.T.);
#445=EDGE_CURVE('',#361,#362,#300,.T.);
#446=EDGE_CURVE('',#362,#363,#345,.T.);
#447=EDGE_CURVE('',#363,#360,#301,.T.);
#448=EDGE_CURVE('',#364,#362,#42,.T.);
#449=EDGE_CURVE('',#365,#364,#43,.T.);
#450=EDGE_CURVE('',#366,#365,#44,.T.);
#451=EDGE_CURVE('',#366,#363,#45,.T.);
#452=EDGE_CURVE('',#361,#367,#46,.T.);
#453=EDGE_CURVE('',#367,#368,#47,.T.);
#454=EDGE_CURVE('',#369,#368,#302,.T.);
#455=EDGE_CURVE('',#369,#370,#48,.T.);
#456=EDGE_CURVE('',#370,#371,#49,.T.);
#457=EDGE_CURVE('',#372,#371,#303,.T.);
#458=EDGE_CURVE('',#372,#373,#50,.T.);
#459=EDGE_CURVE('',#373,#374,#51,.T.);
#460=EDGE_CURVE('',#375,#374,#304,.T.);
#461=EDGE_CURVE('',#375,#364,#52,.T.);
#462=EDGE_CURVE('',#376,#369,#346,.T.);
#463=EDGE_CURVE('',#368,#377,#347,.T.);
#464=EDGE_CURVE('',#377,#376,#305,.T.);
#465=EDGE_CURVE('',#378,#367,#53,.T.);
#466=EDGE_CURVE('',#379,#378,#54,.T.);
#467=EDGE_CURVE('',#379,#377,#55,.T.);
#468=EDGE_CURVE('',#380,#375,#348,.T.);
#469=EDGE_CURVE('',#374,#381,#349,.T.);
#470=EDGE_CURVE('',#381,#380,#306,.T.);
#471=EDGE_CURVE('',#382,#380,#56,.T.);
#472=EDGE_CURVE('',#365,#382,#57,.T.);
#473=EDGE_CURVE('',#383,#381,#58,.T.);
#474=EDGE_CURVE('',#382,#383,#307,.T.);
#475=EDGE_CURVE('',#384,#372,#350,.T.);
#476=EDGE_CURVE('',#371,#385,#351,.T.);
#477=EDGE_CURVE('',#385,#384,#308,.T.);
#478=EDGE_CURVE('',#386,#384,#59,.T.);
#479=EDGE_CURVE('',#387,#386,#60,.T.);
#480=EDGE_CURVE('',#387,#373,#61,.T.);
#481=EDGE_CURVE('',#388,#389,#352,.T.);
#482=EDGE_CURVE('',#389,#390,#309,.T.);
#483=EDGE_CURVE('',#390,#391,#353,.T.);
#484=EDGE_CURVE('',#391,#388,#310,.T.);
#485=EDGE_CURVE('',#392,#390,#62,.T.);
#486=EDGE_CURVE('',#393,#392,#63,.T.);
#487=EDGE_CURVE('',#394,#393,#64,.T.);
#488=EDGE_CURVE('',#394,#391,#65,.T.);
#489=EDGE_CURVE('',#389,#395,#66,.T.);
#490=EDGE_CURVE('',#395,#396,#67,.T.);
#491=EDGE_CURVE('',#397,#396,#311,.T.);
#492=EDGE_CURVE('',#397,#398,#68,.T.);
#493=EDGE_CURVE('',#398,#399,#69,.T.);
#494=EDGE_CURVE('',#400,#399,#312,.T.);
#495=EDGE_CURVE('',#400,#401,#70,.T.);
#496=EDGE_CURVE('',#401,#402,#71,.T.);
#497=EDGE_CURVE('',#403,#402,#313,.T.);
#498=EDGE_CURVE('',#403,#392,#72,.T.);
#499=EDGE_CURVE('',#404,#397,#354,.T.);
#500=EDGE_CURVE('',#396,#405,#355,.T.);
#501=EDGE_CURVE('',#405,#404,#314,.T.);
#502=EDGE_CURVE('',#406,#395,#73,.T.);
#503=EDGE_CURVE('',#407,#406,#74,.T.);
#504=EDGE_CURVE('',#407,#405,#75,.T.);
#505=EDGE_CURVE('',#408,#400,#356,.T.);
#506=EDGE_CURVE('',#399,#409,#357,.T.);
#507=EDGE_CURVE('',#409,#408,#315,.T.);
#508=EDGE_CURVE('',#410,#408,#76,.T.);
#509=EDGE_CURVE('',#411,#410,#77,.T.);
#510=EDGE_CURVE('',#411,#401,#78,.T.);
#511=EDGE_CURVE('',#412,#409,#79,.T.);
#512=EDGE_CURVE('',#410,#412,#316,.T.);
#513=EDGE_CURVE('',#413,#403,#358,.T.);
#514=EDGE_CURVE('',#402,#414,#359,.T.);
#515=EDGE_CURVE('',#414,#413,#317,.T.);
#516=EDGE_CURVE('',#415,#413,#80,.T.);
#517=EDGE_CURVE('',#393,#415,#81,.T.);
#518=EDGE_CURVE('',#416,#416,#318,.T.);
#519=EDGE_CURVE('',#416,#417,#319,.T.);
#520=EDGE_CURVE('',#417,#417,#320,.T.);
#521=EDGE_CURVE('',#383,#387,#82,.T.);
#522=EDGE_CURVE('',#386,#418,#321,.T.);
#523=EDGE_CURVE('',#418,#419,#83,.T.);
#524=EDGE_CURVE('',#419,#420,#84,.T.);
#525=EDGE_CURVE('',#420,#379,#322,.T.);
#526=EDGE_CURVE('',#378,#421,#85,.T.);
#527=EDGE_CURVE('',#421,#366,#323,.T.);
#528=EDGE_CURVE('',#422,#423,#15,.T.);
#529=EDGE_CURVE('',#424,#422,#16,.T.);
#530=EDGE_CURVE('',#425,#424,#17,.T.);
#531=EDGE_CURVE('',#425,#416,#86,.T.);
#532=EDGE_CURVE('',#423,#425,#18,.T.);
#533=EDGE_CURVE('',#426,#426,#324,.T.);
#534=EDGE_CURVE('',#426,#427,#325,.T.);
#535=EDGE_CURVE('',#427,#427,#326,.T.);
#536=EDGE_CURVE('',#412,#428,#87,.T.);
#537=EDGE_CURVE('',#428,#429,#88,.T.);
#538=EDGE_CURVE('',#429,#407,#327,.T.);
#539=EDGE_CURVE('',#406,#430,#89,.T.);
#540=EDGE_CURVE('',#430,#394,#328,.T.);
#541=EDGE_CURVE('',#415,#431,#329,.T.);
#542=EDGE_CURVE('',#431,#411,#90,.T.);
#543=EDGE_CURVE('',#425,#422,#19,.T.);
#544=EDGE_CURVE('',#422,#425,#20,.T.);
#545=EDGE_CURVE('',#422,#426,#91,.T.);
#546=EDGE_CURVE('',#432,#432,#330,.T.);
#547=EDGE_CURVE('',#432,#433,#331,.T.);
#548=EDGE_CURVE('',#433,#434,#332,.T.);
#549=EDGE_CURVE('',#434,#433,#333,.T.);
#550=EDGE_CURVE('',#424,#434,#92,.T.);
#551=EDGE_CURVE('',#435,#435,#334,.T.);
#552=EDGE_CURVE('',#436,#436,#335,.T.);
#553=EDGE_CURVE('',#436,#437,#336,.T.);
#554=EDGE_CURVE('',#437,#438,#337,.T.);
#555=EDGE_CURVE('',#438,#437,#338,.T.);
#556=EDGE_CURVE('',#438,#423,#93,.T.);
#557=EDGE_CURVE('',#439,#439,#339,.T.);
#558=EDGE_CURVE('',#440,#440,#340,.T.);
#559=EDGE_CURVE('',#440,#441,#94,.T.);
#560=EDGE_CURVE('',#441,#441,#341,.T.);
#561=EDGE_CURVE('',#442,#442,#342,.T.);
#562=EDGE_CURVE('',#443,#443,#343,.T.);
#563=EDGE_CURVE('',#443,#439,#95,.T.);
#564=EDGE_CURVE('',#435,#442,#96,.T.);
#565=EDGE_CURVE('',#418,#385,#97,.T.);
#566=EDGE_CURVE('',#419,#370,#98,.T.);
#567=EDGE_CURVE('',#420,#376,#99,.T.);
#568=EDGE_CURVE('',#421,#360,#100,.T.);
#569=EDGE_CURVE('',#428,#398,#101,.T.);
#570=EDGE_CURVE('',#429,#404,#102,.T.);
#571=EDGE_CURVE('',#430,#388,#103,.T.);
#572=EDGE_CURVE('',#431,#414,#104,.T.);
#573=ORIENTED_EDGE('',*,*,#444,.T.);
#574=ORIENTED_EDGE('',*,*,#445,.T.);
#575=ORIENTED_EDGE('',*,*,#446,.T.);
#576=ORIENTED_EDGE('',*,*,#447,.T.);
#577=ORIENTED_EDGE('',*,*,#446,.F.);
#578=ORIENTED_EDGE('',*,*,#448,.F.);
#579=ORIENTED_EDGE('',*,*,#449,.F.);
#580=ORIENTED_EDGE('',*,*,#450,.F.);
#581=ORIENTED_EDGE('',*,*,#451,.T.);
#582=ORIENTED_EDGE('',*,*,#445,.F.);
#583=ORIENTED_EDGE('',*,*,#452,.T.);
#584=ORIENTED_EDGE('',*,*,#453,.T.);
#585=ORIENTED_EDGE('',*,*,#454,.F.);
#586=ORIENTED_EDGE('',*,*,#455,.T.);
#587=ORIENTED_EDGE('',*,*,#456,.T.);
#588=ORIENTED_EDGE('',*,*,#457,.F.);
#589=ORIENTED_EDGE('',*,*,#458,.T.);
#590=ORIENTED_EDGE('',*,*,#459,.T.);
#591=ORIENTED_EDGE('',*,*,#460,.F.);
#592=ORIENTED_EDGE('',*,*,#461,.T.);
#593=ORIENTED_EDGE('',*,*,#448,.T.);
#594=ORIENTED_EDGE('',*,*,#462,.T.);
#595=ORIENTED_EDGE('',*,*,#454,.T.);
#596=ORIENTED_EDGE('',*,*,#463,.T.);
#597=ORIENTED_EDGE('',*,*,#464,.T.);
#598=ORIENTED_EDGE('',*,*,#463,.F.);
#599=ORIENTED_EDGE('',*,*,#453,.F.);
#600=ORIENTED_EDGE('',*,*,#465,.F.);
#601=ORIENTED_EDGE('',*,*,#466,.F.);
#602=ORIENTED_EDGE('',*,*,#467,.T.);
#603=ORIENTED_EDGE('',*,*,#468,.T.);
#604=ORIENTED_EDGE('',*,*,#460,.T.);
#605=ORIENTED_EDGE('',*,*,#469,.T.);
#606=ORIENTED_EDGE('',*,*,#470,.T.);
#607=ORIENTED_EDGE('',*,*,#468,.F.);
#608=ORIENTED_EDGE('',*,*,#471,.F.);
#609=ORIENTED_EDGE('',*,*,#472,.F.);
#610=ORIENTED_EDGE('',*,*,#449,.T.);
#611=ORIENTED_EDGE('',*,*,#461,.F.);
#612=ORIENTED_EDGE('',*,*,#470,.F.);
#613=ORIENTED_EDGE('',*,*,#473,.F.);
#614=ORIENTED_EDGE('',*,*,#474,.F.);
#615=ORIENTED_EDGE('',*,*,#471,.T.);
#616=ORIENTED_EDGE('',*,*,#475,.T.);
#617=ORIENTED_EDGE('',*,*,#457,.T.);
#618=ORIENTED_EDGE('',*,*,#476,.T.);
#619=ORIENTED_EDGE('',*,*,#477,.T.);
#620=ORIENTED_EDGE('',*,*,#475,.F.);
#621=ORIENTED_EDGE('',*,*,#478,.F.);
#622=ORIENTED_EDGE('',*,*,#479,.F.);
#623=ORIENTED_EDGE('',*,*,#480,.T.);
#624=ORIENTED_EDGE('',*,*,#458,.F.);
#625=ORIENTED_EDGE('',*,*,#481,.T.);
#626=ORIENTED_EDGE('',*,*,#482,.T.);
#627=ORIENTED_EDGE('',*,*,#483,.T.);
#628=ORIENTED_EDGE('',*,*,#484,.T.);
#629=ORIENTED_EDGE('',*,*,#483,.F.);
#630=ORIENTED_EDGE('',*,*,#485,.F.);
#631=ORIENTED_EDGE('',*,*,#486,.F.);
#632=ORIENTED_EDGE('',*,*,#487,.F.);
#633=ORIENTED_EDGE('',*,*,#488,.T.);
#634=ORIENTED_EDGE('',*,*,#482,.F.);
#635=ORIENTED_EDGE('',*,*,#489,.T.);
#636=ORIENTED_EDGE('',*,*,#490,.T.);
#637=ORIENTED_EDGE('',*,*,#491,.F.);
#638=ORIENTED_EDGE('',*,*,#492,.T.);
#639=ORIENTED_EDGE('',*,*,#493,.T.);
#640=ORIENTED_EDGE('',*,*,#494,.F.);
#641=ORIENTED_EDGE('',*,*,#495,.T.);
#642=ORIENTED_EDGE('',*,*,#496,.T.);
#643=ORIENTED_EDGE('',*,*,#497,.F.);
#644=ORIENTED_EDGE('',*,*,#498,.T.);
#645=ORIENTED_EDGE('',*,*,#485,.T.);
#646=ORIENTED_EDGE('',*,*,#499,.T.);
#647=ORIENTED_EDGE('',*,*,#491,.T.);
#648=ORIENTED_EDGE('',*,*,#500,.T.);
#649=ORIENTED_EDGE('',*,*,#501,.T.);
#650=ORIENTED_EDGE('',*,*,#500,.F.);
#651=ORIENTED_EDGE('',*,*,#490,.F.);
#652=ORIENTED_EDGE('',*,*,#502,.F.);
#653=ORIENTED_EDGE('',*,*,#503,.F.);
#654=ORIENTED_EDGE('',*,*,#504,.T.);
#655=ORIENTED_EDGE('',*,*,#505,.T.);
#656=ORIENTED_EDGE('',*,*,#494,.T.);
#657=ORIENTED_EDGE('',*,*,#506,.T.);
#658=ORIENTED_EDGE('',*,*,#507,.T.);
#659=ORIENTED_EDGE('',*,*,#505,.F.);
#660=ORIENTED_EDGE('',*,*,#508,.F.);
#661=ORIENTED_EDGE('',*,*,#509,.F.);
#662=ORIENTED_EDGE('',*,*,#510,.T.);
#663=ORIENTED_EDGE('',*,*,#495,.F.);
#664=ORIENTED_EDGE('',*,*,#507,.F.);
#665=ORIENTED_EDGE('',*,*,#511,.F.);
#666=ORIENTED_EDGE('',*,*,#512,.F.);
#667=ORIENTED_EDGE('',*,*,#508,.T.);
#668=ORIENTED_EDGE('',*,*,#513,.T.);
#669=ORIENTED_EDGE('',*,*,#497,.T.);
#670=ORIENTED_EDGE('',*,*,#514,.T.);
#671=ORIENTED_EDGE('',*,*,#515,.T.);
#672=ORIENTED_EDGE('',*,*,#513,.F.);
#673=ORIENTED_EDGE('',*,*,#516,.F.);
#674=ORIENTED_EDGE('',*,*,#517,.F.);
#675=ORIENTED_EDGE('',*,*,#486,.T.);
#676=ORIENTED_EDGE('',*,*,#498,.F.);
#677=ORIENTED_EDGE('',*,*,#518,.T.);
#678=ORIENTED_EDGE('',*,*,#519,.T.);
#679=ORIENTED_EDGE('',*,*,#520,.T.);
#680=ORIENTED_EDGE('',*,*,#519,.F.);
#681=ORIENTED_EDGE('',*,*,#520,.F.);
#682=ORIENTED_EDGE('',*,*,#474,.T.);
#683=ORIENTED_EDGE('',*,*,#521,.T.);
#684=ORIENTED_EDGE('',*,*,#479,.T.);
#685=ORIENTED_EDGE('',*,*,#522,.T.);
#686=ORIENTED_EDGE('',*,*,#523,.T.);
#687=ORIENTED_EDGE('',*,*,#524,.T.);
#688=ORIENTED_EDGE('',*,*,#525,.T.);
#689=ORIENTED_EDGE('',*,*,#466,.T.);
#690=ORIENTED_EDGE('',*,*,#526,.T.);
#691=ORIENTED_EDGE('',*,*,#527,.T.);
#692=ORIENTED_EDGE('',*,*,#450,.T.);
#693=ORIENTED_EDGE('',*,*,#472,.T.);
#694=ORIENTED_EDGE('',*,*,#528,.F.);
#695=ORIENTED_EDGE('',*,*,#529,.F.);
#696=ORIENTED_EDGE('',*,*,#530,.F.);
#697=ORIENTED_EDGE('',*,*,#531,.T.);
#698=ORIENTED_EDGE('',*,*,#518,.F.);
#699=ORIENTED_EDGE('',*,*,#531,.F.);
#700=ORIENTED_EDGE('',*,*,#532,.F.);
#701=ORIENTED_EDGE('',*,*,#533,.T.);
#702=ORIENTED_EDGE('',*,*,#534,.T.);
#703=ORIENTED_EDGE('',*,*,#535,.T.);
#704=ORIENTED_EDGE('',*,*,#534,.F.);
#705=ORIENTED_EDGE('',*,*,#535,.F.);
#706=ORIENTED_EDGE('',*,*,#512,.T.);
#707=ORIENTED_EDGE('',*,*,#536,.T.);
#708=ORIENTED_EDGE('',*,*,#537,.T.);
#709=ORIENTED_EDGE('',*,*,#538,.T.);
#710=ORIENTED_EDGE('',*,*,#503,.T.);
#711=ORIENTED_EDGE('',*,*,#539,.T.);
#712=ORIENTED_EDGE('',*,*,#540,.T.);
#713=ORIENTED_EDGE('',*,*,#487,.T.);
#714=ORIENTED_EDGE('',*,*,#517,.T.);
#715=ORIENTED_EDGE('',*,*,#541,.T.);
#716=ORIENTED_EDGE('',*,*,#542,.T.);
#717=ORIENTED_EDGE('',*,*,#509,.T.);
#718=ORIENTED_EDGE('',*,*,#543,.F.);
#719=ORIENTED_EDGE('',*,*,#544,.F.);
#720=ORIENTED_EDGE('',*,*,#545,.T.);
#721=ORIENTED_EDGE('',*,*,#533,.F.);
#722=ORIENTED_EDGE('',*,*,#545,.F.);
#723=ORIENTED_EDGE('',*,*,#546,.T.);
#724=ORIENTED_EDGE('',*,*,#547,.T.);
#725=ORIENTED_EDGE('',*,*,#548,.T.);
#726=ORIENTED_EDGE('',*,*,#549,.T.);
#727=ORIENTED_EDGE('',*,*,#547,.F.);
#728=ORIENTED_EDGE('',*,*,#530,.T.);
#729=ORIENTED_EDGE('',*,*,#550,.T.);
#730=ORIENTED_EDGE('',*,*,#548,.F.);
#731=ORIENTED_EDGE('',*,*,#549,.F.);
#732=ORIENTED_EDGE('',*,*,#550,.F.);
#733=ORIENTED_EDGE('',*,*,#529,.T.);
#734=ORIENTED_EDGE('',*,*,#544,.T.);
#735=ORIENTED_EDGE('',*,*,#546,.F.);
#736=ORIENTED_EDGE('',*,*,#551,.T.);
#737=ORIENTED_EDGE('',*,*,#552,.T.);
#738=ORIENTED_EDGE('',*,*,#553,.T.);
#739=ORIENTED_EDGE('',*,*,#554,.T.);
#740=ORIENTED_EDGE('',*,*,#555,.T.);
#741=ORIENTED_EDGE('',*,*,#553,.F.);
#742=ORIENTED_EDGE('',*,*,#555,.F.);
#743=ORIENTED_EDGE('',*,*,#556,.T.);
#744=ORIENTED_EDGE('',*,*,#532,.T.);
#745=ORIENTED_EDGE('',*,*,#543,.T.);
#746=ORIENTED_EDGE('',*,*,#528,.T.);
#747=ORIENTED_EDGE('',*,*,#556,.F.);
#748=ORIENTED_EDGE('',*,*,#554,.F.);
#749=ORIENTED_EDGE('',*,*,#552,.F.);
#750=ORIENTED_EDGE('',*,*,#557,.T.);
#751=ORIENTED_EDGE('',*,*,#558,.F.);
#752=ORIENTED_EDGE('',*,*,#559,.T.);
#753=ORIENTED_EDGE('',*,*,#560,.F.);
#754=ORIENTED_EDGE('',*,*,#559,.F.);
#755=ORIENTED_EDGE('',*,*,#561,.F.);
#756=ORIENTED_EDGE('',*,*,#558,.T.);
#757=ORIENTED_EDGE('',*,*,#562,.F.);
#758=ORIENTED_EDGE('',*,*,#560,.T.);
#759=ORIENTED_EDGE('',*,*,#562,.T.);
#760=ORIENTED_EDGE('',*,*,#563,.T.);
#761=ORIENTED_EDGE('',*,*,#557,.F.);
#762=ORIENTED_EDGE('',*,*,#563,.F.);
#763=ORIENTED_EDGE('',*,*,#551,.F.);
#764=ORIENTED_EDGE('',*,*,#564,.T.);
#765=ORIENTED_EDGE('',*,*,#561,.T.);
#766=ORIENTED_EDGE('',*,*,#564,.F.);
#767=ORIENTED_EDGE('',*,*,#469,.F.);
#768=ORIENTED_EDGE('',*,*,#459,.F.);
#769=ORIENTED_EDGE('',*,*,#480,.F.);
#770=ORIENTED_EDGE('',*,*,#521,.F.);
#771=ORIENTED_EDGE('',*,*,#473,.T.);
#772=ORIENTED_EDGE('',*,*,#477,.F.);
#773=ORIENTED_EDGE('',*,*,#565,.F.);
#774=ORIENTED_EDGE('',*,*,#522,.F.);
#775=ORIENTED_EDGE('',*,*,#478,.T.);
#776=ORIENTED_EDGE('',*,*,#476,.F.);
#777=ORIENTED_EDGE('',*,*,#456,.F.);
#778=ORIENTED_EDGE('',*,*,#566,.F.);
#779=ORIENTED_EDGE('',*,*,#523,.F.);
#780=ORIENTED_EDGE('',*,*,#565,.T.);
#781=ORIENTED_EDGE('',*,*,#462,.F.);
#782=ORIENTED_EDGE('',*,*,#567,.F.);
#783=ORIENTED_EDGE('',*,*,#524,.F.);
#784=ORIENTED_EDGE('',*,*,#566,.T.);
#785=ORIENTED_EDGE('',*,*,#455,.F.);
#786=ORIENTED_EDGE('',*,*,#464,.F.);
#787=ORIENTED_EDGE('',*,*,#467,.F.);
#788=ORIENTED_EDGE('',*,*,#525,.F.);
#789=ORIENTED_EDGE('',*,*,#567,.T.);
#790=ORIENTED_EDGE('',*,*,#444,.F.);
#791=ORIENTED_EDGE('',*,*,#568,.F.);
#792=ORIENTED_EDGE('',*,*,#526,.F.);
#793=ORIENTED_EDGE('',*,*,#465,.T.);
#794=ORIENTED_EDGE('',*,*,#452,.F.);
#795=ORIENTED_EDGE('',*,*,#447,.F.);
#796=ORIENTED_EDGE('',*,*,#451,.F.);
#797=ORIENTED_EDGE('',*,*,#527,.F.);
#798=ORIENTED_EDGE('',*,*,#568,.T.);
#799=ORIENTED_EDGE('',*,*,#506,.F.);
#800=ORIENTED_EDGE('',*,*,#493,.F.);
#801=ORIENTED_EDGE('',*,*,#569,.F.);
#802=ORIENTED_EDGE('',*,*,#536,.F.);
#803=ORIENTED_EDGE('',*,*,#511,.T.);
#804=ORIENTED_EDGE('',*,*,#499,.F.);
#805=ORIENTED_EDGE('',*,*,#570,.F.);
#806=ORIENTED_EDGE('',*,*,#537,.F.);
#807=ORIENTED_EDGE('',*,*,#569,.T.);
#808=ORIENTED_EDGE('',*,*,#492,.F.);
#809=ORIENTED_EDGE('',*,*,#501,.F.);
#810=ORIENTED_EDGE('',*,*,#504,.F.);
#811=ORIENTED_EDGE('',*,*,#538,.F.);
#812=ORIENTED_EDGE('',*,*,#570,.T.);
#813=ORIENTED_EDGE('',*,*,#481,.F.);
#814=ORIENTED_EDGE('',*,*,#571,.F.);
#815=ORIENTED_EDGE('',*,*,#539,.F.);
#816=ORIENTED_EDGE('',*,*,#502,.T.);
#817=ORIENTED_EDGE('',*,*,#489,.F.);
#818=ORIENTED_EDGE('',*,*,#484,.F.);
#819=ORIENTED_EDGE('',*,*,#488,.F.);
#820=ORIENTED_EDGE('',*,*,#540,.F.);
#821=ORIENTED_EDGE('',*,*,#571,.T.);
#822=ORIENTED_EDGE('',*,*,#515,.F.);
#823=ORIENTED_EDGE('',*,*,#572,.F.);
#824=ORIENTED_EDGE('',*,*,#541,.F.);
#825=ORIENTED_EDGE('',*,*,#516,.T.);
#826=ORIENTED_EDGE('',*,*,#514,.F.);
#827=ORIENTED_EDGE('',*,*,#496,.F.);
#828=ORIENTED_EDGE('',*,*,#510,.F.);
#829=ORIENTED_EDGE('',*,*,#542,.F.);
#830=ORIENTED_EDGE('',*,*,#572,.T.);
#831=TOROIDAL_SURFACE('',#908,2.,0.4);
#832=TOROIDAL_SURFACE('',#916,2.,0.4);
#833=TOROIDAL_SURFACE('',#919,2.,0.4);
#834=TOROIDAL_SURFACE('',#924,2.,0.4);
#835=TOROIDAL_SURFACE('',#927,2.,0.4);
#836=TOROIDAL_SURFACE('',#935,2.,0.4);
#837=TOROIDAL_SURFACE('',#938,2.,0.4);
#838=TOROIDAL_SURFACE('',#943,2.,0.4);
#839=TOROIDAL_SURFACE('',#946,3.5,0.1);
#840=TOROIDAL_SURFACE('',#959,3.5,0.1);
#841=TOROIDAL_SURFACE('',#970,3.5,0.1);
#842=TOROIDAL_SURFACE('',#978,3.5,0.1);
#843=ADVANCED_FACE('',(#192),#831,.T.);
#844=ADVANCED_FACE('',(#193),#168,.T.);
#845=ADVANCED_FACE('',(#194),#169,.T.);
#846=ADVANCED_FACE('',(#195),#832,.T.);
#847=ADVANCED_FACE('',(#196),#170,.T.);
#848=ADVANCED_FACE('',(#197),#833,.T.);
#849=ADVANCED_FACE('',(#198),#171,.T.);
#850=ADVANCED_FACE('',(#199),#27,.T.);
#851=ADVANCED_FACE('',(#200),#834,.T.);
#852=ADVANCED_FACE('',(#201),#172,.T.);
#853=ADVANCED_FACE('',(#202),#835,.T.);
#854=ADVANCED_FACE('',(#203),#173,.T.);
#855=ADVANCED_FACE('',(#204),#174,.T.);
#856=ADVANCED_FACE('',(#205),#836,.T.);
#857=ADVANCED_FACE('',(#206),#175,.T.);
#858=ADVANCED_FACE('',(#207),#837,.T.);
#859=ADVANCED_FACE('',(#208),#176,.T.);
#860=ADVANCED_FACE('',(#209),#28,.T.);
#861=ADVANCED_FACE('',(#210),#838,.T.);
#862=ADVANCED_FACE('',(#211),#177,.T.);
#863=ADVANCED_FACE('',(#212),#839,.T.);
#864=ADVANCED_FACE('',(#213,#21),#178,.T.);
#865=ADVANCED_FACE('',(#214),#29,.T.);
#866=ADVANCED_FACE('',(#215),#840,.T.);
#867=ADVANCED_FACE('',(#216,#22),#179,.T.);
#868=ADVANCED_FACE('',(#217),#30,.T.);
#869=ADVANCED_FACE('',(#218),#841,.T.);
#870=ADVANCED_FACE('',(#219),#31,.T.);
#871=ADVANCED_FACE('',(#220,#23),#180,.F.);
#872=ADVANCED_FACE('',(#221),#842,.T.);
#873=ADVANCED_FACE('',(#222),#32,.T.);
#874=ADVANCED_FACE('',(#223,#24),#181,.T.);
#875=ADVANCED_FACE('',(#224),#33,.F.);
#876=ADVANCED_FACE('',(#225,#25),#182,.F.);
#877=ADVANCED_FACE('',(#226,#26),#183,.T.);
#878=ADVANCED_FACE('',(#227),#34,.F.);
#879=ADVANCED_FACE('',(#228),#35,.F.);
#880=ADVANCED_FACE('',(#229),#184,.T.);
#881=ADVANCED_FACE('',(#230),#36,.T.);
#882=ADVANCED_FACE('',(#231),#185,.T.);
#883=ADVANCED_FACE('',(#232),#186,.T.);
#884=ADVANCED_FACE('',(#233),#37,.T.);
#885=ADVANCED_FACE('',(#234),#187,.T.);
#886=ADVANCED_FACE('',(#235),#38,.T.);
#887=ADVANCED_FACE('',(#236),#188,.T.);
#888=ADVANCED_FACE('',(#237),#189,.T.);
#889=ADVANCED_FACE('',(#238),#39,.T.);
#890=ADVANCED_FACE('',(#239),#190,.T.);
#891=ADVANCED_FACE('',(#240),#40,.T.);
#892=ADVANCED_FACE('',(#241),#41,.T.);
#893=ADVANCED_FACE('',(#242),#191,.T.);
#894=CLOSED_SHELL('',(#843,#844,#845,#846,#847,#848,#849,#850,#851,#852,
#853,#854,#855,#856,#857,#858,#859,#860,#861,#862,#863,#864,#865,#866,#867,
#868,#869,#870,#871,#872,#873,#874,#875,#876,#877,#878,#879,#880,#881,#882,
#883,#884,#885,#886,#887,#888,#889,#890,#891,#892,#893));
#895=DERIVED_UNIT_ELEMENT(#897,1.);
#896=DERIVED_UNIT_ELEMENT(#1690,-3.);
#897=(
MASS_UNIT()
NAMED_UNIT(*)
SI_UNIT(.KILO.,.GRAM.)
);
#898=DERIVED_UNIT((#895,#896));
#899=MEASURE_REPRESENTATION_ITEM('density measure',
POSITIVE_RATIO_MEASURE(1060.),#898);
#900=PROPERTY_DEFINITION_REPRESENTATION(#905,#902);
#901=PROPERTY_DEFINITION_REPRESENTATION(#906,#903);
#902=REPRESENTATION('material name',(#904),#1687);
#903=REPRESENTATION('density',(#899),#1687);
#904=DESCRIPTIVE_REPRESENTATION_ITEM('ABS Plastic','ABS Plastic');
#905=PROPERTY_DEFINITION('material property','material name',#1697);
#906=PROPERTY_DEFINITION('material property','density of part',#1697);
#907=AXIS2_PLACEMENT_3D('',#1276,#1009,#1010);
#908=AXIS2_PLACEMENT_3D('',#1277,#1011,#1012);
#909=AXIS2_PLACEMENT_3D('',#1291,#1013,#1014);
#910=AXIS2_PLACEMENT_3D('',#1303,#1015,#1016);
#911=AXIS2_PLACEMENT_3D('',#1304,#1017,#1018);
#912=AXIS2_PLACEMENT_3D('',#1312,#1023,#1024);
#913=AXIS2_PLACEMENT_3D('',#1318,#1027,#1028);
#914=AXIS2_PLACEMENT_3D('',#1324,#1031,#1032);
#915=AXIS2_PLACEMENT_3D('',#1330,#1035,#1036);
#916=AXIS2_PLACEMENT_3D('',#1332,#1038,#1039);
#917=AXIS2_PLACEMENT_3D('',#1355,#1040,#1041);
#918=AXIS2_PLACEMENT_3D('',#1356,#1042,#1043);
#919=AXIS2_PLACEMENT_3D('',#1362,#1047,#1048);
#920=AXIS2_PLACEMENT_3D('',#1385,#1049,#1050);
#921=AXIS2_PLACEMENT_3D('',#1386,#1051,#1052);
#922=AXIS2_PLACEMENT_3D('',#1390,#1055,#1056);
#923=AXIS2_PLACEMENT_3D('',#1393,#1058,#1059);
#924=AXIS2_PLACEMENT_3D('',#1394,#1060,#1061);
#925=AXIS2_PLACEMENT_3D('',#1417,#1062,#1063);
#926=AXIS2_PLACEMENT_3D('',#1418,#1064,#1065);
#927=AXIS2_PLACEMENT_3D('',#1424,#1069,#1070);
#928=AXIS2_PLACEMENT_3D('',#1438,#1071,#1072);
#929=AXIS2_PLACEMENT_3D('',#1450,#1073,#1074);
#930=AXIS2_PLACEMENT_3D('',#1451,#1075,#1076);
#931=AXIS2_PLACEMENT_3D('',#1459,#1081,#1082);
#932=AXIS2_PLACEMENT_3D('',#1465,#1085,#1086);
#933=AXIS2_PLACEMENT_3D('',#1471,#1089,#1090);
#934=AXIS2_PLACEMENT_3D('',#1477,#1093,#1094);
#935=AXIS2_PLACEMENT_3D('',#1479,#1096,#1097);
#936=AXIS2_PLACEMENT_3D('',#1502,#1098,#1099);
#937=AXIS2_PLACEMENT_3D('',#1503,#1100,#1101);
#938=AXIS2_PLACEMENT_3D('',#1509,#1105,#1106);
#939=AXIS2_PLACEMENT_3D('',#1532,#1107,#1108);
#940=AXIS2_PLACEMENT_3D('',#1533,#1109,#1110);
#941=AXIS2_PLACEMENT_3D('',#1539,#1114,#1115);
#942=AXIS2_PLACEMENT_3D('',#1542,#1117,#1118);
#943=AXIS2_PLACEMENT_3D('',#1543,#1119,#1120);
#944=AXIS2_PLACEMENT_3D('',#1566,#1121,#1122);
#945=AXIS2_PLACEMENT_3D('',#1567,#1123,#1124);
#946=AXIS2_PLACEMENT_3D('',#1571,#1127,#1128);
#947=AXIS2_PLACEMENT_3D('',#1573,#1129,#1130);
#948=AXIS2_PLACEMENT_3D('',#1575,#1131,#1132);
#949=AXIS2_PLACEMENT_3D('',#1576,#1133,#1134);
#950=AXIS2_PLACEMENT_3D('',#1577,#1135,#1136);
#951=AXIS2_PLACEMENT_3D('',#1580,#1138,#1139);
#952=AXIS2_PLACEMENT_3D('',#1585,#1142,#1143);
#953=AXIS2_PLACEMENT_3D('',#1588,#1145,#1146);
#954=AXIS2_PLACEMENT_3D('',#1589,#1147,#1148);
#955=AXIS2_PLACEMENT_3D('',#1592,#1149,#1150);
#956=AXIS2_PLACEMENT_3D('',#1594,#1151,#1152);
#957=AXIS2_PLACEMENT_3D('',#1596,#1153,#1154);
#958=AXIS2_PLACEMENT_3D('',#1598,#1156,#1157);
#959=AXIS2_PLACEMENT_3D('',#1599,#1158,#1159);
#960=AXIS2_PLACEMENT_3D('',#1601,#1160,#1161);
#961=AXIS2_PLACEMENT_3D('',#1603,#1162,#1163);
#962=AXIS2_PLACEMENT_3D('',#1604,#1164,#1165);
#963=AXIS2_PLACEMENT_3D('',#1605,#1166,#1167);
#964=AXIS2_PLACEMENT_3D('',#1610,#1170,#1171);
#965=AXIS2_PLACEMENT_3D('',#1613,#1173,#1174);
#966=AXIS2_PLACEMENT_3D('',#1615,#1175,#1176);
#967=AXIS2_PLACEMENT_3D('',#1617,#1178,#1179);
#968=AXIS2_PLACEMENT_3D('',#1618,#1180,#1181);
#969=AXIS2_PLACEMENT_3D('',#1619,#1182,#1183);
#970=AXIS2_PLACEMENT_3D('',#1621,#1185,#1186);
#971=AXIS2_PLACEMENT_3D('',#1623,#1187,#1188);
#972=AXIS2_PLACEMENT_3D('',#1625,#1189,#1190);
#973=AXIS2_PLACEMENT_3D('',#1627,#1191,#1192);
#974=AXIS2_PLACEMENT_3D('',#1628,#1193,#1194);
#975=AXIS2_PLACEMENT_3D('',#1629,#1195,#1196);
#976=AXIS2_PLACEMENT_3D('',#1631,#1198,#1199);
#977=AXIS2_PLACEMENT_3D('',#1633,#1200,#1201);
#978=AXIS2_PLACEMENT_3D('',#1634,#1202,#1203);
#979=AXIS2_PLACEMENT_3D('',#1636,#1204,#1205);
#980=AXIS2_PLACEMENT_3D('',#1638,#1206,#1207);
#981=AXIS2_PLACEMENT_3D('',#1640,#1208,#1209);
#982=AXIS2_PLACEMENT_3D('',#1641,#1210,#1211);
#983=AXIS2_PLACEMENT_3D('',#1642,#1212,#1213);
#984=AXIS2_PLACEMENT_3D('',#1644,#1215,#1216);
#985=AXIS2_PLACEMENT_3D('',#1646,#1217,#1218);
#986=AXIS2_PLACEMENT_3D('',#1647,#1219,#1220);
#987=AXIS2_PLACEMENT_3D('',#1649,#1221,#1222);
#988=AXIS2_PLACEMENT_3D('',#1652,#1224,#1225);
#989=AXIS2_PLACEMENT_3D('',#1653,#1226,#1227);
#990=AXIS2_PLACEMENT_3D('',#1655,#1228,#1229);
#991=AXIS2_PLACEMENT_3D('',#1656,#1230,#1231);
#992=AXIS2_PLACEMENT_3D('',#1658,#1232,#1233);
#993=AXIS2_PLACEMENT_3D('',#1659,#1234,#1235);
#994=AXIS2_PLACEMENT_3D('',#1661,#1237,#1238);
#995=AXIS2_PLACEMENT_3D('',#1663,#1240,#1241);
#996=AXIS2_PLACEMENT_3D('',#1664,#1242,#1243);
#997=AXIS2_PLACEMENT_3D('',#1666,#1245,#1246);
#998=AXIS2_PLACEMENT_3D('',#1668,#1248,#1249);
#999=AXIS2_PLACEMENT_3D('',#1670,#1251,#1252);
#1000=AXIS2_PLACEMENT_3D('',#1671,#1253,#1254);
#1001=AXIS2_PLACEMENT_3D('',#1673,#1256,#1257);
#1002=AXIS2_PLACEMENT_3D('',#1674,#1258,#1259);
#1003=AXIS2_PLACEMENT_3D('',#1676,#1261,#1262);
#1004=AXIS2_PLACEMENT_3D('',#1678,#1264,#1265);
#1005=AXIS2_PLACEMENT_3D('',#1679,#1266,#1267);
#1006=AXIS2_PLACEMENT_3D('',#1681,#1269,#1270);
#1007=AXIS2_PLACEMENT_3D('',#1682,#1271,#1272);
#1008=AXIS2_PLACEMENT_3D('',#1684,#1274,#1275);
#1009=DIRECTION('axis',(0.,0.,1.));
#1010=DIRECTION('refdir',(1.,0.,0.));
#1011=DIRECTION('center_axis',(-1.,5.55111512312578E-17,-7.39557098644699E-32));
#1012=DIRECTION('ref_axis',(0.,0.,-1.));
#1013=DIRECTION('center_axis',(1.,-5.55111512312578E-17,7.39557098644699E-32));
#1014=DIRECTION('ref_axis',(7.82569534069347E-32,7.74843152602974E-17,-1.));
#1015=DIRECTION('center_axis',(-1.,5.55111512312578E-17,-7.39557098644699E-32));
#1016=DIRECTION('ref_axis',(7.82569534069347E-32,7.74843152602974E-17,-1.));
#1017=DIRECTION('center_axis',(5.88626432340352E-34,1.,-5.69251063659738E-16));
#1018=DIRECTION('ref_axis',(7.39557098644699E-32,-5.69251063659738E-16,
-1.));
#1019=DIRECTION('',(7.39557098644699E-32,-5.69251063659738E-16,-1.));
#1020=DIRECTION('',(-1.,-5.4228401859291E-48,-1.03403659635882E-18));
#1021=DIRECTION('',(-7.39557098644699E-32,5.69251063659738E-16,1.));
#1022=DIRECTION('',(-1.,-5.4228401859291E-48,-1.03403659635882E-18));
#1023=DIRECTION('center_axis',(-1.,5.55111512312578E-17,-7.39557098644699E-32));
#1024=DIRECTION('ref_axis',(-7.39557098644699E-32,-4.93038065763132E-32,
1.));
#1025=DIRECTION('',(-4.93038065763132E-32,-5.69251063659738E-16,1.));
#1026=DIRECTION('',(-1.64214663788065E-47,-1.,2.84625531829869E-16));
#1027=DIRECTION('center_axis',(1.,-5.55111512312578E-17,7.39557098644699E-32));
#1028=DIRECTION('ref_axis',(-5.55111512312578E-17,-1.,-5.45496666440906E-17));
#1029=DIRECTION('',(-6.0212043388957E-47,1.,7.59001418212984E-16));
#1030=DIRECTION('',(-7.39557098644699E-32,4.74375886383115E-16,1.));
#1031=DIRECTION('center_axis',(1.,-5.55111512312578E-17,7.39557098644699E-32));
#1032=DIRECTION('ref_axis',(-1.12987890070718E-31,-7.03141248929264E-16,
1.));
#1033=DIRECTION('',(7.39557098644699E-32,6.6412624093636E-16,-1.));
#1034=DIRECTION('',(-5.4738221262688E-48,1.,4.93038065763132E-32));
#1035=DIRECTION('center_axis',(1.,-5.55111512312578E-17,7.39557098644699E-32));
#1036=DIRECTION('ref_axis',(5.55111512312578E-17,1.,6.10985650876967E-17));
#1037=DIRECTION('',(3.83167548838817E-47,-1.,-3.79500709106492E-16));
#1038=DIRECTION('center_axis',(-1.,5.55111512312578E-17,-7.39557098644699E-32));
#1039=DIRECTION('ref_axis',(0.,0.,1.));
#1040=DIRECTION('center_axis',(-1.,5.55111512312578E-17,-7.39557098644699E-32));
#1041=DIRECTION('ref_axis',(-5.55111512312578E-17,-1.,-5.45496666440907E-17));
#1042=DIRECTION('center_axis',(1.03403659635882E-18,-2.84625531829869E-16,
-1.));
#1043=DIRECTION('ref_axis',(-1.64214663788065E-47,-1.,2.84625531829869E-16));
#1044=DIRECTION('',(-1.,-5.4228401859291E-48,-1.03403659635882E-18));
#1045=DIRECTION('',(1.64214663788065E-47,1.,-2.84625531829869E-16));
#1046=DIRECTION('',(-1.,-5.4228401859291E-48,-1.03403659635882E-18));
#1047=DIRECTION('center_axis',(-1.,5.55111512312578E-17,-7.39557098644699E-32));
#1048=DIRECTION('ref_axis',(0.,0.,1.));
#1049=DIRECTION('center_axis',(-1.,5.55111512312578E-17,-7.39557098644699E-32));
#1050=DIRECTION('ref_axis',(5.55111512312578E-17,1.,6.10985650876967E-17));
#1051=DIRECTION('center_axis',(1.03403659635882E-18,3.79500709106492E-16,
-1.));
#1052=DIRECTION('ref_axis',(3.83167548838817E-47,-1.,-3.79500709106492E-16));
#1053=DIRECTION('',(-1.,-5.4228401859291E-48,-1.03403659635882E-18));
#1054=DIRECTION('',(-3.83167548838817E-47,1.,3.79500709106492E-16));
#1055=DIRECTION('center_axis',(-1.,-5.4228401859291E-48,-1.03403659635882E-18));
#1056=DIRECTION('ref_axis',(-3.4467886545294E-19,0.942809041582063,0.333333333333333));
#1057=DIRECTION('',(-1.,-5.4228401859291E-48,-1.03403659635882E-18));
#1058=DIRECTION('center_axis',(1.,5.4738221262688E-48,7.39557098644699E-32));
#1059=DIRECTION('ref_axis',(-2.46519032881566E-32,0.942809041582063,0.333333333333333));
#1060=DIRECTION('center_axis',(-1.,5.55111512312578E-17,-7.39557098644699E-32));
#1061=DIRECTION('ref_axis',(0.,0.,1.));
#1062=DIRECTION('center_axis',(-1.,5.55111512312578E-17,-7.39557098644699E-32));
#1063=DIRECTION('ref_axis',(-1.12987890070718E-31,-7.03141248929264E-16,
1.));
#1064=DIRECTION('center_axis',(-6.8673083773042E-34,1.,6.6412624093636E-16));
#1065=DIRECTION('ref_axis',(7.39557098644699E-32,6.6412624093636E-16,-1.));
#1066=DIRECTION('',(-1.,-5.4228401859291E-48,-1.03403659635882E-18));
#1067=DIRECTION('',(-7.39557098644699E-32,-6.6412624093636E-16,1.));
#1068=DIRECTION('',(-1.,-5.4228401859291E-48,-1.03403659635882E-18));
#1069=DIRECTION('center_axis',(1.,5.55111512312578E-17,-1.22464679914735E-16));
#1070=DIRECTION('ref_axis',(0.,0.,-1.));
#1071=DIRECTION('center_axis',(-1.,-5.55111512312578E-17,1.22464679914735E-16));
#1072=DIRECTION('ref_axis',(5.55111512312578E-17,-1.,3.08077916929379E-17));
#1073=DIRECTION('center_axis',(1.,5.55111512312578E-17,-1.22464679914735E-16));
#1074=DIRECTION('ref_axis',(5.55111512312578E-17,-1.,3.08077916929379E-17));
#1075=DIRECTION('center_axis',(1.21430643318376E-16,-2.84625531829869E-16,
1.));
#1076=DIRECTION('ref_axis',(-3.48565746511062E-32,-1.,-2.84625531829869E-16));
#1077=DIRECTION('',(-3.48565746511062E-32,-1.,-2.84625531829869E-16));
#1078=DIRECTION('',(1.,1.14608150768753E-47,-1.21430643318376E-16));
#1079=DIRECTION('',(3.48565746511062E-32,1.,2.84625531829869E-16));
#1080=DIRECTION('',(1.,1.14608150768753E-47,-1.21430643318376E-16));
#1081=DIRECTION('center_axis',(1.,5.55111512312578E-17,-1.22464679914735E-16));
#1082=DIRECTION('ref_axis',(-1.22464679914735E-16,4.93038065763132E-32,
-1.));
#1083=DIRECTION('',(-9.29508657362832E-32,1.,-7.59001418212984E-16));
#1084=DIRECTION('',(-1.22464679914735E-16,4.74375886383115E-16,-1.));
#1085=DIRECTION('center_axis',(-1.,-5.55111512312578E-17,1.22464679914735E-16));
#1086=DIRECTION('ref_axis',(-1.22464679914735E-16,-7.03141248929264E-16,
-1.));
#1087=DIRECTION('',(1.22464679914735E-16,6.6412624093636E-16,1.));
#1088=DIRECTION('',(-5.4738221262688E-48,1.,4.93038065763132E-32));
#1089=DIRECTION('center_axis',(-1.,-5.55111512312578E-17,1.22464679914735E-16));
#1090=DIRECTION('ref_axis',(-5.55111512312578E-17,1.,-8.48404400388493E-17));
#1091=DIRECTION('',(4.64754328681416E-32,-1.,3.79500709106492E-16));
#1092=DIRECTION('',(1.22464679914735E-16,-5.69251063659738E-16,1.));
#1093=DIRECTION('center_axis',(-1.,-5.55111512312578E-17,1.22464679914735E-16));
#1094=DIRECTION('ref_axis',(1.22464679914735E-16,7.74843152602974E-17,1.));
#1095=DIRECTION('',(-1.22464679914735E-16,-5.69251063659738E-16,-1.));
#1096=DIRECTION('center_axis',(1.,5.55111512312578E-17,-1.22464679914735E-16));
#1097=DIRECTION('ref_axis',(0.,0.,-1.));
#1098=DIRECTION('center_axis',(1.,5.55111512312578E-17,-1.22464679914735E-16));
#1099=DIRECTION('ref_axis',(-1.22464679914735E-16,-7.03141248929264E-16,
-1.));
#1100=DIRECTION('center_axis',(-5.76037690582267E-32,-1.,-4.74375886383115E-16));
#1101=DIRECTION('ref_axis',(-1.22464679914735E-16,4.74375886383115E-16,
-1.));
#1102=DIRECTION('',(1.,1.14608150768753E-47,-1.21430643318376E-16));
#1103=DIRECTION('',(1.22464679914735E-16,-4.74375886383115E-16,1.));
#1104=DIRECTION('',(1.,1.14608150768753E-47,-1.21430643318376E-16));
#1105=DIRECTION('center_axis',(1.,5.55111512312578E-17,-1.22464679914735E-16));
#1106=DIRECTION('ref_axis',(0.,0.,-1.));
#1107=DIRECTION('center_axis',(1.,5.55111512312578E-17,-1.22464679914735E-16));
#1108=DIRECTION('ref_axis',(-5.55111512312578E-17,1.,-8.48404400388492E-17));
#1109=DIRECTION('center_axis',(1.21430643318376E-16,3.79500709106492E-16,
1.));
#1110=DIRECTION('ref_axis',(4.64754328681416E-32,-1.,3.79500709106492E-16));
#1111=DIRECTION('',(1.,1.14608150768753E-47,-1.21430643318376E-16));
#1112=DIRECTION('',(-4.64754328681416E-32,1.,-3.79500709106492E-16));
#1113=DIRECTION('',(1.,1.14608150768753E-47,-1.21430643318376E-16));
#1114=DIRECTION('center_axis',(1.,1.14608150768753E-47,-1.21430643318376E-16));
#1115=DIRECTION('ref_axis',(-4.04768811061253E-17,0.942809041582063,-0.333333333333333));
#1116=DIRECTION('',(1.,1.14608150768753E-47,-1.21430643318376E-16));
#1117=DIRECTION('center_axis',(-1.,-1.1511797017215E-47,1.22464679914735E-16));
#1118=DIRECTION('ref_axis',(-4.08215599715783E-17,0.942809041582063,-0.333333333333333));
#1119=DIRECTION('center_axis',(1.,5.55111512312578E-17,-1.22464679914735E-16));
#1120=DIRECTION('ref_axis',(0.,0.,1.));
#1121=DIRECTION('center_axis',(1.,5.55111512312578E-17,-1.22464679914735E-16));
#1122=DIRECTION('ref_axis',(1.22464679914735E-16,7.74843152602973E-17,1.));
#1123=DIRECTION('center_axis',(6.9124522869872E-32,-1.,5.69251063659738E-16));
#1124=DIRECTION('ref_axis',(-1.22464679914735E-16,-5.69251063659738E-16,
-1.));
#1125=DIRECTION('',(1.,1.14608150768753E-47,-1.21430643318376E-16));
#1126=DIRECTION('',(1.22464679914735E-16,5.69251063659738E-16,1.));
#1127=DIRECTION('center_axis',(1.,5.4738221262688E-48,7.39557098644699E-32));
#1128=DIRECTION('ref_axis',(0.,0.,-1.));
#1129=DIRECTION('center_axis',(-1.,-5.4738221262688E-48,-7.39557098644699E-32));
#1130=DIRECTION('ref_axis',(-7.39557098644699E-32,1.22464679914735E-16,
1.));
#1131=DIRECTION('center_axis',(5.4738221262688E-48,-1.,0.));
#1132=DIRECTION('ref_axis',(0.,0.,1.));
#1133=DIRECTION('center_axis',(1.,5.4738221262688E-48,7.39557098644699E-32));
#1134=DIRECTION('ref_axis',(-7.39557098644699E-32,1.22464679914735E-16,
1.));
#1135=DIRECTION('center_axis',(-1.,-5.4738221262688E-48,-7.39557098644699E-32));
#1136=DIRECTION('ref_axis',(-7.39557098644699E-32,-4.93038065763132E-32,
1.));
#1137=DIRECTION('',(5.4738221262688E-48,-1.,-4.93038065763132E-32));
#1138=DIRECTION('center_axis',(1.,5.4738221262688E-48,7.39557098644699E-32));
#1139=DIRECTION('ref_axis',(-6.9726111936842E-32,-0.333333333333333,0.942809041582063));
#1140=DIRECTION('',(7.39557098644699E-32,-4.74375886383115E-16,-1.));
#1141=DIRECTION('',(6.0212043388957E-47,-1.,-7.59001418212984E-16));
#1142=DIRECTION('center_axis',(1.,5.4738221262688E-48,7.39557098644699E-32));
#1143=DIRECTION('ref_axis',(2.46519032881567E-32,-0.942809041582063,-0.333333333333334));
#1144=DIRECTION('',(7.39557098644699E-32,5.69251063659738E-16,-1.));
#1145=DIRECTION('center_axis',(1.,5.4738221262688E-48,7.39557098644699E-32));
#1146=DIRECTION('ref_axis',(6.9726111936842E-32,0.333333333333333,-0.942809041582063));
#1147=DIRECTION('center_axis',(1.,5.4738221262688E-48,7.39557098644699E-32));
#1148=DIRECTION('ref_axis',(7.39557098644699E-32,4.93038065763132E-32,-1.));
#1149=DIRECTION('center_axis',(0.707106781186547,0.707106781186548,3.4863055968421E-32));
#1150=DIRECTION('ref_axis',(-0.707106781186548,0.707106781186547,-1.74315279842105E-32));
#1151=DIRECTION('center_axis',(0.707106781186547,-0.707106781186548,-3.4863055968421E-32));
#1152=DIRECTION('ref_axis',(0.707106781186548,0.707106781186547,8.71576399210525E-32));
#1153=DIRECTION('center_axis',(0.707106781186547,-0.707106781186548,-3.4863055968421E-32));
#1154=DIRECTION('ref_axis',(0.707106781186548,0.707106781186547,8.71576399210525E-32));
#1155=DIRECTION('',(-1.,-5.4738221262688E-48,-7.39557098644699E-32));
#1156=DIRECTION('center_axis',(0.707106781186547,0.707106781186548,3.4863055968421E-32));
#1157=DIRECTION('ref_axis',(-0.707106781186548,0.707106781186547,-1.74315279842105E-32));
#1158=DIRECTION('center_axis',(-1.,-1.1511797017215E-47,1.22464679914735E-16));
#1159=DIRECTION('ref_axis',(1.2335811384724E-16,0.,1.));
#1160=DIRECTION('center_axis',(1.,1.1511797017215E-47,-1.22464679914735E-16));
#1161=DIRECTION('ref_axis',(-1.22464679914735E-16,1.22464679914735E-16,
-1.));
#1162=DIRECTION('center_axis',(1.1511797017215E-47,-1.,-1.7750919587949E-63));
#1163=DIRECTION('ref_axis',(-1.54197642309049E-16,0.,-1.));
#1164=DIRECTION('center_axis',(-1.,-1.1511797017215E-47,1.22464679914735E-16));
#1165=DIRECTION('ref_axis',(-1.22464679914735E-16,1.22464679914735E-16,
-1.));
#1166=DIRECTION('center_axis',(1.,1.1511797017215E-47,-1.22464679914735E-16));
#1167=DIRECTION('ref_axis',(-1.22464679914735E-16,4.93038065763132E-32,
-1.));
#1168=DIRECTION('',(5.4738221262688E-48,-1.,-4.93038065763132E-32));
#1169=DIRECTION('',(-1.22464679914735E-16,-6.6412624093636E-16,-1.));
#1170=DIRECTION('center_axis',(-1.,-1.1511797017215E-47,1.22464679914735E-16));
#1171=DIRECTION('ref_axis',(-1.15460807498065E-16,-0.333333333333333,-0.942809041582063));
#1172=DIRECTION('',(9.29508657362832E-32,-1.,7.59001418212984E-16));
#1173=DIRECTION('center_axis',(-1.,-1.1511797017215E-47,1.22464679914735E-16));
#1174=DIRECTION('ref_axis',(4.08215599715784E-17,-0.942809041582063,0.333333333333334));
#1175=DIRECTION('center_axis',(-1.,-1.1511797017215E-47,1.22464679914735E-16));
#1176=DIRECTION('ref_axis',(1.15460807498065E-16,0.333333333333333,0.942809041582063));
#1177=DIRECTION('',(-1.22464679914735E-16,5.69251063659738E-16,-1.));
#1178=DIRECTION('center_axis',(-1.,-1.1511797017215E-47,1.22464679914735E-16));
#1179=DIRECTION('ref_axis',(1.22464679914735E-16,-4.93038065763132E-32,
1.));
#1180=DIRECTION('center_axis',(-0.707106781186547,0.707106781186548,1.09034198519707E-16));
#1181=DIRECTION('ref_axis',(0.707106781186548,0.707106781186547,-8.65956056235493E-17));
#1182=DIRECTION('center_axis',(-0.707106781186547,-0.707106781186548,1.09034198519707E-16));
#1183=DIRECTION('ref_axis',(-0.707106781186548,0.707106781186547,8.65956056235494E-17));
#1184=DIRECTION('',(1.,1.1511797017215E-47,-1.22464679914735E-16));
#1185=DIRECTION('center_axis',(5.4738221262688E-48,-1.,-4.93038065763132E-32));
#1186=DIRECTION('ref_axis',(2.02572111909542E-63,0.,-1.));
#1187=DIRECTION('center_axis',(-5.4738221262688E-48,1.,4.93038065763132E-32));
#1188=DIRECTION('ref_axis',(1.,5.4738221262688E-48,2.20297171701626E-63));
#1189=DIRECTION('center_axis',(-1.,5.64152764677421E-49,-1.22464679914735E-16));
#1190=DIRECTION('ref_axis',(-1.22464679914735E-16,0.,1.));
#1191=DIRECTION('center_axis',(5.4738221262688E-48,-1.,-4.93038065763132E-32));
#1192=DIRECTION('ref_axis',(1.,5.4738221262688E-48,2.20297171701626E-63));
#1193=DIRECTION('center_axis',(5.4738221262688E-48,-1.,-4.93038065763132E-32));
#1194=DIRECTION('ref_axis',(1.,5.4738221262688E-48,2.20297171701626E-63));
#1195=DIRECTION('center_axis',(-5.4738221262688E-48,1.,4.93038065763132E-32));
#1196=DIRECTION('ref_axis',(1.,5.4738221262688E-48,2.20297171701626E-63));
#1197=DIRECTION('',(5.4738221262688E-48,-1.,-4.93038065763132E-32));
#1198=DIRECTION('center_axis',(-5.4738221262688E-48,1.,4.93038065763132E-32));
#1199=DIRECTION('ref_axis',(-2.20297171701626E-63,-4.93038065763132E-32,
1.));
#1200=DIRECTION('center_axis',(-5.4738221262688E-48,1.,4.93038065763132E-32));
#1201=DIRECTION('ref_axis',(1.,5.4738221262688E-48,2.20297171701626E-63));
#1202=DIRECTION('center_axis',(-5.4738221262688E-48,1.,4.93038065763132E-32));
#1203=DIRECTION('ref_axis',(-2.02572111909542E-63,0.,1.));
#1204=DIRECTION('center_axis',(5.4738221262688E-48,-1.,-4.93038065763132E-32));
#1205=DIRECTION('ref_axis',(1.,5.4738221262688E-48,2.20297171701626E-63));
#1206=DIRECTION('center_axis',(-1.,-1.1511797017215E-47,1.22464679914735E-16));
#1207=DIRECTION('ref_axis',(-1.22464679914735E-16,0.,-1.));
#1208=DIRECTION('center_axis',(-5.4738221262688E-48,1.,4.93038065763132E-32));
#1209=DIRECTION('ref_axis',(1.,5.4738221262688E-48,2.20297171701626E-63));
#1210=DIRECTION('center_axis',(-5.4738221262688E-48,1.,4.93038065763132E-32));
#1211=DIRECTION('ref_axis',(1.,5.4738221262688E-48,2.20297171701626E-63));
#1212=DIRECTION('center_axis',(-5.4738221262688E-48,1.,4.93038065763132E-32));
#1213=DIRECTION('ref_axis',(1.,5.4738221262688E-48,2.20297171701626E-63));
#1214=DIRECTION('',(5.4738221262688E-48,-1.,-4.93038065763132E-32));
#1215=DIRECTION('center_axis',(-5.4738221262688E-48,1.,4.93038065763132E-32));
#1216=DIRECTION('ref_axis',(-2.20297171701626E-63,-4.93038065763132E-32,
1.));
#1217=DIRECTION('center_axis',(5.4738221262688E-48,-1.,-4.93038065763132E-32));
#1218=DIRECTION('ref_axis',(1.,5.4738221262688E-48,2.20297171701626E-63));
#1219=DIRECTION('center_axis',(-5.4738221262688E-48,1.,4.93038065763132E-32));
#1220=DIRECTION('ref_axis',(1.,5.4738221262688E-48,2.20297171701626E-63));
#1221=DIRECTION('center_axis',(-5.4738221262688E-48,1.,4.93038065763132E-32));
#1222=DIRECTION('ref_axis',(1.,5.4738221262688E-48,2.20297171701626E-63));
#1223=DIRECTION('',(-5.4738221262688E-48,1.,4.93038065763132E-32));
#1224=DIRECTION('center_axis',(5.4738221262688E-48,-1.,-4.93038065763132E-32));
#1225=DIRECTION('ref_axis',(1.,5.4738221262688E-48,2.20297171701626E-63));
#1226=DIRECTION('center_axis',(-5.4738221262688E-48,1.,4.93038065763132E-32));
#1227=DIRECTION('ref_axis',(-2.20297171701626E-63,-4.93038065763132E-32,
1.));
#1228=DIRECTION('center_axis',(-5.4738221262688E-48,1.,4.93038065763132E-32));
#1229=DIRECTION('ref_axis',(1.,5.4738221262688E-48,2.20297171701626E-63));
#1230=DIRECTION('center_axis',(-5.4738221262688E-48,1.,4.93038065763132E-32));
#1231=DIRECTION('ref_axis',(-2.20297171701626E-63,-4.93038065763132E-32,
1.));
#1232=DIRECTION('center_axis',(5.4738221262688E-48,-1.,-4.93038065763132E-32));
#1233=DIRECTION('ref_axis',(1.,5.4738221262688E-48,2.20297171701626E-63));
#1234=DIRECTION('center_axis',(-5.4738221262688E-48,1.,4.93038065763132E-32));
#1235=DIRECTION('ref_axis',(1.,5.4738221262688E-48,2.20297171701626E-63));
#1236=DIRECTION('',(-5.4738221262688E-48,1.,4.93038065763132E-32));
#1237=DIRECTION('center_axis',(-5.4738221262688E-48,1.,4.93038065763132E-32));
#1238=DIRECTION('ref_axis',(1.,5.4738221262688E-48,2.20297171701626E-63));
#1239=DIRECTION('',(-5.4738221262688E-48,1.,4.93038065763132E-32));
#1240=DIRECTION('center_axis',(-1.03403659635882E-18,-4.93038065763132E-32,
1.));
#1241=DIRECTION('ref_axis',(-5.4738221262688E-48,1.,4.93038065763132E-32));
#1242=DIRECTION('center_axis',(-1.,-5.4228401859291E-48,-1.03403659635882E-18));
#1243=DIRECTION('ref_axis',(-9.74899052373838E-19,-0.333333333333333,0.942809041582063));
#1244=DIRECTION('',(-1.,-5.4228401859291E-48,-1.03403659635882E-18));
#1245=DIRECTION('center_axis',(-4.90522026950284E-34,-1.,4.74375886383115E-16));
#1246=DIRECTION('ref_axis',(-7.39557098644699E-32,4.74375886383115E-16,
1.));
#1247=DIRECTION('',(-1.,-5.4228401859291E-48,-1.03403659635882E-18));
#1248=DIRECTION('center_axis',(-1.03403659635882E-18,-7.59001418212984E-16,
1.));
#1249=DIRECTION('ref_axis',(-6.0212043388957E-47,1.,7.59001418212984E-16));
#1250=DIRECTION('',(-1.,-5.4228401859291E-48,-1.03403659635882E-18));
#1251=DIRECTION('center_axis',(-1.,-5.4228401859291E-48,-1.03403659635882E-18));
#1252=DIRECTION('ref_axis',(3.44678865452941E-19,-0.942809041582063,-0.333333333333334));
#1253=DIRECTION('center_axis',(5.88626432340363E-34,-1.,-5.69251063659738E-16));
#1254=DIRECTION('ref_axis',(-4.93038065763132E-32,-5.69251063659738E-16,
1.));
#1255=DIRECTION('',(-1.,-5.4228401859291E-48,-1.03403659635882E-18));
#1256=DIRECTION('center_axis',(-1.,-5.4228401859291E-48,-1.03403659635882E-18));
#1257=DIRECTION('ref_axis',(9.74899052373838E-19,0.333333333333333,-0.942809041582063));
#1258=DIRECTION('center_axis',(-1.21430643318376E-16,4.93038065763132E-32,
-1.));
#1259=DIRECTION('ref_axis',(-5.4738221262688E-48,1.,4.93038065763132E-32));
#1260=DIRECTION('',(1.,1.14608150768753E-47,-1.21430643318376E-16));
#1261=DIRECTION('center_axis',(-8.06452766815173E-32,1.,-6.6412624093636E-16));
#1262=DIRECTION('ref_axis',(1.22464679914735E-16,6.6412624093636E-16,1.));
#1263=DIRECTION('',(1.,1.14608150768753E-47,-1.21430643318376E-16));
#1264=DIRECTION('center_axis',(1.,1.14608150768753E-47,-1.21430643318376E-16));
#1265=DIRECTION('ref_axis',(-1.14485908445691E-16,-0.333333333333333,-0.942809041582063));
#1266=DIRECTION('center_axis',(-1.21430643318376E-16,-7.59001418212984E-16,
-1.));
#1267=DIRECTION('ref_axis',(-9.29508657362832E-32,1.,-7.59001418212984E-16));
#1268=DIRECTION('',(1.,1.14608150768753E-47,-1.21430643318376E-16));
#1269=DIRECTION('center_axis',(1.,1.14608150768753E-47,-1.21430643318376E-16));
#1270=DIRECTION('ref_axis',(4.04768811061254E-17,-0.942809041582063,0.333333333333334));
#1271=DIRECTION('center_axis',(1.,1.14608150768753E-47,-1.21430643318376E-16));
#1272=DIRECTION('ref_axis',(1.14485908445691E-16,0.333333333333333,0.942809041582063));
#1273=DIRECTION('',(1.,1.14608150768753E-47,-1.21430643318376E-16));
#1274=DIRECTION('center_axis',(6.9124522869872E-32,1.,5.69251063659738E-16));
#1275=DIRECTION('ref_axis',(1.22464679914735E-16,-5.69251063659738E-16,
1.));
#1276=CARTESIAN_POINT('',(0.,0.,0.));
#1277=CARTESIAN_POINT('Origin',(-11.6,-94.6306526084052,-2.07853709370814E-14));
#1278=CARTESIAN_POINT('',(-11.6,-95.4306526084052,-2.26274169979697));
#1279=CARTESIAN_POINT('',(-12.,-95.4306526084052,-1.83303027798236));
#1280=CARTESIAN_POINT('Ctrl Pts',(-11.6,-95.4306526084052,-2.26274169979697));
#1281=CARTESIAN_POINT('Ctrl Pts',(-11.6483133582284,-95.4306526084052,-2.26274169979697));
#1282=CARTESIAN_POINT('Ctrl Pts',(-11.7050845646335,-95.4306526084052,-2.25098371683726));
#1283=CARTESIAN_POINT('Ctrl Pts',(-11.7952840932166,-95.4306526084052,-2.21237348803821));
#1284=CARTESIAN_POINT('Ctrl Pts',(-11.8442817620307,-95.4306526084052,-2.17815606179354));
#1285=CARTESIAN_POINT('Ctrl Pts',(-11.9149594731645,-95.4306526084052,-2.104803652505));
#1286=CARTESIAN_POINT('Ctrl Pts',(-11.9484465448503,-95.4306526084052,-2.05206524226155));
#1287=CARTESIAN_POINT('Ctrl Pts',(-11.9879791454894,-95.4306526084052,-1.95268742217068));
#1288=CARTESIAN_POINT('Ctrl Pts',(-12.,-95.4306526084052,-1.88792267868109));
#1289=CARTESIAN_POINT('Ctrl Pts',(-12.,-95.4306526084052,-1.83303027798236));
#1290=CARTESIAN_POINT('',(-12.,-93.8306526084052,-1.83303027798236));
#1291=CARTESIAN_POINT('Origin',(-12.,-94.6306526084052,-2.07853709370814E-14));
#1292=CARTESIAN_POINT('',(-11.6,-93.8306526084052,-2.26274169979697));
#1293=CARTESIAN_POINT('Ctrl Pts',(-12.,-93.8306526084052,-1.83303027798236));
#1294=CARTESIAN_POINT('Ctrl Pts',(-12.,-93.8306526084052,-1.88792267868109));
#1295=CARTESIAN_POINT('Ctrl Pts',(-11.9879791454894,-93.8306526084052,-1.95268742217068));
#1296=CARTESIAN_POINT('Ctrl Pts',(-11.9484465448503,-93.8306526084052,-2.05206524226155));
#1297=CARTESIAN_POINT('Ctrl Pts',(-11.9149594731645,-93.8306526084052,-2.104803652505));
#1298=CARTESIAN_POINT('Ctrl Pts',(-11.8442817620307,-93.8306526084052,-2.17815606179354));
#1299=CARTESIAN_POINT('Ctrl Pts',(-11.7952840932166,-93.8306526084052,-2.21237348803821));
#1300=CARTESIAN_POINT('Ctrl Pts',(-11.7050845646335,-93.8306526084052,-2.25098371683726));
#1301=CARTESIAN_POINT('Ctrl Pts',(-11.6483133582284,-93.8306526084052,-2.26274169979697));
#1302=CARTESIAN_POINT('Ctrl Pts',(-11.6,-93.8306526084052,-2.26274169979697));
#1303=CARTESIAN_POINT('Origin',(-11.6,-94.6306526084052,-2.07853709370814E-14));
#1304=CARTESIAN_POINT('Origin',(-4.,-93.8306526084052,-0.800000000000023));
#1305=CARTESIAN_POINT('',(-12.,-93.8306526084052,-0.800000000000023));
#1306=CARTESIAN_POINT('',(-12.,-93.8306526084052,-0.800000000000023));
#1307=CARTESIAN_POINT('',(-4.,-93.8306526084052,-0.800000000000023));
#1308=CARTESIAN_POINT('',(-4.,-93.8306526084052,-0.800000000000023));
#1309=CARTESIAN_POINT('',(-4.,-93.8306526084052,-2.26274169979697));
#1310=CARTESIAN_POINT('',(-4.,-93.8306526084052,-2.20000000000002));
#1311=CARTESIAN_POINT('',(-4.,-93.8306526084052,-2.26274169979697));
#1312=CARTESIAN_POINT('Origin',(-12.,-94.6306526084052,-2.20015853349176E-14));
#1313=CARTESIAN_POINT('',(-12.,-95.4306526084052,-0.800000000000022));
#1314=CARTESIAN_POINT('',(-12.,-95.4306526084052,-2.26274169979697));
#1315=CARTESIAN_POINT('',(-12.,-96.4636828863875,-0.800000000000022));
#1316=CARTESIAN_POINT('',(-12.,-95.4306526084052,-0.800000000000022));
#1317=CARTESIAN_POINT('',(-12.,-96.4636828863875,0.799999999999978));
#1318=CARTESIAN_POINT('Origin',(-12.,-94.6306526084052,-2.21731497178628E-14));
#1319=CARTESIAN_POINT('',(-12.,-95.4306526084052,0.799999999999978));
#1320=CARTESIAN_POINT('',(-12.,-96.8933943082021,0.799999999999977));
#1321=CARTESIAN_POINT('',(-12.,-95.4306526084052,1.83303027798231));
#1322=CARTESIAN_POINT('',(-12.,-95.4306526084052,0.799999999999978));
#1323=CARTESIAN_POINT('',(-12.,-93.8306526084052,1.83303027798232));
#1324=CARTESIAN_POINT('Origin',(-12.,-94.6306526084052,-2.7169153328676E-14));
#1325=CARTESIAN_POINT('',(-12.,-93.8306526084052,0.799999999999978));
#1326=CARTESIAN_POINT('',(-12.,-93.8306526084052,2.26274169979693));
#1327=CARTESIAN_POINT('',(-12.,-92.7976223304228,0.799999999999978));
#1328=CARTESIAN_POINT('',(-12.,-93.8306526084052,0.799999999999978));
#1329=CARTESIAN_POINT('',(-12.,-92.7976223304228,-0.800000000000022));
#1330=CARTESIAN_POINT('Origin',(-12.,-94.6306526084052,-2.23119275959409E-14));
#1331=CARTESIAN_POINT('',(-12.,-92.3679109086082,-0.800000000000022));
#1332=CARTESIAN_POINT('Origin',(-11.6,-94.6306526084052,-2.21731497178628E-14));
#1333=CARTESIAN_POINT('',(-11.6,-96.8933943082021,0.799999999999977));
#1334=CARTESIAN_POINT('Ctrl Pts',(-11.6,-96.8933943082021,0.799999999999977));
#1335=CARTESIAN_POINT('Ctrl Pts',(-11.6483133582284,-96.8933943082021,0.799999999999977));
#1336=CARTESIAN_POINT('Ctrl Pts',(-11.7050845646335,-96.8816363252424,0.799999999999977));
#1337=CARTESIAN_POINT('Ctrl Pts',(-11.7952840932166,-96.8430260964434,0.799999999999977));
#1338=CARTESIAN_POINT('Ctrl Pts',(-11.8442817620307,-96.8088086701987,0.799999999999977));
#1339=CARTESIAN_POINT('Ctrl Pts',(-11.9149594731645,-96.7354562609102,0.799999999999977));
#1340=CARTESIAN_POINT('Ctrl Pts',(-11.9484465448503,-96.6827178506667,0.799999999999977));
#1341=CARTESIAN_POINT('Ctrl Pts',(-11.9879791454894,-96.5833400305758,0.799999999999977));
#1342=CARTESIAN_POINT('Ctrl Pts',(-12.,-96.5185752870863,0.799999999999977));
#1343=CARTESIAN_POINT('Ctrl Pts',(-12.,-96.4636828863875,0.799999999999977));
#1344=CARTESIAN_POINT('',(-11.6,-96.8933943082021,-0.800000000000022));
#1345=CARTESIAN_POINT('Ctrl Pts',(-12.,-96.4636828863875,-0.800000000000022));
#1346=CARTESIAN_POINT('Ctrl Pts',(-12.,-96.5185752870863,-0.800000000000022));
#1347=CARTESIAN_POINT('Ctrl Pts',(-11.9879791454894,-96.5833400305758,-0.800000000000022));
#1348=CARTESIAN_POINT('Ctrl Pts',(-11.9484465448503,-96.6827178506667,-0.800000000000022));
#1349=CARTESIAN_POINT('Ctrl Pts',(-11.9149594731645,-96.7354562609102,-0.800000000000022));
#1350=CARTESIAN_POINT('Ctrl Pts',(-11.8442817620307,-96.8088086701987,-0.800000000000022));
#1351=CARTESIAN_POINT('Ctrl Pts',(-11.7952840932166,-96.8430260964434,-0.800000000000022));
#1352=CARTESIAN_POINT('Ctrl Pts',(-11.7050845646335,-96.8816363252424,-0.800000000000022));
#1353=CARTESIAN_POINT('Ctrl Pts',(-11.6483133582284,-96.8933943082021,-0.800000000000022));
#1354=CARTESIAN_POINT('Ctrl Pts',(-11.6,-96.8933943082021,-0.800000000000022));
#1355=CARTESIAN_POINT('Origin',(-11.6,-94.6306526084052,-2.21731497178628E-14));
#1356=CARTESIAN_POINT('Origin',(-4.,-95.4306526084052,-0.800000000000022));
#1357=CARTESIAN_POINT('',(-4.,-95.4306526084052,-0.800000000000022));
#1358=CARTESIAN_POINT('',(-4.,-95.4306526084052,-0.800000000000022));
#1359=CARTESIAN_POINT('',(-4.,-96.8933943082021,-0.800000000000022));
#1360=CARTESIAN_POINT('',(-4.,-95.0306526084052,-0.800000000000023));
#1361=CARTESIAN_POINT('',(-4.,-96.8933943082021,-0.800000000000022));
#1362=CARTESIAN_POINT('Origin',(-11.6,-94.6306526084052,-2.23119275959409E-14));
#1363=CARTESIAN_POINT('',(-11.6,-92.3679109086082,-0.800000000000022));
#1364=CARTESIAN_POINT('Ctrl Pts',(-11.6,-92.3679109086082,-0.800000000000022));
#1365=CARTESIAN_POINT('Ctrl Pts',(-11.6483133582284,-92.3679109086082,-0.800000000000022));
#1366=CARTESIAN_POINT('Ctrl Pts',(-11.7050845646335,-92.3796688915679,-0.800000000000022));
#1367=CARTESIAN_POINT('Ctrl Pts',(-11.7952840932166,-92.418279120367,-0.800000000000022));
#1368=CARTESIAN_POINT('Ctrl Pts',(-11.8442817620307,-92.4524965466117,-0.800000000000022));
#1369=CARTESIAN_POINT('Ctrl Pts',(-11.9149594731645,-92.5258489559002,-0.800000000000022));
#1370=CARTESIAN_POINT('Ctrl Pts',(-11.9484465448503,-92.5785873661437,-0.800000000000022));
#1371=CARTESIAN_POINT('Ctrl Pts',(-11.9879791454894,-92.6779651862345,-0.800000000000022));
#1372=CARTESIAN_POINT('Ctrl Pts',(-12.,-92.7427299297241,-0.800000000000022));
#1373=CARTESIAN_POINT('Ctrl Pts',(-12.,-92.7976223304228,-0.800000000000022));
#1374=CARTESIAN_POINT('',(-11.6,-92.3679109086082,0.799999999999978));
#1375=CARTESIAN_POINT('Ctrl Pts',(-12.,-92.7976223304228,0.799999999999978));
#1376=CARTESIAN_POINT('Ctrl Pts',(-12.,-92.7427299297241,0.799999999999978));
#1377=CARTESIAN_POINT('Ctrl Pts',(-11.9879791454894,-92.6779651862345,0.799999999999978));
#1378=CARTESIAN_POINT('Ctrl Pts',(-11.9484465448503,-92.5785873661437,0.799999999999978));
#1379=CARTESIAN_POINT('Ctrl Pts',(-11.9149594731645,-92.5258489559002,0.799999999999978));
#1380=CARTESIAN_POINT('Ctrl Pts',(-11.8442817620307,-92.4524965466117,0.799999999999978));
#1381=CARTESIAN_POINT('Ctrl Pts',(-11.7952840932166,-92.418279120367,0.799999999999978));
#1382=CARTESIAN_POINT('Ctrl Pts',(-11.7050845646335,-92.3796688915679,0.799999999999978));
#1383=CARTESIAN_POINT('Ctrl Pts',(-11.6483133582284,-92.3679109086082,0.799999999999978));
#1384=CARTESIAN_POINT('Ctrl Pts',(-11.6,-92.3679109086082,0.799999999999978));
#1385=CARTESIAN_POINT('Origin',(-11.6,-94.6306526084052,-2.23119275959409E-14));
#1386=CARTESIAN_POINT('Origin',(-4.,-92.3679109086082,-0.800000000000022));
#1387=CARTESIAN_POINT('',(-4.,-92.3679109086082,-0.800000000000022));
#1388=CARTESIAN_POINT('',(-4.,-92.3679109086082,-0.800000000000022));
#1389=CARTESIAN_POINT('',(-4.,-93.4992817585067,-0.800000000000023));
#1390=CARTESIAN_POINT('Origin',(-4.,-94.6306526084052,-2.23040689178086E-14));
#1391=CARTESIAN_POINT('',(-4.,-92.3679109086082,0.799999999999978));
#1392=CARTESIAN_POINT('',(-4.,-92.3679109086082,0.799999999999978));
#1393=CARTESIAN_POINT('Origin',(-4.,-94.6306526084052,-2.23040689178086E-14));
#1394=CARTESIAN_POINT('Origin',(-11.6,-94.6306526084052,-2.7169153328676E-14));
#1395=CARTESIAN_POINT('',(-11.6,-93.8306526084052,2.26274169979693));
#1396=CARTESIAN_POINT('Ctrl Pts',(-11.6,-93.8306526084052,2.26274169979692));
#1397=CARTESIAN_POINT('Ctrl Pts',(-11.6483133582284,-93.8306526084052,2.26274169979692));
#1398=CARTESIAN_POINT('Ctrl Pts',(-11.7050845646335,-93.8306526084052,2.25098371683721));
#1399=CARTESIAN_POINT('Ctrl Pts',(-11.7952840932166,-93.8306526084052,2.21237348803816));
#1400=CARTESIAN_POINT('Ctrl Pts',(-11.8442817620307,-93.8306526084052,2.17815606179349));
#1401=CARTESIAN_POINT('Ctrl Pts',(-11.9149594731645,-93.8306526084052,2.10480365250496));
#1402=CARTESIAN_POINT('Ctrl Pts',(-11.9484465448503,-93.8306526084052,2.05206524226151));
#1403=CARTESIAN_POINT('Ctrl Pts',(-11.9879791454894,-93.8306526084052,1.95268742217063));
#1404=CARTESIAN_POINT('Ctrl Pts',(-12.,-93.8306526084052,1.88792267868104));
#1405=CARTESIAN_POINT('Ctrl Pts',(-12.,-93.8306526084052,1.83303027798231));
#1406=CARTESIAN_POINT('',(-11.6,-95.4306526084052,2.26274169979693));
#1407=CARTESIAN_POINT('Ctrl Pts',(-12.,-95.4306526084052,1.83303027798231));
#1408=CARTESIAN_POINT('Ctrl Pts',(-12.,-95.4306526084052,1.88792267868104));
#1409=CARTESIAN_POINT('Ctrl Pts',(-11.9879791454894,-95.4306526084052,1.95268742217063));
#1410=CARTESIAN_POINT('Ctrl Pts',(-11.9484465448503,-95.4306526084052,2.05206524226151));
#1411=CARTESIAN_POINT('Ctrl Pts',(-11.9149594731645,-95.4306526084052,2.10480365250496));
#1412=CARTESIAN_POINT('Ctrl Pts',(-11.8442817620307,-95.4306526084052,2.17815606179349));
#1413=CARTESIAN_POINT('Ctrl Pts',(-11.7952840932166,-95.4306526084052,2.21237348803816));
#1414=CARTESIAN_POINT('Ctrl Pts',(-11.7050845646335,-95.4306526084052,2.25098371683721));
#1415=CARTESIAN_POINT('Ctrl Pts',(-11.6483133582284,-95.4306526084052,2.26274169979692));
#1416=CARTESIAN_POINT('Ctrl Pts',(-11.6,-95.4306526084052,2.26274169979692));
#1417=CARTESIAN_POINT('Origin',(-11.6,-94.6306526084052,-2.7169153328676E-14));
#1418=CARTESIAN_POINT('Origin',(-4.,-93.8306526084052,2.26274169979693));
#1419=CARTESIAN_POINT('',(-4.,-93.8306526084052,2.26274169979693));
#1420=CARTESIAN_POINT('',(-4.,-93.8306526084052,2.26274169979693));
#1421=CARTESIAN_POINT('',(-4.,-93.8306526084052,0.799999999999978));
#1422=CARTESIAN_POINT('',(-4.,-93.8306526084052,-0.668629150101545));
#1423=CARTESIAN_POINT('',(-4.,-93.8306526084052,0.799999999999978));
#1424=CARTESIAN_POINT('Origin',(11.6,-94.6306526084052,-2.30229111362965E-14));
#1425=CARTESIAN_POINT('',(11.6,-96.8933943082021,-0.800000000000023));
#1426=CARTESIAN_POINT('',(12.,-96.4636828863875,-0.800000000000023));
#1427=CARTESIAN_POINT('Ctrl Pts',(11.6,-96.8933943082021,-0.800000000000023));
#1428=CARTESIAN_POINT('Ctrl Pts',(11.6483133582284,-96.8933943082021,-0.800000000000023));
#1429=CARTESIAN_POINT('Ctrl Pts',(11.7050845646335,-96.8816363252424,-0.800000000000023));
#1430=CARTESIAN_POINT('Ctrl Pts',(11.7952840932166,-96.8430260964434,-0.800000000000023));
#1431=CARTESIAN_POINT('Ctrl Pts',(11.8442817620307,-96.8088086701987,-0.800000000000023));
#1432=CARTESIAN_POINT('Ctrl Pts',(11.9149594731645,-96.7354562609102,-0.800000000000023));
#1433=CARTESIAN_POINT('Ctrl Pts',(11.9484465448503,-96.6827178506667,-0.800000000000023));
#1434=CARTESIAN_POINT('Ctrl Pts',(11.9879791454894,-96.5833400305758,-0.800000000000023));
#1435=CARTESIAN_POINT('Ctrl Pts',(12.,-96.5185752870863,-0.800000000000023));
#1436=CARTESIAN_POINT('Ctrl Pts',(12.,-96.4636828863875,-0.800000000000023));
#1437=CARTESIAN_POINT('',(12.,-96.4636828863875,0.799999999999977));
#1438=CARTESIAN_POINT('Origin',(12.,-94.6306526084052,-2.30718970082624E-14));
#1439=CARTESIAN_POINT('',(11.6,-96.8933943082021,0.799999999999976));
#1440=CARTESIAN_POINT('Ctrl Pts',(12.,-96.4636828863875,0.799999999999977));
#1441=CARTESIAN_POINT('Ctrl Pts',(12.,-96.5185752870863,0.799999999999977));
#1442=CARTESIAN_POINT('Ctrl Pts',(11.9879791454894,-96.5833400305758,0.799999999999977));
#1443=CARTESIAN_POINT('Ctrl Pts',(11.9484465448503,-96.6827178506667,0.799999999999977));
#1444=CARTESIAN_POINT('Ctrl Pts',(11.9149594731645,-96.7354562609102,0.799999999999977));
#1445=CARTESIAN_POINT('Ctrl Pts',(11.8442817620307,-96.8088086701987,0.799999999999977));
#1446=CARTESIAN_POINT('Ctrl Pts',(11.7952840932166,-96.8430260964434,0.799999999999977));
#1447=CARTESIAN_POINT('Ctrl Pts',(11.7050845646335,-96.8816363252424,0.799999999999977));
#1448=CARTESIAN_POINT('Ctrl Pts',(11.6483133582284,-96.8933943082021,0.799999999999977));
#1449=CARTESIAN_POINT('Ctrl Pts',(11.6,-96.8933943082021,0.799999999999977));
#1450=CARTESIAN_POINT('Origin',(11.6,-94.6306526084052,-2.30229111362965E-14));
#1451=CARTESIAN_POINT('Origin',(4.,-95.4306526084052,0.799999999999978));
#1452=CARTESIAN_POINT('',(12.,-95.4306526084052,0.799999999999977));
#1453=CARTESIAN_POINT('',(12.,-95.4306526084052,0.799999999999977));
#1454=CARTESIAN_POINT('',(4.,-95.4306526084052,0.799999999999978));
#1455=CARTESIAN_POINT('',(4.,-95.4306526084052,0.799999999999978));
#1456=CARTESIAN_POINT('',(4.,-96.8933943082021,0.799999999999977));
#1457=CARTESIAN_POINT('',(4.,-95.0306526084052,0.799999999999978));
#1458=CARTESIAN_POINT('',(4.,-96.8933943082021,0.799999999999977));
#1459=CARTESIAN_POINT('Origin',(12.,-94.6306526084052,-2.32434613912076E-14));
#1460=CARTESIAN_POINT('',(12.,-95.4306526084052,-0.800000000000024));
#1461=CARTESIAN_POINT('',(12.,-96.8933943082021,-0.800000000000023));
#1462=CARTESIAN_POINT('',(12.,-95.4306526084052,-1.83303027798236));
#1463=CARTESIAN_POINT('',(12.,-95.4306526084052,-0.800000000000024));
#1464=CARTESIAN_POINT('',(12.,-93.8306526084052,-1.83303027798236));
#1465=CARTESIAN_POINT('Origin',(12.,-94.6306526084052,-1.80758933974492E-14));
#1466=CARTESIAN_POINT('',(12.,-93.8306526084052,-0.800000000000024));
#1467=CARTESIAN_POINT('',(12.,-93.8306526084052,-2.26274169979697));
#1468=CARTESIAN_POINT('',(12.,-92.7976223304228,-0.800000000000024));
#1469=CARTESIAN_POINT('',(12.,-93.8306526084052,-0.800000000000024));
#1470=CARTESIAN_POINT('',(12.,-92.7976223304228,0.799999999999977));
#1471=CARTESIAN_POINT('Origin',(12.,-94.6306526084052,-2.29331191301842E-14));
#1472=CARTESIAN_POINT('',(12.,-93.8306526084052,0.799999999999977));
#1473=CARTESIAN_POINT('',(12.,-92.3679109086082,0.799999999999977));
#1474=CARTESIAN_POINT('',(12.,-93.8306526084052,1.83303027798231));
#1475=CARTESIAN_POINT('',(12.,-93.8306526084052,0.799999999999977));
#1476=CARTESIAN_POINT('',(12.,-95.4306526084052,1.83303027798231));
#1477=CARTESIAN_POINT('Origin',(12.,-94.6306526084052,-2.44596757890438E-14));
#1478=CARTESIAN_POINT('',(12.,-95.4306526084052,2.26274169979693));
#1479=CARTESIAN_POINT('Origin',(11.6,-94.6306526084052,-1.80269075254833E-14));
#1480=CARTESIAN_POINT('',(11.6,-93.8306526084052,-2.26274169979697));
#1481=CARTESIAN_POINT('Ctrl Pts',(11.6,-93.8306526084052,-2.26274169979697));
#1482=CARTESIAN_POINT('Ctrl Pts',(11.6483133582284,-93.8306526084052,-2.26274169979697));
#1483=CARTESIAN_POINT('Ctrl Pts',(11.7050845646335,-93.8306526084052,-2.25098371683726));
#1484=CARTESIAN_POINT('Ctrl Pts',(11.7952840932166,-93.8306526084052,-2.2123734880382));
#1485=CARTESIAN_POINT('Ctrl Pts',(11.8442817620307,-93.8306526084052,-2.17815606179354));
#1486=CARTESIAN_POINT('Ctrl Pts',(11.9149594731645,-93.8306526084052,-2.104803652505));
#1487=CARTESIAN_POINT('Ctrl Pts',(11.9484465448503,-93.8306526084052,-2.05206524226155));
#1488=CARTESIAN_POINT('Ctrl Pts',(11.9879791454894,-93.8306526084052,-1.95268742217068));
#1489=CARTESIAN_POINT('Ctrl Pts',(12.,-93.8306526084052,-1.88792267868109));
#1490=CARTESIAN_POINT('Ctrl Pts',(12.,-93.8306526084052,-1.83303027798235));
#1491=CARTESIAN_POINT('',(11.6,-95.4306526084052,-2.26274169979697));
#1492=CARTESIAN_POINT('Ctrl Pts',(12.,-95.4306526084052,-1.83303027798235));
#1493=CARTESIAN_POINT('Ctrl Pts',(12.,-95.4306526084052,-1.88792267868109));
#1494=CARTESIAN_POINT('Ctrl Pts',(11.9879791454894,-95.4306526084052,-1.95268742217068));
#1495=CARTESIAN_POINT('Ctrl Pts',(11.9484465448503,-95.4306526084052,-2.05206524226155));
#1496=CARTESIAN_POINT('Ctrl Pts',(11.9149594731645,-95.4306526084052,-2.104803652505));
#1497=CARTESIAN_POINT('Ctrl Pts',(11.8442817620307,-95.4306526084052,-2.17815606179354));
#1498=CARTESIAN_POINT('Ctrl Pts',(11.7952840932166,-95.4306526084052,-2.2123734880382));
#1499=CARTESIAN_POINT('Ctrl Pts',(11.7050845646335,-95.4306526084052,-2.25098371683726));
#1500=CARTESIAN_POINT('Ctrl Pts',(11.6483133582284,-95.4306526084052,-2.26274169979697));
#1501=CARTESIAN_POINT('Ctrl Pts',(11.6,-95.4306526084052,-2.26274169979697));
#1502=CARTESIAN_POINT('Origin',(11.6,-94.6306526084052,-1.80269075254833E-14));
#1503=CARTESIAN_POINT('Origin',(4.,-95.4306526084052,-0.800000000000023));
#1504=CARTESIAN_POINT('',(4.,-95.4306526084052,-0.800000000000023));
#1505=CARTESIAN_POINT('',(4.,-95.4306526084052,-0.800000000000023));
#1506=CARTESIAN_POINT('',(4.,-95.4306526084052,-2.26274169979697));
#1507=CARTESIAN_POINT('',(4.,-95.4306526084052,1.39999999999998));
#1508=CARTESIAN_POINT('',(4.,-95.4306526084052,-2.26274169979697));
#1509=CARTESIAN_POINT('Origin',(11.6,-94.6306526084052,-2.28841332582184E-14));
#1510=CARTESIAN_POINT('',(11.6,-92.3679109086082,0.799999999999977));
#1511=CARTESIAN_POINT('Ctrl Pts',(11.6,-92.3679109086082,0.799999999999977));
#1512=CARTESIAN_POINT('Ctrl Pts',(11.6483133582284,-92.3679109086082,0.799999999999977));
#1513=CARTESIAN_POINT('Ctrl Pts',(11.7050845646335,-92.3796688915679,0.799999999999977));
#1514=CARTESIAN_POINT('Ctrl Pts',(11.7952840932166,-92.418279120367,0.799999999999977));
#1515=CARTESIAN_POINT('Ctrl Pts',(11.8442817620307,-92.4524965466117,0.799999999999977));
#1516=CARTESIAN_POINT('Ctrl Pts',(11.9149594731645,-92.5258489559002,0.799999999999977));
#1517=CARTESIAN_POINT('Ctrl Pts',(11.9484465448503,-92.5785873661437,0.799999999999977));
#1518=CARTESIAN_POINT('Ctrl Pts',(11.9879791454894,-92.6779651862345,0.799999999999977));
#1519=CARTESIAN_POINT('Ctrl Pts',(12.,-92.7427299297241,0.799999999999977));
#1520=CARTESIAN_POINT('Ctrl Pts',(12.,-92.7976223304228,0.799999999999977));
#1521=CARTESIAN_POINT('',(11.6,-92.3679109086082,-0.800000000000024));
#1522=CARTESIAN_POINT('Ctrl Pts',(12.,-92.7976223304228,-0.800000000000024));
#1523=CARTESIAN_POINT('Ctrl Pts',(12.,-92.7427299297241,-0.800000000000024));
#1524=CARTESIAN_POINT('Ctrl Pts',(11.9879791454894,-92.6779651862345,-0.800000000000024));
#1525=CARTESIAN_POINT('Ctrl Pts',(11.9484465448503,-92.5785873661437,-0.800000000000024));
#1526=CARTESIAN_POINT('Ctrl Pts',(11.9149594731645,-92.5258489559002,-0.800000000000024));
#1527=CARTESIAN_POINT('Ctrl Pts',(11.8442817620307,-92.4524965466117,-0.800000000000024));
#1528=CARTESIAN_POINT('Ctrl Pts',(11.7952840932166,-92.418279120367,-0.800000000000024));
#1529=CARTESIAN_POINT('Ctrl Pts',(11.7050845646335,-92.3796688915679,-0.800000000000024));
#1530=CARTESIAN_POINT('Ctrl Pts',(11.6483133582284,-92.3679109086082,-0.800000000000024));
#1531=CARTESIAN_POINT('Ctrl Pts',(11.6,-92.3679109086082,-0.800000000000024));
#1532=CARTESIAN_POINT('Origin',(11.6,-94.6306526084052,-2.28841332582184E-14));
#1533=CARTESIAN_POINT('Origin',(4.,-92.3679109086082,0.799999999999978));
#1534=CARTESIAN_POINT('',(4.,-92.3679109086082,0.799999999999978));
#1535=CARTESIAN_POINT('',(4.,-92.3679109086082,0.799999999999978));
#1536=CARTESIAN_POINT('',(4.,-93.8306526084052,0.799999999999978));
#1537=CARTESIAN_POINT('',(4.,-93.4992817585067,0.799999999999978));
#1538=CARTESIAN_POINT('',(4.,-93.8306526084052,0.799999999999978));
#1539=CARTESIAN_POINT('Origin',(4.,-94.6306526084052,-2.19612603689987E-14));
#1540=CARTESIAN_POINT('',(4.,-92.3679109086082,-0.800000000000023));
#1541=CARTESIAN_POINT('',(4.,-92.3679109086082,-0.800000000000023));
#1542=CARTESIAN_POINT('Origin',(4.,-94.6306526084052,-2.19612603689987E-14));
#1543=CARTESIAN_POINT('Origin',(11.6,-94.6306526084052,-2.44106899170779E-14));
#1544=CARTESIAN_POINT('',(11.6,-95.4306526084052,2.26274169979693));
#1545=CARTESIAN_POINT('Ctrl Pts',(11.6,-95.4306526084052,2.26274169979693));
#1546=CARTESIAN_POINT('Ctrl Pts',(11.6483133582284,-95.4306526084052,2.26274169979693));
#1547=CARTESIAN_POINT('Ctrl Pts',(11.7050845646335,-95.4306526084052,2.25098371683721));
#1548=CARTESIAN_POINT('Ctrl Pts',(11.7952840932166,-95.4306526084052,2.21237348803816));
#1549=CARTESIAN_POINT('Ctrl Pts',(11.8442817620307,-95.4306526084052,2.1781560617935));
#1550=CARTESIAN_POINT('Ctrl Pts',(11.9149594731645,-95.4306526084052,2.10480365250496));
#1551=CARTESIAN_POINT('Ctrl Pts',(11.9484465448503,-95.4306526084052,2.05206524226151));
#1552=CARTESIAN_POINT('Ctrl Pts',(11.9879791454894,-95.4306526084052,1.95268742217064));
#1553=CARTESIAN_POINT('Ctrl Pts',(12.,-95.4306526084052,1.88792267868105));
#1554=CARTESIAN_POINT('Ctrl Pts',(12.,-95.4306526084052,1.83303027798231));
#1555=CARTESIAN_POINT('',(11.6,-93.8306526084052,2.26274169979693));
#1556=CARTESIAN_POINT('Ctrl Pts',(12.,-93.8306526084052,1.83303027798231));
#1557=CARTESIAN_POINT('Ctrl Pts',(12.,-93.8306526084052,1.88792267868105));
#1558=CARTESIAN_POINT('Ctrl Pts',(11.9879791454894,-93.8306526084052,1.95268742217063));
#1559=CARTESIAN_POINT('Ctrl Pts',(11.9484465448503,-93.8306526084052,2.05206524226151));
#1560=CARTESIAN_POINT('Ctrl Pts',(11.9149594731645,-93.8306526084052,2.10480365250496));
#1561=CARTESIAN_POINT('Ctrl Pts',(11.8442817620307,-93.8306526084052,2.1781560617935));
#1562=CARTESIAN_POINT('Ctrl Pts',(11.7952840932166,-93.8306526084052,2.21237348803816));
#1563=CARTESIAN_POINT('Ctrl Pts',(11.7050845646335,-93.8306526084052,2.25098371683721));
#1564=CARTESIAN_POINT('Ctrl Pts',(11.6483133582284,-93.8306526084052,2.26274169979693));
#1565=CARTESIAN_POINT('Ctrl Pts',(11.6,-93.8306526084052,2.26274169979693));
#1566=CARTESIAN_POINT('Origin',(11.6,-94.6306526084052,-2.44106899170779E-14));
#1567=CARTESIAN_POINT('Origin',(4.,-95.4306526084052,2.26274169979693));
#1568=CARTESIAN_POINT('',(4.,-95.4306526084052,2.26274169979693));
#1569=CARTESIAN_POINT('',(4.,-95.4306526084052,2.26274169979693));
#1570=CARTESIAN_POINT('',(4.,-95.4306526084052,2.93137084989846));
#1571=CARTESIAN_POINT('Origin',(-3.9,-94.6306526084052,-2.18877352835742E-14));
#1572=CARTESIAN_POINT('',(-3.9,-94.6306526084052,3.59999999999998));
#1573=CARTESIAN_POINT('Origin',(-3.9,-94.6306526084052,-2.18877352835742E-14));
#1574=CARTESIAN_POINT('',(-4.,-94.6306526084052,3.49999999999998));
#1575=CARTESIAN_POINT('Origin',(-3.9,-94.6306526084052,3.49999999999998));
#1576=CARTESIAN_POINT('Origin',(-4.,-94.6306526084052,-2.18877352835742E-14));
#1577=CARTESIAN_POINT('Origin',(-4.,-94.6306526084052,-3.60000000000002));
#1578=CARTESIAN_POINT('',(-4.,-94.2306526084052,0.799999999999978));
#1579=CARTESIAN_POINT('',(-4.,-95.4306526084052,2.26274169979693));
#1580=CARTESIAN_POINT('Origin',(-4.,-94.6306526084052,-2.71612946505437E-14));
#1581=CARTESIAN_POINT('',(-4.,-95.4306526084052,0.799999999999978));
#1582=CARTESIAN_POINT('',(-4.,-95.4306526084052,-1.40000000000002));
#1583=CARTESIAN_POINT('',(-4.,-96.8933943082021,0.799999999999977));
#1584=CARTESIAN_POINT('',(-4.,-95.7620234583037,0.799999999999978));
#1585=CARTESIAN_POINT('Origin',(-4.,-94.6306526084052,-2.21652910397305E-14));
#1586=CARTESIAN_POINT('',(-4.,-95.4306526084052,-2.26274169979697));
#1587=CARTESIAN_POINT('',(-4.,-95.4306526084052,-2.9313708498985));
#1588=CARTESIAN_POINT('Origin',(-4.,-94.6306526084052,-2.0777512258949E-14));
#1589=CARTESIAN_POINT('Origin',(-2.,-94.6306526084052,-2.18877352835742E-14));
#1590=CARTESIAN_POINT('',(1.14238664619531E-16,-94.6306526084052,-3.60000000000002));
#1591=CARTESIAN_POINT('',(-3.6,-91.0306526084052,-2.14468624358811E-14));
#1592=CARTESIAN_POINT('Origin',(1.35768614286072E-95,-94.6306526084052,
-2.18877352835742E-14));
#1593=CARTESIAN_POINT('',(-3.6,-98.2306526084052,-2.14468624358811E-14));
#1594=CARTESIAN_POINT('Origin',(1.35768614286072E-95,-94.6306526084052,
-2.18877352835742E-14));
#1595=CARTESIAN_POINT('',(1.11022302462516E-15,-94.6306526084052,3.59999999999998));
#1596=CARTESIAN_POINT('Origin',(1.35768614286072E-95,-94.6306526084052,
-2.18877352835742E-14));
#1597=CARTESIAN_POINT('',(-2.,-94.6306526084052,3.59999999999998));
#1598=CARTESIAN_POINT('Origin',(1.35768614286072E-95,-94.6306526084052,
-2.18877352835742E-14));
#1599=CARTESIAN_POINT('Origin',(3.9,-94.6306526084052,-2.23653475352417E-14));
#1600=CARTESIAN_POINT('',(3.9,-94.6306526084052,-3.60000000000002));
#1601=CARTESIAN_POINT('Origin',(3.9,-94.6306526084052,-2.23653475352417E-14));
#1602=CARTESIAN_POINT('',(4.,-94.6306526084052,-3.50000000000002));
#1603=CARTESIAN_POINT('Origin',(3.9,-94.6306526084052,-3.50000000000002));
#1604=CARTESIAN_POINT('Origin',(4.,-94.6306526084052,-2.23775940032331E-14));
#1605=CARTESIAN_POINT('Origin',(4.,-94.6306526084052,3.59999999999998));
#1606=CARTESIAN_POINT('',(4.,-93.8306526084052,-0.800000000000023));
#1607=CARTESIAN_POINT('',(4.,-94.2306526084052,-0.800000000000023));
#1608=CARTESIAN_POINT('',(4.,-93.8306526084052,-2.26274169979697));
#1609=CARTESIAN_POINT('',(4.,-93.8306526084052,0.668629150101501));
#1610=CARTESIAN_POINT('Origin',(4.,-94.6306526084052,-1.71040346362636E-14));
#1611=CARTESIAN_POINT('',(4.,-96.8933943082021,-0.800000000000022));
#1612=CARTESIAN_POINT('',(4.,-95.7620234583037,-0.800000000000023));
#1613=CARTESIAN_POINT('Origin',(4.,-94.6306526084052,-2.21000382470768E-14));
#1614=CARTESIAN_POINT('',(4.,-93.8306526084052,2.26274169979693));
#1615=CARTESIAN_POINT('Origin',(4.,-94.6306526084052,-2.34878170278583E-14));
#1616=CARTESIAN_POINT('',(4.,-93.8306526084052,2.19999999999998));
#1617=CARTESIAN_POINT('Origin',(2.,-94.6306526084052,-2.21326646434037E-14));
#1618=CARTESIAN_POINT('Origin',(0.,-94.6306526084052,-2.18877352835742E-14));
#1619=CARTESIAN_POINT('Origin',(0.,-94.6306526084052,-2.18877352835742E-14));
#1620=CARTESIAN_POINT('',(2.,-94.6306526084052,-3.60000000000002));
#1621=CARTESIAN_POINT('Origin',(2.13479062924483E-47,-98.5306526084052,
-2.18877352835742E-14));
#1622=CARTESIAN_POINT('',(-4.28626379701574E-16,-98.6306526084052,3.49999999999998));
#1623=CARTESIAN_POINT('Origin',(2.18952885050752E-47,-98.6306526084052,
-2.18877352835742E-14));
#1624=CARTESIAN_POINT('',(-4.40872847693047E-16,-98.5306526084052,3.59999999999998));
#1625=CARTESIAN_POINT('Origin',(-4.28626379701574E-16,-98.5306526084052,
3.49999999999998));
#1626=CARTESIAN_POINT('',(-3.6,-98.5306526084052,-2.23286081312672E-14));
#1627=CARTESIAN_POINT('Origin',(2.13479062924483E-47,-98.5306526084052,
-2.18877352835742E-14));
#1628=CARTESIAN_POINT('Origin',(2.13479062924483E-47,-98.5306526084052,
-2.18877352835742E-14));
#1629=CARTESIAN_POINT('Origin',(0.,-94.6306526084052,-2.18877352835742E-14));
#1630=CARTESIAN_POINT('',(-3.6,-94.6306526084052,-2.14468624358811E-14));
#1631=CARTESIAN_POINT('Origin',(2.93735474489503E-16,-98.6306526084052,
-2.18877352835742E-14));
#1632=CARTESIAN_POINT('',(-3.2,-98.6306526084052,-2.1495848307847E-14));
#1633=CARTESIAN_POINT('Origin',(2.18952885050752E-47,-98.6306526084052,
-2.18877352835742E-14));
#1634=CARTESIAN_POINT('Origin',(-2.13479062924483E-47,-90.7306526084052,
-2.18877352835742E-14));
#1635=CARTESIAN_POINT('',(-4.28626379701574E-16,-90.6306526084052,-3.50000000000002));
#1636=CARTESIAN_POINT('Origin',(-2.18952885050752E-47,-90.6306526084052,
-2.18877352835742E-14));
#1637=CARTESIAN_POINT('',(-4.40872847693047E-16,-90.7306526084052,-3.60000000000002));
#1638=CARTESIAN_POINT('Origin',(-4.28626379701574E-16,-90.7306526084052,
-3.50000000000002));
#1639=CARTESIAN_POINT('',(-3.6,-90.7306526084052,-2.14468624358811E-14));
#1640=CARTESIAN_POINT('Origin',(-2.13479062924483E-47,-90.7306526084052,
-2.18877352835742E-14));
#1641=CARTESIAN_POINT('Origin',(-2.13479062924483E-47,-90.7306526084052,
-2.18877352835742E-14));
#1642=CARTESIAN_POINT('Origin',(0.,-94.6306526084052,-2.18877352835742E-14));
#1643=CARTESIAN_POINT('',(-3.6,-94.6306526084052,-2.14468624358811E-14));
#1644=CARTESIAN_POINT('Origin',(2.93735474489503E-16,-90.6306526084052,
-2.18877352835742E-14));
#1645=CARTESIAN_POINT('',(-3.2,-90.6306526084052,-2.22796222593013E-14));
#1646=CARTESIAN_POINT('Origin',(-2.18952885050752E-47,-90.6306526084052,
-2.18877352835742E-14));
#1647=CARTESIAN_POINT('Origin',(0.,-94.6306526084052,-2.18877352835742E-14));
#1648=CARTESIAN_POINT('',(-2.4,-97.8306526084052,-2.15938200517788E-14));
#1649=CARTESIAN_POINT('Origin',(1.75162308040602E-47,-97.8306526084052,
-2.18877352835742E-14));
#1650=CARTESIAN_POINT('',(-2.4,-91.4306526084052,-2.15938200517788E-14));
#1651=CARTESIAN_POINT('',(-2.4,-94.6306526084052,-2.15938200517788E-14));
#1652=CARTESIAN_POINT('Origin',(-1.75162308040602E-47,-91.4306526084052,
-2.18877352835742E-14));
#1653=CARTESIAN_POINT('Origin',(3.26572479772628E-17,-97.8306526084052,
-2.18877352835742E-14));
#1654=CARTESIAN_POINT('',(-3.2,-97.8306526084052,-2.1495848307847E-14));
#1655=CARTESIAN_POINT('Origin',(1.75162308040602E-47,-97.8306526084052,
-2.18877352835742E-14));
#1656=CARTESIAN_POINT('Origin',(3.26572479772628E-17,-91.4306526084052,
-2.18877352835742E-14));
#1657=CARTESIAN_POINT('',(-3.2,-91.4306526084052,-2.1495848307847E-14));
#1658=CARTESIAN_POINT('Origin',(-1.75162308040602E-47,-91.4306526084052,
-2.18877352835742E-14));
#1659=CARTESIAN_POINT('Origin',(0.,-94.6306526084052,-2.18877352835742E-14));
#1660=CARTESIAN_POINT('',(-3.2,-94.6306526084052,-2.1495848307847E-14));
#1661=CARTESIAN_POINT('Origin',(0.,-94.6306526084052,-2.18877352835742E-14));
#1662=CARTESIAN_POINT('',(-3.2,-94.6306526084052,-2.1495848307847E-14));
#1663=CARTESIAN_POINT('Origin',(-4.,-93.8306526084052,0.799999999999978));
#1664=CARTESIAN_POINT('Origin',(-4.,-94.6306526084052,-2.71612946505437E-14));
#1665=CARTESIAN_POINT('',(-4.,-95.4306526084052,2.26274169979693));
#1666=CARTESIAN_POINT('Origin',(-4.,-95.4306526084052,0.799999999999978));
#1667=CARTESIAN_POINT('',(-4.,-95.4306526084052,0.799999999999978));
#1668=CARTESIAN_POINT('Origin',(-4.,-96.8933943082021,0.799999999999977));
#1669=CARTESIAN_POINT('',(-4.,-96.8933943082021,0.799999999999977));
#1670=CARTESIAN_POINT('Origin',(-4.,-94.6306526084052,-2.21652910397305E-14));
#1671=CARTESIAN_POINT('Origin',(-4.,-95.4306526084052,-2.26274169979697));
#1672=CARTESIAN_POINT('',(-4.,-95.4306526084052,-2.26274169979697));
#1673=CARTESIAN_POINT('Origin',(-4.,-94.6306526084052,-2.0777512258949E-14));
#1674=CARTESIAN_POINT('Origin',(4.,-93.8306526084052,-0.800000000000023));
#1675=CARTESIAN_POINT('',(4.,-93.8306526084052,-0.800000000000023));
#1676=CARTESIAN_POINT('Origin',(4.,-93.8306526084052,-2.26274169979697));
#1677=CARTESIAN_POINT('',(4.,-93.8306526084052,-2.26274169979697));
#1678=CARTESIAN_POINT('Origin',(4.,-94.6306526084052,-1.71040346362636E-14));
#1679=CARTESIAN_POINT('Origin',(4.,-96.8933943082021,-0.800000000000022));
#1680=CARTESIAN_POINT('',(4.,-96.8933943082021,-0.800000000000022));
#1681=CARTESIAN_POINT('Origin',(4.,-94.6306526084052,-2.21000382470768E-14));
#1682=CARTESIAN_POINT('Origin',(4.,-94.6306526084052,-2.34878170278583E-14));
#1683=CARTESIAN_POINT('',(4.,-93.8306526084052,2.26274169979693));
#1684=CARTESIAN_POINT('Origin',(4.,-93.8306526084052,0.799999999999978));
#1685=UNCERTAINTY_MEASURE_WITH_UNIT(LENGTH_MEASURE(0.01),#1689,
'DISTANCE_ACCURACY_VALUE',
'Maximum model space distance between geometric entities at asserted c
onnectivities');
#1686=UNCERTAINTY_MEASURE_WITH_UNIT(LENGTH_MEASURE(0.01),#1689,
'DISTANCE_ACCURACY_VALUE',
'Maximum model space distance between geometric entities at asserted c
onnectivities');
#1687=(
GEOMETRIC_REPRESENTATION_CONTEXT(3)
GLOBAL_UNCERTAINTY_ASSIGNED_CONTEXT((#1685))
GLOBAL_UNIT_ASSIGNED_CONTEXT((#1689,#1691,#1692))
REPRESENTATION_CONTEXT('','3D')
);
#1688=(
GEOMETRIC_REPRESENTATION_CONTEXT(3)
GLOBAL_UNCERTAINTY_ASSIGNED_CONTEXT((#1686))
GLOBAL_UNIT_ASSIGNED_CONTEXT((#1689,#1691,#1692))
REPRESENTATION_CONTEXT('','3D')
);
#1689=(
LENGTH_UNIT()
NAMED_UNIT(*)
SI_UNIT(.MILLI.,.METRE.)
);
#1690=(
LENGTH_UNIT()
NAMED_UNIT(*)
SI_UNIT($,.METRE.)
);
#1691=(
NAMED_UNIT(*)
PLANE_ANGLE_UNIT()
SI_UNIT($,.RADIAN.)
);
#1692=(
NAMED_UNIT(*)
SI_UNIT($,.STERADIAN.)
SOLID_ANGLE_UNIT()
);
#1693=SHAPE_DEFINITION_REPRESENTATION(#1694,#1695);
#1694=PRODUCT_DEFINITION_SHAPE('',$,#1697);
#1695=SHAPE_REPRESENTATION('',(#907),#1687);
#1696=PRODUCT_DEFINITION_CONTEXT('part definition',#1701,'design');
#1697=PRODUCT_DEFINITION('2026-07-17-15-59-10-280',
'42094_27940-DkBluishGray ',#1698,#1696);
#1698=PRODUCT_DEFINITION_FORMATION('',$,#1703);
#1699=PRODUCT_RELATED_PRODUCT_CATEGORY('42094_27940-DkBluishGray ',
'42094_27940-DkBluishGray ',(#1703));
#1700=APPLICATION_PROTOCOL_DEFINITION('international standard',
'automotive_design',2009,#1701);
#1701=APPLICATION_CONTEXT(
'Core Data for Automotive Mechanical Design Process');
#1702=PRODUCT_CONTEXT('part definition',#1701,'mechanical');
#1703=PRODUCT('2026-07-17-15-59-10-280','42094_27940-DkBluishGray ',$,(#1702));
#1704=PRESENTATION_STYLE_ASSIGNMENT((#1706));
#1705=PRESENTATION_STYLE_ASSIGNMENT((#1707));
#1706=SURFACE_STYLE_USAGE(.BOTH.,#1708);
#1707=SURFACE_STYLE_USAGE(.BOTH.,#1709);
#1708=SURFACE_SIDE_STYLE('',(#1710));
#1709=SURFACE_SIDE_STYLE('',(#1711));
#1710=SURFACE_STYLE_FILL_AREA(#1712);
#1711=SURFACE_STYLE_FILL_AREA(#1713);
#1712=FILL_AREA_STYLE('Smooth - White',(#1714));
#1713=FILL_AREA_STYLE('Opaque(108,110,104)',(#1715));
#1714=FILL_AREA_STYLE_COLOUR('Smooth - White',#1716);
#1715=FILL_AREA_STYLE_COLOUR('Opaque(108,110,104)',#1717);
#1716=COLOUR_RGB('Smooth - White',0.92156862745098,0.92156862745098,0.92156862745098);
#1717=COLOUR_RGB('Opaque(108,110,104)',0.423529411764706,0.431372549019608,
0.407843137254902);
ENDSEC;
END-ISO-10303-21;
